<svg width="725" height="925" xmlns="http://www.w3.org/2000/svg" xmlns:xlink="http://www.w3.org/1999/xlink" overflow="hidden"><defs><clipPath id="clip0"><rect x="2420" y="1517" width="725" height="925"/></clipPath></defs><g clip-path="url(#clip0)" transform="translate(-2420 -1517)"><rect x="2420" y="1570" width="725" height="872" fill="#FFFFFF"/><path d="M2783 1577C2638.3 1577 2521 1691.39 2521 1832.5 2521 1973.61 2638.3 2088 2783 2088 2927.7 2088 3045 1973.61 3045 1832.5 3045 1691.39 2927.7 1577 2783 1577Z" fill="#004AAD" fill-rule="evenodd"/><path d="M2783 2050 2783 2050C2811.17 2050 2834 2072.93 2834 2101.22L2834 2390.78C2834 2419.07 2811.17 2442 2783 2442L2783 2442C2754.83 2442 2732 2419.07 2732 2390.78L2732 2101.22C2732 2072.93 2754.83 2050 2783 2050Z" fill="#004AAD" fill-rule="evenodd"/><path d="M2783 1614C2659.29 1614 2559 1711.83 2559 1832.5 2559 1953.17 2659.29 2051 2783 2051 2906.71 2051 3007 1953.17 3007 1832.5 3007 1711.83 2906.71 1614 2783 1614Z" fill="#FFFFFF" fill-rule="evenodd"/><path d="M2637.5 1636 2637.5 1636C2643.2 1636 2648.67 1638.3 2652.7 1642.39 2656.73 1646.49 2659 1652.04 2659 1657.83L2659 2015.17C2659 2020.96 2656.73 2026.51 2652.7 2030.61 2648.67 2034.7 2643.2 2037 2637.5 2037L2637.5 2037C2625.63 2037 2616 2027.23 2616 2015.17L2616 1657.83C2616 1645.77 2625.63 1636 2637.5 1636Z" fill="#004AAD" fill-rule="evenodd"/><path d="M2733.5 1601 2733.5 1601C2746.48 1601 2757 1611.52 2757 1624.49L2757 2049.51C2757 2055.74 2754.52 2061.71 2750.12 2066.12 2745.71 2070.53 2739.73 2073 2733.5 2073L2733.5 2073C2727.27 2073 2721.29 2070.53 2716.88 2066.12 2712.48 2061.71 2710 2055.74 2710 2049.51L2710 1624.49C2710 1618.26 2712.48 1612.28 2716.88 1607.88 2721.29 1603.47 2727.27 1601 2733.5 1601Z" fill="#004AAD" fill-rule="evenodd"/><path d="M2828.5 1600 2828.5 1600C2834.73 1600 2840.71 1602.46 2845.12 1606.83 2849.53 1611.21 2852 1617.15 2852 1623.34L2852 2049.66C2852 2055.85 2849.53 2061.79 2845.12 2066.17 2840.71 2070.54 2834.73 2073 2828.5 2073L2828.5 2073C2822.27 2073 2816.29 2070.54 2811.88 2066.17 2807.48 2061.79 2805 2055.85 2805 2049.66L2805 1623.34C2805 1617.15 2807.48 1611.21 2811.88 1606.83 2816.29 1602.46 2822.27 1600 2828.5 1600Z" fill="#004AAD" fill-rule="evenodd"/><path d="M2922 1636 2922 1636C2927.04 1636 2931.87 1638 2935.43 1641.55 2939 1645.11 2941 1649.93 2941 1654.96L2941 2018.04C2941 2023.07 2939 2027.89 2935.43 2031.45 2931.87 2035 2927.04 2037 2922 2037L2922 2037C2911.51 2037 2903 2028.51 2903 2018.04L2903 1654.96C2903 1644.49 2911.51 1636 2922 1636Z" fill="#004AAD" fill-rule="evenodd"/><path d="M2783 2232.5 2783 2232.5C2783 2221.23 2787.47 2210.42 2795.43 2202.45 2803.39 2194.48 2814.18 2190 2825.44 2190L2973.56 2190C2997 2190 3016 2209.03 3016 2232.5L3016 2232.5C3016 2243.77 3011.53 2254.58 3003.57 2262.55 2995.61 2270.52 2984.82 2275 2973.56 2275L2825.44 2275C2802 2275 2783 2255.97 2783 2232.5Z" fill="#004AAD" fill-rule="evenodd"/><path d="M2783 2345.5 2783 2345.5C2783 2334.23 2787.47 2323.42 2795.43 2315.45 2803.39 2307.48 2814.18 2303 2825.44 2303L2973.56 2303C2997 2303 3016 2322.03 3016 2345.5L3016 2345.5C3016 2356.77 3011.53 2367.58 3003.57 2375.55 2995.61 2383.52 2984.82 2388 2973.56 2388L2825.44 2388C2802 2388 2783 2368.97 2783 2345.5Z" fill="#004AAD" fill-rule="evenodd"/></g></svg>