<?xml version="1.0" encoding="UTF-8"?>
<svg version="1.1" xmlns="http://www.w3.org/2000/svg" width="512" height="512">
<path d="M0 0 C0.85207031 -0.04898438 1.70414063 -0.09796875 2.58203125 -0.1484375 C6.28876692 0.59624403 7.58408517 2.65020521 10.1875 5.375 C11.21453644 6.40290182 12.2448018 7.42758493 13.27783203 8.44946289 C16.30852424 11.4623862 19.33618836 14.47833216 22.36279297 17.49536133 C23.66529046 18.7928028 24.96868015 20.0893492 26.27294922 21.38500977 C28.16610701 23.26602888 30.05600817 25.15026772 31.9453125 27.03515625 C32.52660919 27.61129166 33.10790588 28.18742706 33.70681763 28.78102112 C36.43710889 31.51093345 38.98160577 34.18746828 41.1875 37.375 C45.63335402 35.94186129 50.04324688 34.46824644 54.37890625 32.7265625 C84.97409801 20.54300773 119.92733071 17.39091051 152.1875 24.375 C152.96561035 24.54128906 153.7437207 24.70757813 154.54541016 24.87890625 C165.04498301 27.20496547 174.87022411 30.56952132 184.69140625 34.9597168 C185.48289062 35.30172119 186.274375 35.64372559 187.08984375 35.99609375 C188.13386353 36.46680298 188.13386353 36.46680298 189.19897461 36.94702148 C191.22222237 37.56055102 191.22222237 37.56055102 193.25488281 36.6730957 C195.32367755 35.28353259 196.63821446 33.91702323 198.20703125 31.984375 C203.09879208 26.20664308 208.50450376 20.95073507 213.875 15.625 C214.91755363 14.58747659 215.95987283 13.54971757 217.00195312 12.51171875 C218.91091763 10.61084429 220.82146585 8.71161666 222.7331543 6.81347656 C224.29733131 5.2594131 225.84231374 3.68561398 227.36083984 2.08691406 C229.6952353 -0.10084067 230.96627718 -0.16393649 234.125 -0.125 C237.73952639 0.01361016 239.07806585 0.3079995 242.25 2.25 C245.56564734 5.88651644 245.31211986 8.76366371 245.26586914 13.46411133 C245.25975047 14.97874378 245.25382399 16.49337701 245.24806213 18.00801086 C245.2410538 19.21639838 245.2410538 19.21639838 245.23390388 20.44919777 C245.21471111 24.72852212 245.22995034 29.00777204 245.24023438 33.28710938 C245.25243855 38.72710849 245.25443972 44.1663259 245.21166992 49.60620117 C245.17799851 54.00513606 245.18392451 58.40252495 245.21523857 62.80145836 C245.2201241 64.46817618 245.21107193 66.13500217 245.18702888 67.80155373 C245.02397634 79.82250838 247.03237042 86.63889375 254.1875 96.375 C259.53433404 106.04557214 265.1875 119.18641584 265.1875 130.375 C266.0125 130.045 266.8375 129.715 267.6875 129.375 C272.76706956 127.92369441 277.06948325 127.45412315 282.0625 129.625 C285.71471861 132.63270945 286.09138747 134.52371756 286.625 139.25 C286.48987713 142.8848053 285.59642574 145.33669504 283.01953125 148.0546875 C278.53354661 151.28765724 272.70929113 153.375 267.1875 153.375 C267.16171875 154.18839844 267.1359375 155.00179687 267.109375 155.83984375 C266.75875953 162.92386997 265.89179515 169.54691276 264.25 176.4375 C264.08016602 177.15091553 263.91033203 177.86433105 263.73535156 178.59936523 C262.80948239 182.32091843 261.71670174 185.85715025 260.1875 189.375 C260.99574219 189.53355469 261.80398438 189.69210938 262.63671875 189.85546875 C267.39697767 190.89480152 271.33198579 191.81562532 275.4375 194.5 C277.88480969 198.5205802 277.95389611 201.78495374 277.1875 206.375 C275.52803836 210.27473486 274.04142485 211.77565641 270.1875 213.375 C262.6898274 213.8510427 255.56586792 212.65224452 248.1875 211.375 C247.93355469 212.09945312 247.67960937 212.82390625 247.41796875 213.5703125 C240.26324427 229.87854164 221.46989403 243.63055811 207.1875 253.375 C208.68061701 261.66731244 210.81710075 269.75291289 213.0390625 277.875 C213.42077331 279.27811135 213.80231038 280.68126997 214.1836853 282.08447266 C214.98332764 285.02340467 215.78547355 287.96163898 216.58935547 290.89941406 C217.59615913 294.57973836 218.59612914 298.26187756 219.59423161 301.94456959 C223.68072508 317.0089727 227.9174224 331.99546953 232.57539368 346.89555359 C234.82430174 354.11123481 236.87234192 361.30257916 238.5 368.6875 C238.85807739 370.27413452 238.85807739 370.27413452 239.22338867 371.89282227 C241.43455597 381.97347726 243.04490873 392.12000726 244.1875 402.375 C244.2810376 403.16632324 244.3745752 403.95764648 244.47094727 404.77294922 C245.33220258 412.89867219 245.44243057 421.02527447 245.48266602 429.18896484 C245.49417168 430.80591594 245.51460133 432.42282948 245.54418945 434.03955078 C245.79924985 448.05789839 244.3571132 460.6778687 237.4375 473.1875 C236.51710938 474.89873047 236.51710938 474.89873047 235.578125 476.64453125 C233.65532335 479.85026956 231.3855683 482.70208068 229.03808594 485.6081543 C228.31715759 486.50261765 227.59622925 487.39708099 226.85345459 488.31864929 C226.30368958 488.99724503 225.75392456 489.67584076 225.1875 490.375 C234.36808794 490.31347711 243.54837331 490.23615069 252.72865677 490.13928509 C256.99258746 490.09477726 261.2564269 490.05547949 265.52050781 490.02856445 C269.64448703 490.0023341 273.76811132 489.9617966 277.89186859 489.91181374 C279.45607804 489.89527716 281.02034869 489.88368143 282.58463287 489.87738609 C302.17116779 489.79067492 318.53534686 485.10480373 332.6328125 471.0625 C344.92204502 458.13437772 350.75278142 442.6120894 350.60717773 424.82250977 C350.01777629 407.94591871 342.89052842 392.93338679 331.0703125 381.03515625 C319.47051862 370.33128141 304.51750089 365.06807756 288.9375 364 C284.25624099 363.59453662 281.76474794 362.4019021 278.1875 359.375 C276.33023384 355.66046768 276.60248911 351.41920575 277.1875 347.375 C279.37772918 344.55075712 281.01767207 342.95991397 284.1875 341.375 C306.02827099 339.75022161 326.12875448 346.84117286 342.90625 360.60546875 C359.5124332 375.13587905 371.44990513 394.34952439 373.4909668 416.69775391 C373.62289664 420.03387114 373.65584757 423.34897379 373.625 426.6875 C373.61597656 427.86739502 373.60695313 429.04729004 373.59765625 430.26293945 C373.11944782 454.45729709 362.54920153 474.99285824 345.23046875 491.73828125 C336.40841374 499.63565313 325.43590986 505.76863675 314.1875 509.375 C313.015137 509.75512537 313.015137 509.75512537 311.81908989 510.14293003 C300.36897494 513.29536624 288.7845415 512.80398952 277.00048828 512.77905273 C274.55988249 512.78476237 272.11927937 512.79172892 269.67868042 512.79985046 C263.76313899 512.81587886 257.84769584 512.81789583 251.9321443 512.81263756 C247.11897595 512.80857904 242.30583885 512.81005926 237.49267197 512.81538582 C236.80492387 512.81613424 236.11717577 512.81688266 235.40858682 512.81765376 C234.01096273 512.81918541 232.61333864 512.82072375 231.21571456 512.82226873 C218.13972976 512.83596378 205.06380496 512.83057723 191.98782156 512.81908352 C180.05504747 512.80915441 168.1224285 512.82209152 156.18967833 512.84601771 C143.90255341 512.87046663 131.61550058 512.88000239 119.32835186 512.87336498 C112.44388305 512.86988557 105.55953343 512.87201973 98.67508316 512.88961601 C92.19886703 512.90596524 85.72287323 512.90106664 79.24666214 512.88231087 C76.87926793 512.87864064 74.51185158 512.88168735 72.14447784 512.89219666 C47.70207869 512.99236112 27.66519181 508.22153848 9.6171875 490.828125 C-5.51518702 475.44767876 -11.37466516 456.17545119 -11.21157837 435.08654785 C-11.20363251 434.29486206 -11.19568665 433.50317627 -11.1875 432.6875 C-11.18317963 431.87341675 -11.17885925 431.0593335 -11.17440796 430.22058105 C-11.08690206 416.10986721 -10.19027936 402.30298758 -7.8125 388.375 C-7.64089355 387.36115234 -7.46928711 386.34730469 -7.29248047 385.30273438 C-4.22257278 367.71180665 0.39856954 350.60614063 5.67480469 333.56030273 C10.27353308 318.66887299 14.51695721 303.68994825 18.60644531 288.65209961 C19.51983757 285.29545054 20.44562411 281.94234019 21.37389374 278.58977985 C22.26815761 275.34991464 23.14880276 272.10638466 24.03125 268.86328125 C24.36443237 267.66552567 24.69761475 266.46777008 25.04089355 265.23371887 C25.33870728 264.12703354 25.636521 263.02034821 25.94335938 261.88012695 C26.34137756 260.4253167 26.34137756 260.4253167 26.74743652 258.94111633 C27.20041 256.29971866 27.18180845 254.84575425 26.1875 252.375 C23.99994101 250.45115229 23.99994101 250.45115229 21.25 248.6875 C15.46497006 244.64171132 10.30346129 240.23122787 5.1875 235.375 C4.26710937 234.50746094 3.34671875 233.63992187 2.3984375 232.74609375 C-3.72489977 226.8167465 -9.32784608 220.66095637 -13.8125 213.375 C-13.8125 212.715 -13.8125 212.055 -13.8125 211.375 C-15.06353516 211.5915625 -15.06353516 211.5915625 -16.33984375 211.8125 C-32.95868069 214.55375145 -32.95868069 214.55375145 -38.6875 212.1875 C-41.27976259 209.9764525 -42.56036701 208.57489543 -43.8125 205.375 C-44.19826372 200.44081294 -43.5745087 197.31748444 -40.4375 193.4375 C-36.16122893 190.3979936 -30.90238806 189.9818016 -25.8125 189.375 C-26.05484375 188.77558594 -26.2971875 188.17617187 -26.546875 187.55859375 C-30.51323382 176.83416972 -32.03340029 165.6273766 -33.8125 154.375 C-34.77671875 154.07207031 -35.7409375 153.76914063 -36.734375 153.45703125 C-38.01070249 153.03471701 -39.28672869 152.61149146 -40.5625 152.1875 C-41.81546875 151.78144531 -43.0684375 151.37539062 -44.359375 150.95703125 C-48.69494461 148.97071259 -50.70622595 146.5875481 -52.8125 142.375 C-53.41218751 137.09774989 -52.08414725 134.48792798 -48.8125 130.375 C-44.75567738 127.67045159 -41.57039116 127.95423412 -36.8125 128.375 C-33.25 129.375 -33.25 129.375 -30.8125 130.375 C-30.72613281 129.75496094 -30.63976562 129.13492188 -30.55078125 128.49609375 C-28.34132277 114.57042424 -23.2377358 96.35070085 -13.26759338 85.72915649 C-11.27838228 82.51086529 -11.40302991 79.59946892 -11.44360352 75.93188477 C-11.43983704 75.18830719 -11.43607056 74.44472961 -11.43218994 73.67861938 C-11.42576432 72.06736574 -11.4260811 70.45607419 -11.43237495 68.84482002 C-11.44148952 66.29309406 -11.4312577 63.74210223 -11.41575623 61.19041443 C-11.37566535 53.93709446 -11.37445437 46.68383225 -11.37670898 39.43041992 C-11.3767601 34.99066057 -11.3575843 30.55129742 -11.32737541 26.11164665 C-11.31655284 23.60042086 -11.32867861 21.08995208 -11.34120178 18.57875061 C-11.33229637 17.03499607 -11.32222163 15.49124768 -11.31079102 13.94750977 C-11.32053452 13.25176346 -11.33027802 12.55601715 -11.34031677 11.83918762 C-11.2703469 7.09786395 -10.15456405 4.70966013 -6.8125 1.375 C-4.40736979 0.17243489 -2.68396436 0.1046223 0 0 Z M11.1875 39.375 C11.18385437 39.9983876 11.18020874 40.62177521 11.17645264 41.26405334 C11.13454606 47.76975387 11.06514299 54.27475426 10.97998047 60.7800293 C10.95180655 63.20573921 10.93057429 65.63154033 10.91650391 68.05737305 C10.89502573 71.55044116 10.84834738 75.04241691 10.796875 78.53515625 C10.79503204 80.15430687 10.79503204 80.15430687 10.79315186 81.8061676 C10.66900386 88.23139695 9.92022772 92.10627728 6.1875 97.375 C5.34058594 98.6434375 5.34058594 98.6434375 4.4765625 99.9375 C3.92742187 100.741875 3.37828125 101.54625 2.8125 102.375 C-4.3794777 113.6722697 -7.39545303 125.378627 -9.8125 138.375 C-8.65427734 138.76768066 -7.49605469 139.16036133 -6.30273438 139.56494141 C-1.92571976 141.04967657 2.45013614 142.53780268 6.82568359 144.02685547 C8.70461037 144.66577392 10.58383305 145.303823 12.46337891 145.94091797 C18.71378892 148.05998383 24.95397351 150.20680385 31.1875 152.375 C32.40252197 152.79307922 32.40252197 152.79307922 33.64208984 153.21960449 C35.8812117 153.99442611 38.11316685 154.78691927 40.34375 155.5859375 C41.3264386 155.92221664 41.3264386 155.92221664 42.32897949 156.26528931 C46.06641574 157.63160392 48.2216578 158.87152732 50.1875 162.375 C51.58207832 167.20238648 51.22258357 170.7739415 49.1875 175.375 C44.56545849 178.01616658 40.22614206 177.33805313 35.1875 176.375 C31.83920186 175.45826599 28.56940345 174.34855819 25.2890625 173.21484375 C23.91480606 172.75084923 23.91480606 172.75084923 22.51278687 172.27748108 C19.61020748 171.29630328 16.71122342 170.30500555 13.8125 169.3125 C10.89183612 168.31805261 7.97046333 167.32578599 5.04794312 166.33680725 C3.23490814 165.72271217 1.42303687 165.1051686 -0.38754272 164.48387146 C-1.20244171 164.20680862 -2.0173407 163.92974579 -2.85693359 163.64428711 C-3.57448822 163.39859482 -4.29204285 163.15290253 -5.03134155 162.89976501 C-6.82276945 162.28079671 -6.82276945 162.28079671 -8.8125 162.375 C-8.62966742 169.58857645 -7.19978728 181.98771272 -1.8125 187.375 C8.08586957 187.11924331 17.98477321 185.60735531 27.7890625 184.3046875 C35.23956895 183.38443492 41.95019111 182.9625637 49.1875 185.375 C51.57171955 194.05424528 51.57171955 194.05424528 50.1875 198.8125 C47.07979624 202.79424545 43.55878562 204.09981261 38.66064453 205.08276367 C37.39333496 205.23463135 36.12602539 205.38649902 34.8203125 205.54296875 C34.14072479 205.62750809 33.46113708 205.71204742 32.76095581 205.79914856 C30.61258486 206.06400372 28.46275841 206.31348465 26.3125 206.5625 C24.84623031 206.74051927 23.38008257 206.919546 21.9140625 207.09960938 C18.33987683 207.53639353 14.76422045 207.95941975 11.1875 208.375 C35.4397492 236.99244888 67.45831086 252.17751217 104.6875 255.6875 C139.7478412 258.53445294 177.35153085 249.68031369 204.87207031 226.98583984 C208.43614791 223.91009407 211.82671142 220.67200719 215.1875 217.375 C216.43466797 216.1684375 216.43466797 216.1684375 217.70703125 214.9375 C220.5010878 212.20810676 220.5010878 212.20810676 223.1875 209.375 C223.1875 209.045 223.1875 208.715 223.1875 208.375 C221.83386353 208.21680786 221.83386353 208.21680786 220.45288086 208.05541992 C217.0765953 207.65569651 213.70174471 207.24642322 210.32739258 206.83081055 C208.87211997 206.65351927 207.41638889 206.47994725 205.96020508 206.31030273 C203.85624134 206.06451595 201.75433905 205.80499828 199.65234375 205.54296875 C198.390271 205.39110107 197.12819824 205.2392334 195.82788086 205.08276367 C191.45302503 204.23220321 186.68764919 203.20126858 183.75 199.625 C182.65864788 195.25959152 182.59819633 191.70093325 184.4375 187.5625 C186.34768065 185.17477419 187.35390795 184.43637984 190.1875 183.375 C200.79413541 183.05950518 211.7530783 185.07668021 222.26220703 186.3581543 C223.34356934 186.48875244 224.42493164 186.61935059 225.5390625 186.75390625 C226.50666504 186.8732251 227.47426758 186.99254395 228.47119141 187.11547852 C231.06342731 187.36314585 233.58547204 187.42204599 236.1875 187.375 C241.90450001 175.39135728 241.90450001 175.39135728 243.1875 162.375 C237.7822451 163.05174927 232.94676242 164.72133226 227.84375 166.53515625 C226.02221962 167.17016347 224.20060237 167.80492154 222.37890625 168.43945312 C219.52722242 169.43894396 216.67662747 170.44134353 213.82763672 171.44848633 C211.06493685 172.42298237 208.29842963 173.38596805 205.53125 174.34765625 C204.68421509 174.65075211 203.83718018 174.95384796 202.96447754 175.26612854 C198.59208305 176.7784636 194.87889857 177.91601292 190.1875 177.375 C184.47980769 174.25192308 184.47980769 174.25192308 183.1875 170.375 C182.81332439 165.32362929 182.93266205 162.32653084 186.1875 158.375 C189.12000837 156.80633549 192.20390807 155.81128451 195.359375 154.78125 C196.27398499 154.46724243 197.18859497 154.15323486 198.13092041 153.82971191 C201.06107883 152.82811329 203.99884059 151.85133885 206.9375 150.875 C208.86903811 150.21906093 210.8000345 149.5615244 212.73046875 148.90234375 C218.20866939 147.03724536 223.69671089 145.20264463 229.1875 143.375 C230.76633253 142.8478254 232.34511186 142.32049142 233.92382812 141.79296875 C237.3440991 140.65077225 240.76539438 139.51169003 244.1875 138.375 C241.67777754 122.71192826 236.17476111 105.82042125 225.6158905 93.54840088 C223.86671044 90.88689516 223.79354871 89.3134137 223.75512695 86.14746094 C223.73533279 85.10668396 223.71553864 84.06590698 223.69514465 82.99359131 C223.68555977 81.31840424 223.68555977 81.31840424 223.67578125 79.609375 C223.65783005 78.46084045 223.63987885 77.31230591 223.62138367 76.12896729 C223.56720659 72.46101552 223.53336031 68.79319445 223.5 65.125 C223.46683356 62.63800262 223.43234454 60.1510225 223.39648438 57.6640625 C223.31147574 51.56782552 223.24315704 45.47157178 223.1875 39.375 C222.07974102 40.30890193 220.97422421 41.24546375 219.86962891 42.18310547 C219.25374908 42.70436005 218.63786926 43.22561462 218.00332642 43.76266479 C215.30799839 46.15593996 212.94053924 48.79705424 210.5625 51.5 C201.24414713 62.06967454 201.24414713 62.06967454 194.66796875 62.7265625 C189.24734528 62.65095425 185.1961169 60.24392537 180.5 57.75 C145.14234146 40.04303964 104.86123793 39.34640496 67.64599609 51.51611328 C60.38842176 54.05157967 53.03000966 56.97691705 46.49609375 61.0546875 C43.11239067 62.98986794 39.93718538 63.01482727 36.1875 62.375 C27.94953086 58.3436534 21.50184164 49.94649544 15.6953125 43.00390625 C14.08709955 41.1392126 14.08709955 41.1392126 11.1875 39.375 Z M49.1875 264.375 C46.39083268 271.27252305 44.44526903 278.36609845 42.5044136 285.5408802 C41.90158117 287.76878382 41.29384789 289.99530136 40.68490601 292.22154236 C39.1724225 297.75474992 37.66769699 303.29005972 36.16363525 308.82556152 C34.89176906 313.50569267 33.61641433 318.18484637 32.33652878 322.86279106 C31.74561918 325.02783418 31.15963858 327.19416882 30.57388306 329.36061096 C28.39448172 337.36208154 25.97854995 345.23450976 23.28379822 353.07815552 C21.62946164 358.05316172 20.33185595 363.08805471 19.125 368.1875 C18.87532471 369.23574951 18.62564941 370.28399902 18.3684082 371.36401367 C13.73617543 391.45589497 11.03505668 411.81645589 10.9375 432.4375 C10.916875 433.53126953 10.89625 434.62503906 10.875 435.75195312 C10.80792787 449.84548353 15.15225301 463.99998166 25.01953125 474.43359375 C36.90674559 485.07854064 49.52450615 490.60141588 65.5 490.4375 C66.75393555 490.43073242 66.75393555 490.43073242 68.03320312 490.42382812 C70.08466649 490.41210548 72.13609273 490.39417203 74.1875 490.375 C74.19336624 489.14582352 74.19923248 487.91664703 74.20527649 486.65022278 C74.26247336 475.07004494 74.33521925 463.49005544 74.42321491 451.91006947 C74.46795469 445.95658024 74.50720302 440.00316002 74.53393555 434.04956055 C74.55993229 428.30469903 74.60030934 422.56010255 74.65068626 416.81540489 C74.66737948 414.62298566 74.67887843 412.43052056 74.68511391 410.23804665 C74.69472811 407.16858721 74.72275599 404.09980961 74.75512695 401.03051758 C74.75369186 400.12277084 74.75225677 399.21502411 74.7507782 398.2797699 C74.82194197 393.51282581 75.04727421 390.22474141 78.1875 386.375 C81.87626027 384.53061987 86.16080313 384.88711266 90.1875 385.375 C92.76387471 387.26015223 93.78417428 388.56834857 95.1875 391.375 C95.29040671 392.70504516 95.33389842 394.03996404 95.34571838 395.37393188 C95.3555072 396.20968246 95.36529602 397.04543304 95.37538147 397.9065094 C95.38113693 398.82504196 95.3868924 399.74357452 95.39282227 400.68994141 C95.40272186 401.65583694 95.41262146 402.62173248 95.42282104 403.61689758 C95.45449216 406.82009401 95.47921565 410.02330528 95.50390625 413.2265625 C95.52447093 415.44331251 95.54546727 417.66005855 95.56687927 419.87680054 C95.62215012 425.71949051 95.67153727 431.56221616 95.71972656 437.40496826 C95.76990502 443.36376125 95.82561014 449.32250225 95.88085938 455.28125 C95.98850227 466.97912396 96.08942309 478.67704193 96.1875 490.375 C110.0475 490.375 123.9075 490.375 138.1875 490.375 C138.20208252 487.40218018 138.21666504 484.42936035 138.23168945 481.36645508 C138.28201184 471.54755487 138.34860283 461.72881365 138.42321491 451.91006947 C138.46795469 445.95658024 138.50720302 440.00316002 138.53393555 434.04956055 C138.55993229 428.30469903 138.60030934 422.56010255 138.65068626 416.81540489 C138.66737948 414.62298566 138.67887843 412.43052056 138.68511391 410.23804665 C138.69472811 407.16858721 138.72275599 404.09980961 138.75512695 401.03051758 C138.75297432 399.66889748 138.75297432 399.66889748 138.7507782 398.2797699 C138.82194197 393.51282581 139.04727421 390.22474141 142.1875 386.375 C145.87626027 384.53061987 150.16080313 384.88711266 154.1875 385.375 C156.76387471 387.26015223 157.78417428 388.56834857 159.1875 391.375 C159.29040671 392.70504516 159.33389842 394.03996404 159.34571838 395.37393188 C159.36040161 396.62755775 159.36040161 396.62755775 159.37538147 397.9065094 C159.38113693 398.82504196 159.3868924 399.74357452 159.39282227 400.68994141 C159.40272186 401.65583694 159.41262146 402.62173248 159.42282104 403.61689758 C159.45449216 406.82009401 159.47921565 410.02330528 159.50390625 413.2265625 C159.52447093 415.44331251 159.54546727 417.66005855 159.56687927 419.87680054 C159.62215012 425.71949051 159.67153727 431.56221616 159.71972656 437.40496826 C159.76990502 443.36376125 159.82561014 449.32250225 159.88085938 455.28125 C159.98850226 466.97912228 160.08993359 478.67703965 160.1875 490.375 C163.06259054 490.40720915 165.93731539 490.43069164 168.8125 490.44921875 C170.02486328 490.46414368 170.02486328 490.46414368 171.26171875 490.47937012 C185.76695909 490.54939033 198.8760843 484.55526891 209.1875 474.375 C225.17898817 454.96931655 224.66639878 433.42972926 222.41772461 409.37158203 C221.2619323 398.60484048 219.51407484 387.98874609 217.375 377.375 C217.03927979 375.69603638 217.03927979 375.69603638 216.69677734 373.9831543 C215.0779801 366.39400771 212.90390206 359.06963377 210.52438354 351.69377136 C208.05328845 344.02958323 205.82747262 336.30885521 203.66110229 328.55377197 C202.97660852 326.10377528 202.28750873 323.65510459 201.59790039 321.20654297 C199.05164759 312.14644345 196.55603874 303.07366134 194.1015625 293.98828125 C193.59798045 292.13108181 193.09431941 290.27390378 192.59057617 288.41674805 C191.62307965 284.84902223 190.66664027 281.27856552 189.71606445 277.70629883 C189.27852987 276.08795268 188.84064224 274.46970192 188.40234375 272.8515625 C188.10929855 271.73259331 188.10929855 271.73259331 187.81033325 270.59101868 C187.3299369 268.83465208 186.76662602 267.1013306 186.1875 265.375 C184.2242265 264.11754197 184.2242265 264.11754197 182.09057617 264.93237305 C180.798573 265.40477417 180.798573 265.40477417 179.48046875 265.88671875 C178.51141602 266.23081787 177.54236328 266.57491699 176.54394531 266.92944336 C174.97531738 267.4903064 174.97531738 267.4903064 173.375 268.0625 C158.45799442 273.21668614 143.03377683 276.92835249 127.1875 277.375 C126.48367188 277.39546387 125.77984375 277.41592773 125.0546875 277.43701172 C98.44393583 278.10118271 74.21718981 273.26833301 49.1875 264.375 Z " fill="#000000" transform="translate(138.8125,-0.375)"/>
<path d="M0 0 C2.07287297 0.00097067 4.14201837 -0.0406276 6.21435547 -0.08496094 C17.38250437 -0.10683782 17.38250437 -0.10683782 21.08935547 2.75097656 C24.1217247 6.68244606 24.60096942 9.61947401 24.21044922 14.50097656 C22.67045527 18.22938296 20.67784844 20.44220827 17.21044922 22.50097656 C16.22044922 22.50097656 15.23044922 22.50097656 14.21044922 22.50097656 C15.68585635 29.63211102 17.65221814 34.8888635 23.71044922 39.37597656 C30.30663335 43.20839639 37.90354875 41.86391463 45.14794922 40.81347656 C48.19921685 40.42724015 49.12552936 40.46590097 52.08544922 41.68847656 C56.95524089 45.8421224 56.95524089 45.8421224 57.53076172 49.58300781 C57.7228059 53.44309588 57.51733434 55.91278008 55.71044922 59.37597656 C48.50528426 65.50036678 38.3132641 66.23444078 29.21044922 65.50097656 C18.62782353 63.49925599 10.55193455 59.15641698 2.21044922 52.50097656 C1.53240234 53.03207031 0.85435547 53.56316406 0.15576172 54.11035156 C-10.73130001 62.37366157 -20.99851344 66.58610826 -34.78955078 65.50097656 C-39.97920146 64.62801546 -44.36849573 63.71902375 -48.41455078 60.25097656 C-50.12321255 56.83365302 -50.72236394 54.33062628 -50.78955078 50.50097656 C-49.60583513 47.08135356 -48.54951372 45.12674259 -45.75439453 42.82519531 C-40.94678943 40.67792505 -36.17257033 41.40817038 -31.00244141 41.70605469 C-25.02865082 41.90121438 -20.75030483 40.93970651 -15.78955078 37.50097656 C-11.82401618 33.33802357 -10.05263762 28.01262823 -8.78955078 22.50097656 C-9.69705078 22.41847656 -10.60455078 22.33597656 -11.53955078 22.25097656 C-15.38792302 21.36289066 -16.58374501 20.76883697 -18.78955078 17.50097656 C-19.95868756 13.21681097 -20.31288743 9.76800214 -18.60205078 5.62597656 C-13.22089154 -0.68296876 -7.9311211 -0.02623097 0 0 Z " fill="#000000" transform="translate(253.78955078125,148.4990234375)"/>
<path d="M0 0 C3.07061968 1.71368609 5.40450726 3.80901452 7 7 C7.37766377 12.00404498 7.11200434 14.99885156 4 19 C1.47450701 21.81689603 -0.71884281 22.2730238 -4.375 22.5 C-9.4446815 22.3494154 -11.55877551 20.61328571 -15 17 C-16.59689041 13.80621918 -16.37348957 10.47478685 -16 7 C-12.93799622 -0.04260869 -7.15154468 -1.24966438 0 0 Z " fill="#000000" transform="translate(314,128)"/>
<path d="M0 0 C2.89728868 1.2328888 4.39683427 2.2245012 6.3125 4.6875 C7.56052677 8.88540822 7.56052677 13.11459178 6.3125 17.3125 C4.06581433 20.20109586 1.73402304 21.74024756 -1.9296875 22.2890625 C-6.41888674 22.47540662 -9.43692963 21.9522583 -13 19 C-15.12738138 16.28575479 -15.92909561 14.4760723 -16.4375 11.0625 C-15.8806713 7.16469912 -14.43417323 5.06010349 -12 2 C-7.95514343 -0.69657104 -4.74692804 -0.5422677 0 0 Z " fill="#000000" transform="translate(207,128)"/>
</svg>
