<?xml version="1.0" encoding="UTF-8"?>
<svg version="1.1" xmlns="http://www.w3.org/2000/svg" width="512" height="512">
<path d="M0 0 C1.05052659 -0.00352835 1.05052659 -0.00352835 2.12227595 -0.00712797 C4.48670567 -0.01382473 6.85108053 -0.01335955 9.21551895 -0.01294994 C10.92078747 -0.01624814 12.62605521 -0.01997361 14.33132195 -0.02409142 C19.03128235 -0.03412444 23.73122997 -0.0378303 28.43119955 -0.04048073 C33.49472822 -0.04437989 38.55824675 -0.05395844 43.62176895 -0.0626936 C55.85647358 -0.08246819 68.09117905 -0.09252512 80.32589567 -0.10142139 C86.08400805 -0.10580233 91.84211952 -0.11116961 97.60023117 -0.11641026 C116.73522501 -0.13342292 135.87021827 -0.14791812 155.00521851 -0.155159 C159.97231166 -0.15706896 164.93940482 -0.15898929 169.90649796 -0.16094494 C171.14107979 -0.16142868 172.37566163 -0.16191242 173.64765504 -0.16241082 C193.65666334 -0.17071493 213.66561192 -0.19605812 233.67459413 -0.22852562 C254.20591942 -0.26156979 274.73721434 -0.27960533 295.26856637 -0.28280324 C306.80084577 -0.2849707 318.33303807 -0.29375392 329.8652916 -0.31926441 C339.68460401 -0.34093526 349.50380817 -0.34903964 359.32314178 -0.33929763 C364.33462388 -0.33474254 369.34588247 -0.33670927 374.35733414 -0.35605907 C378.94429032 -0.3736172 383.53085874 -0.37275304 388.11781862 -0.35716178 C389.7780087 -0.35477451 391.43822512 -0.35916698 393.09837481 -0.37099043 C395.35481249 -0.38606637 397.60986849 -0.37646833 399.86627197 -0.36076355 C401.11962145 -0.36174036 402.37297092 -0.36271717 403.66430068 -0.36372358 C409.70810385 0.49111649 414.14074127 3.51008292 418.05981827 8.19672108 C418.63474014 8.86832264 419.20966202 9.5399242 419.80200577 10.23187733 C422.09933011 13.3923207 422.30102407 16.01480343 422.23689079 19.79319382 C422.21642596 21.23842577 422.21642596 21.23842577 422.1955477 22.71285433 C422.16529629 24.30515134 422.16529629 24.30515134 422.13443375 25.92961597 C422.11749918 27.05654254 422.10056462 28.1834691 422.08311689 29.34454495 C422.04558715 31.82530194 422.00583512 34.30602603 421.96419334 36.78671741 C421.86123667 42.96836717 421.77318497 49.15021435 421.68630621 55.33210827 C421.66556183 56.80800168 421.64465494 58.2838928 421.62359288 59.7597817 C421.45703519 71.482419 421.33752737 83.20492956 421.25156021 94.92842579 C421.24566791 95.72812032 421.23977561 96.52781486 421.23370476 97.35174256 C421.17324346 105.64509869 421.11843184 113.93848423 421.06769273 122.23190519 C421.04131053 126.50070365 421.01342777 130.76949105 420.98462296 135.03827381 C420.97891645 135.88748852 420.97320994 136.73670324 420.9673305 137.61165173 C420.88512163 149.4304438 420.73129692 161.24634505 420.51847252 173.06347747 C420.1506297 193.50254177 419.93459838 213.93771318 419.97388077 234.38031483 C419.97507199 235.18456565 419.97626322 235.98881648 419.97749054 236.81743854 C420.0773154 288.10747957 425.69833826 333.37611359 443.27798843 381.97929859 C444.69344551 385.92514709 446.09689973 389.87494724 447.48706436 393.82977772 C447.82003659 394.77237835 448.15300881 395.71497899 448.4960711 396.68614328 C454.1102941 412.9597243 455.5616001 428.44483797 455.45679092 445.61249256 C455.4501285 447.30837991 455.4501285 447.30837991 455.44333148 449.03852761 C455.40897323 452.24630974 455.32558578 455.44733767 455.21280289 458.65324879 C455.17822869 460.07029372 455.17822869 460.07029372 455.14295602 461.51596582 C454.75917178 468.55134913 452.66940585 473.6193868 447.67296469 478.65919775 C442.24599309 483.38402615 438.33340011 484.43010416 431.24707699 484.39148998 C430.43751617 484.39499606 429.62795534 484.39850213 428.79386237 484.40211445 C426.06389927 484.41146531 423.33414776 484.40649566 420.60417557 484.40164661 C418.63405584 484.40538102 416.6639376 484.4099817 414.69382173 484.41537726 C409.26640425 484.42764863 403.83904822 484.42734193 398.41162002 484.42498851 C392.56350298 484.42458138 386.71540592 484.43560949 380.86729813 484.44510365 C369.40459919 484.46173729 357.94192081 484.46721426 346.47921082 484.4683284 C337.16443092 484.46927776 327.84965783 484.47338242 318.53487968 484.47972965 C315.85505449 484.4815247 313.17522928 484.48330433 310.49540406 484.48507941 C309.82921798 484.4855215 309.1630319 484.4859636 308.47665836 484.48641909 C289.73397128 484.49873023 270.99128653 484.50661995 252.24859524 484.50573254 C251.54172863 484.50570138 250.83486202 484.50567022 250.1065752 484.50563812 C246.52376369 484.5054719 242.94095218 484.50527382 239.35814067 484.5050687 C238.64656325 484.50502881 237.93498583 484.50498892 237.20184546 484.50494782 C235.76286188 484.50486695 234.32387831 484.50478335 232.88489474 484.50469704 C210.49550409 484.50347147 188.10617401 484.51848473 165.71680069 484.54584217 C140.57069683 484.57655528 115.42463277 484.59377513 90.27850896 484.59191573 C76.96108582 484.59117421 63.64372442 484.59678146 50.32631874 484.61827183 C38.98822046 484.63645048 27.65022144 484.64085827 16.31211492 484.62725298 C10.52496393 484.62070658 4.73800356 484.62066641 -1.04912949 484.63795948 C-6.3447469 484.65362134 -11.64002146 484.65089719 -16.93563017 484.63339122 C-18.85352436 484.6303061 -20.77144371 484.63401021 -22.68930826 484.64511137 C-25.29326172 484.65918801 -27.89600518 484.64868157 -30.49991703 484.63199902 C-31.62093398 484.64690356 -31.62093398 484.64690356 -32.76459774 484.6621092 C-39.19402014 484.57482282 -43.32221491 482.46188365 -47.99486923 478.09906483 C-48.55432236 477.43004139 -49.11377548 476.76101795 -49.69018173 476.07172108 C-50.26510361 475.40011951 -50.84002548 474.72851795 -51.43236923 474.03656483 C-60.14370191 462.05233032 -55.40793017 430.9943393 -53.81518173 417.13422108 C-52.36548314 409.12385787 -49.83207038 401.47682186 -47.11083603 393.82098866 C-46.77273497 392.86101479 -46.43463392 391.90104092 -46.08628738 390.91197693 C-44.67105551 386.91113507 -43.24212554 382.9154636 -41.79841679 378.92480832 C-24.42638285 330.66430347 -19.71777259 285.37287327 -19.70971298 234.52093983 C-19.70916088 233.7195698 -19.70860877 232.91819977 -19.70803994 232.09254581 C-19.69904692 211.66072405 -19.97459136 191.23644315 -20.36314189 170.80874741 C-20.5858911 158.9861831 -20.73795224 147.16423023 -20.84130478 135.34003162 C-20.85243335 134.07126451 -20.85243335 134.07126451 -20.86378673 132.77686574 C-20.9366177 124.35825262 -21.00128518 115.93957753 -21.06592536 107.52089837 C-21.09735468 103.44789403 -21.1296168 99.37489653 -21.16202927 95.30189991 C-21.16823137 94.50703079 -21.17443348 93.71216168 -21.18082353 92.89320562 C-21.26703186 81.99679637 -21.40697887 71.10237953 -21.58950432 60.207179 C-21.65952367 55.9006885 -21.71909882 51.59404063 -21.77810834 47.2873868 C-21.8249566 43.94569862 -21.88175008 40.60485935 -21.95217323 37.26353931 C-22.0281245 33.64592577 -22.07955995 30.02873333 -22.12556076 26.41063404 C-22.15446689 25.36075406 -22.18337302 24.31087408 -22.21315509 23.22917956 C-22.27188415 15.79085937 -20.95765808 11.49986753 -15.78002548 5.95453358 C-14.77649033 5.11535389 -14.77649033 5.11535389 -13.75268173 4.25922108 C-12.74527939 3.39683826 -12.74527939 3.39683826 -11.71752548 2.51703358 C-7.95335779 -0.2191376 -4.50666741 0.00643449 0 0 Z M-6.81518173 15.13422108 C-10.57524951 20.9576126 -10.23083313 26.91792656 -10.17594528 33.68181324 C-10.17850856 34.83935598 -10.18107183 35.99689872 -10.18371278 37.18951851 C-10.18778963 40.38908382 -10.17845308 43.58828164 -10.1633786 46.78780353 C-10.15039344 50.24306345 -10.15480944 53.69830701 -10.15708542 57.15358448 C-10.15865659 63.13562459 -10.14926376 69.11756635 -10.1323719 75.09958172 C-10.10796525 83.74849866 -10.10017493 92.39736815 -10.09640793 101.0463158 C-10.08984606 115.07946937 -10.06989207 129.11257055 -10.04150009 143.14569569 C-10.01395268 156.77557584 -9.99272244 170.40544175 -9.97997665 184.03534412 C-9.97918848 184.87583781 -9.97840031 185.7163315 -9.97758826 186.5822947 C-9.97367308 190.79890826 -9.96988197 195.01552192 -9.96615255 199.23213565 C-9.93506486 234.199544 -9.87976622 269.16685541 -9.81518173 304.13422108 C27.14481827 304.13422108 64.10481827 304.13422108 102.18481827 304.13422108 C102.18481827 300.17422108 102.18481827 296.21422108 102.18481827 292.13422108 C100.78231827 292.10843983 99.37981827 292.08265858 97.93481827 292.05609608 C71.70747581 291.36016447 47.28850675 284.18080786 28.18481827 265.13422108 C8.12633619 243.58621469 2.05922174 218.52407412 2.96704483 189.63129139 C4.45176396 165.78923219 18.06195908 144.9569601 35.18481827 129.13422108 C36.59644388 127.94073299 38.01273417 126.75272806 39.43481827 125.57172108 C47.64581362 118.50528871 51.85937543 109.49866301 53.05981827 98.88422108 C53.59167625 89.31077737 51.33514983 81.17475157 46.27075577 73.07172108 C43.37739396 67.90946404 43.61963272 61.88160089 44.18481827 56.13422108 C45.90764502 50.28645486 49.0861697 46.50125315 54.18481827 43.13422108 C60.48716846 40.02538423 66.36498666 39.37142131 73.18481827 41.13422108 C82.76765572 44.94693083 87.10067406 54.04566775 91.02075577 63.03656483 C99.18609938 84.765147 99.48636159 107.59143808 90.55981827 129.11078358 C84.10579489 143.30230089 75.03599852 154.56331146 63.12231827 164.57172108 C53.6714762 172.83657512 47.71055693 182.92863869 46.73950577 195.61468983 C46.14178403 210.10982422 49.76606254 221.95456733 59.62231827 232.82172108 C60.89075577 233.96640858 60.89075577 233.96640858 62.18481827 235.13422108 C62.66177139 235.61504139 63.13872452 236.0958617 63.63013077 236.59125233 C74.94094615 247.38297232 90.51759463 248.41267603 105.32544327 248.20453358 C106.26903702 248.18133045 107.21263077 248.15812733 108.18481827 248.13422108 C108.68110733 247.10683826 109.17739639 246.07945545 109.68872452 245.02093983 C113.36813679 237.48811981 117.14944538 230.24378485 121.83716202 223.27093983 C123.33283824 221.0878642 123.33283824 221.0878642 124.18481827 218.13422108 C122.87612981 215.09762002 122.87612981 215.09762002 120.99731827 211.75922108 C114.33710947 199.07720443 110.87928236 185.48457041 110.89429092 171.16840076 C110.8875737 170.22692188 110.88085648 169.285443 110.8739357 168.31543446 C110.85507494 165.22893323 110.85103627 162.14265122 110.84888077 159.05609608 C110.84244015 156.88106674 110.83571089 154.70603823 110.82870865 152.53101063 C110.8167623 147.97522448 110.81302466 143.41951396 110.8142128 138.86371326 C110.81441481 133.08831438 110.78722328 127.31341411 110.75266838 121.53813267 C110.73017511 117.04217881 110.72638219 112.54634019 110.72743225 108.05033588 C110.72510558 105.92494728 110.71645248 103.799554 110.70076752 101.67422199 C110.52122651 74.81251515 116.25349479 50.61215778 127.18481827 26.13422108 C128.18481827 25.13422108 128.18481827 25.13422108 131.48950577 24.67328358 C137.8751652 24.76706496 142.95114165 28.36002516 148.30981827 31.50922108 C149.41913712 32.14899891 150.52845596 32.78877674 151.67139053 33.44794178 C165.40091425 41.46109881 178.20870763 49.67005512 187.18481827 63.13422108 C187.70946671 63.02465076 188.23411514 62.91508045 188.77466202 62.80218983 C190.49386031 62.45034059 192.2156203 62.11094579 193.93872452 61.77875233 C196.18317884 61.33310255 198.42016159 60.84871332 200.64966202 60.33343983 C220.7128036 56.10434605 241.28963844 56.98407936 261.17212296 61.67670155 C263.82534487 62.27982356 266.49582517 62.72352277 269.18481827 63.13422108 C269.74169327 62.42136951 270.29856827 61.70851795 270.87231827 60.97406483 C281.55549034 47.56596204 294.15173207 39.72741341 308.87231827 31.19672108 C309.8526503 30.60826405 310.83298233 30.01980701 311.84302139 29.41351795 C317.62309923 26.08019778 321.49103137 24.36399886 328.18481827 25.13422108 C339.08355683 44.84470572 345.29238889 68.20769949 345.36182022 90.73114491 C345.36839142 91.66885731 345.37496262 92.60656971 345.38173294 93.57269764 C345.40136627 96.66221688 345.41311049 99.75168757 345.42309952 102.84125233 C345.42717505 103.90458979 345.43125057 104.96792725 345.4354496 106.06348705 C345.45627474 111.69928635 345.47058802 117.33506161 345.47998428 122.970891 C345.49100052 128.74561983 345.52535539 134.51995824 345.56515598 140.29454994 C345.59151334 144.77403364 345.59969327 149.25342729 345.60326576 153.73298168 C345.60808779 155.85889458 345.61957367 157.98480467 345.63830376 160.11064053 C345.77437841 176.58779523 344.50690071 192.24613582 337.55981827 207.44672108 C337.26075577 208.13443592 336.96169327 208.82215076 336.65356827 209.53070545 C335.43648043 212.32839188 334.2266224 215.06002716 332.72778702 217.72015858 C331.87439491 220.3127074 331.87439491 220.3127074 333.71216202 223.12250233 C334.5023056 224.24005628 335.30672944 225.34759935 336.12231827 226.44672108 C346.74473924 241.8637138 353.04756393 260.16468083 353.50122452 278.93890858 C353.51987564 279.5815868 353.53852676 280.22426502 353.55774307 280.88641834 C353.62544358 283.26056163 353.68597088 285.63490513 353.74731827 288.00922108 C353.89169327 293.33047108 354.03606827 298.65172108 354.18481827 304.13422108 C372.66481827 304.13422108 391.14481827 304.13422108 410.18481827 304.13422108 C410.25095168 268.32823544 410.30634531 232.52230739 410.33801426 196.71627816 C410.34176639 192.48930004 410.34564935 188.26232205 410.34961319 184.03534412 C410.35040012 183.19382693 410.35118705 182.35230974 410.35199783 181.48529202 C410.36505267 167.85856305 410.38870695 154.23187204 410.41627666 140.60516559 C410.44432867 126.62349073 410.4609941 112.64183575 410.46708375 98.6601339 C410.47120062 90.03228317 410.48420466 81.40453973 410.50856767 72.77672202 C410.52442233 66.86075262 410.52921924 60.9448387 410.5253224 55.02884959 C410.52340043 51.61533464 410.52635214 48.20200721 410.54243469 44.78852558 C410.5573347 41.08613791 410.55378045 37.38421132 410.54558182 33.68181324 C410.55432034 32.60495571 410.56305887 31.52809818 410.57206219 30.41860861 C410.53724008 24.61066358 410.38228788 20.0862907 407.18481827 15.13422108 C402.30210661 12.57997324 398.67134637 11.75894435 393.09608841 11.75669765 C392.4147592 11.75233733 391.73342999 11.74797701 391.03145444 11.74348456 C388.75562914 11.73256374 386.48041421 11.74293502 384.20459366 11.75327015 C382.55361783 11.74981232 380.90264431 11.74504692 379.25167561 11.73908842 C374.72031289 11.72656592 370.18913975 11.7327545 365.65777636 11.74204707 C360.76881787 11.74883208 355.87989209 11.73835905 350.99094009 11.73010731 C341.41560991 11.71676195 331.84035023 11.7196513 322.26501727 11.72834523 C314.48348712 11.7351182 306.70197674 11.73604017 298.92044449 11.73277378 C297.81326948 11.73231408 296.70609448 11.73185438 295.56536871 11.73138075 C293.31621956 11.73042158 291.06707042 11.72944895 288.81792128 11.72846298 C267.72373172 11.71990673 246.62958127 11.72974691 225.53539813 11.74586408 C207.43251599 11.75926747 189.32969155 11.75693944 171.22681046 11.7431078 C150.20850645 11.72705614 129.19023673 11.72073073 108.17192745 11.72994459 C105.93101566 11.73090024 103.69010385 11.73184335 101.44919205 11.73277378 C100.34659784 11.73323661 99.24400363 11.73369943 98.10799748 11.73417629 C90.33510361 11.73676741 82.56223147 11.73239252 74.78934097 11.72533512 C65.31780595 11.71692454 55.84634551 11.71919099 46.37481904 11.73517735 C41.54157547 11.74306598 36.7084563 11.74614154 31.87521362 11.7362299 C27.45129508 11.72729482 23.02761636 11.73219629 18.60371959 11.74816255 C17.00287516 11.75151538 15.40201049 11.74980501 13.80117905 11.74253519 C11.62501416 11.73341024 9.44967027 11.74277106 7.27354813 11.75669765 C6.06489562 11.75718471 4.85624311 11.75767177 3.61096478 11.75817358 C-0.5213926 12.21173347 -3.13445407 13.20875603 -6.81518173 15.13422108 Z M134.18481827 40.13422108 C130.39641981 50.56509389 126.91845495 60.97212901 124.80981827 71.88422108 C124.6548085 72.6604784 124.49979874 73.43673573 124.34009171 74.236516 C121.1679539 91.86211312 121.99706193 110.15543245 121.99951553 127.99847889 C121.99959686 131.00212077 121.99263046 134.00561035 121.97900772 137.00922108 C121.02709133 166.21292225 121.02709133 166.21292225 126.87231827 194.50922108 C127.13504532 195.24559803 127.39777237 195.98197498 127.66846085 196.74066639 C132.36878183 209.47237529 139.45737707 219.88189812 148.18481827 230.13422108 C148.75716202 230.81097889 149.32950577 231.4877367 149.91919327 232.18500233 C168.68410267 252.44916995 197.6883385 262.95668002 224.73950577 264.09906483 C255.53208438 264.75702591 283.90315906 253.09172129 306.18481827 232.13422108 C315.83761008 222.75446996 323.36944735 210.67202016 328.18481827 198.13422108 C328.55349014 197.17644764 328.92216202 196.2186742 329.30200577 195.23187733 C335.94602615 176.00301542 334.47143948 154.82676315 334.38043594 134.76184559 C334.36961242 131.75835831 334.37001988 128.75491578 334.37042141 125.75141239 C334.62566986 97.53788791 334.62566986 97.53788791 330.99731827 69.63422108 C330.78244766 68.58049305 330.56757706 67.52676502 330.34619522 66.44110584 C328.40852209 57.36063764 325.63142201 48.74480844 322.18481827 40.13422108 C317.04043489 40.70809651 312.99685942 43.14572425 308.55981827 45.63422108 C307.75947159 46.08273426 306.95912491 46.53124744 306.1345253 46.99335194 C294.64963969 53.57982833 284.78979261 61.92318492 277.55981827 73.13422108 C275.18481827 76.13422108 275.18481827 76.13422108 272.54419327 76.96625233 C268.36985752 77.17496911 264.96201447 76.13550794 261.05981827 74.82172108 C250.21512705 71.23069597 239.54103174 69.74203512 228.12231827 69.75922108 C226.50583389 69.76055042 226.50583389 69.76055042 224.85669327 69.76190662 C213.31517196 69.9300782 202.36280098 71.86103856 191.52856827 75.83343983 C187.69246889 77.11227784 185.08409483 77.64595777 181.18481827 76.13422108 C179.36664634 74.16131111 177.974634 72.39491989 176.49731827 70.19672108 C166.89260667 57.0246996 150.88941537 42.79756744 134.18481827 40.13422108 Z M59.18481827 55.13422108 C56.85074023 57.46829911 56.23150201 58.61340563 55.93481827 61.92328358 C56.21896614 65.57280785 57.19036178 67.53564634 58.99731827 70.69672108 C66.66503334 85.34332576 66.65561805 99.80924952 61.82641983 115.30707264 C58.07241132 125.99771179 49.59611571 134.1995344 41.18481827 141.41156483 C30.13319811 150.93063609 23.04333734 162.38682053 18.18481827 176.13422108 C17.86513077 176.98371326 17.54544327 177.83320545 17.21606827 178.70843983 C11.42905597 197.0607705 14.4872157 218.52413219 22.78638077 235.52484608 C33.40611298 255.34043579 48.92301146 269.12272222 70.30981827 276.32172108 C80.81949064 279.39014788 91.24783204 280.13422108 102.18481827 280.13422108 C103.17481827 273.53422108 104.16481827 266.93422108 105.18481827 260.13422108 C103.74751358 260.10843983 102.31020889 260.08265858 100.82934952 260.05609608 C89.99058626 259.77334573 80.29296247 259.3591658 70.18481827 255.13422108 C69.33274796 254.80808826 68.48067764 254.48195545 67.60278702 254.14593983 C54.01315119 248.26066447 43.67382062 235.83049754 38.30981827 222.32172108 C32.44792851 206.38592144 33.61285601 188.59915793 40.46997452 173.25922108 C45.00022198 164.173488 51.6431355 157.30931296 59.18481827 150.63422108 C73.95159738 137.49041614 83.9247331 121.29558372 85.18481827 101.13422108 C85.23766983 100.35047108 85.29052139 99.56672108 85.34497452 98.75922108 C85.86572292 83.54431134 81.99994174 67.85269345 72.71216202 55.65765858 C68.1236456 51.08087749 64.27644887 51.57007966 59.18481827 55.13422108 Z M131.18481827 231.13422108 C112.56777276 256.46875724 110.89206342 293.30506987 115.43481827 323.31000233 C119.4513114 343.78993345 131.29616811 360.19328453 148.08325577 372.16547108 C166.10031787 383.60199413 184.75737207 384.30767793 205.37231827 384.19672108 C207.0083846 384.19169401 208.64445243 384.18713325 210.28052139 384.1830492 C214.24865812 384.17214385 218.21672117 384.15494637 222.18481827 384.13422108 C222.43307398 378.85095761 222.61392621 373.57112081 222.73413467 368.283391 C222.78425741 366.48754192 222.85238199 364.69209765 222.9392128 362.89764881 C223.79964761 352.68901775 223.79964761 352.68901775 220.24829483 343.55951405 C217.64394742 341.71092413 215.10336713 340.42211531 212.18481827 339.13422108 C210.55799717 338.15957092 208.94276964 337.16524871 207.34106827 336.14984608 C204.98962008 334.7460551 202.63213232 333.35327447 200.27075577 331.96625233 C199.51020889 331.51121326 198.74966202 331.0561742 197.96606827 330.58734608 C197.2860878 330.18676991 196.60610733 329.78619373 195.90552139 329.37347889 C194.18481827 328.13422108 194.18481827 328.13422108 192.18481827 325.13422108 C192.55981827 321.44672108 192.55981827 321.44672108 193.18481827 318.13422108 C197.04388591 317.28061764 199.40800017 316.80637706 203.1032753 318.36591053 C204.0402626 318.98683582 204.97724991 319.60776112 205.94263077 320.24750233 C206.98032608 320.91845936 208.01802139 321.58941639 209.08716202 322.28070545 C210.68237686 323.35288319 210.68237686 323.35288319 212.30981827 324.44672108 C214.43526278 325.84194368 216.56279242 327.23399626 218.69263077 328.62250233 C219.62736221 329.24681141 220.56209366 329.87112049 221.5251503 330.51434803 C225.17453748 332.75235716 225.17453748 332.75235716 229.18481827 334.13422108 C231.80492054 333.17816699 231.80492054 333.17816699 234.30981827 331.37250233 C235.26372452 330.74795155 236.21763077 330.12340076 237.20044327 329.4799242 C238.18528702 328.80896717 239.17013077 328.13801014 240.18481827 327.44672108 C242.14307945 326.1510391 244.10141044 324.85546264 246.05981827 323.56000233 C246.92349014 322.97645985 247.78716202 322.39291737 248.67700577 321.79169178 C249.91837296 320.97124378 249.91837296 320.97124378 251.18481827 320.13422108 C252.03688858 319.56211903 252.88895889 318.99001698 253.76684952 318.4005785 C257.15727045 316.62492085 259.5342397 317.34684139 263.18481827 318.13422108 C263.99731827 321.32172108 263.99731827 321.32172108 264.18481827 325.13422108 C260.38046715 329.84546801 255.48286359 332.60174623 250.30981827 335.63422108 C248.74835829 336.55866753 247.18844009 337.4857235 245.63013077 338.41547108 C244.94451065 338.81830311 244.25889053 339.22113514 243.55249405 339.6361742 C242.77116104 340.13052967 241.98982803 340.62488514 241.18481827 341.13422108 C240.28813683 341.61613155 240.28813683 341.61613155 239.37334061 342.1077776 C235.60823932 344.33101283 235.60823932 344.33101283 233.57648087 348.04562855 C233.37423857 350.3731373 233.39652849 352.60109071 233.50122452 354.93500233 C233.51112915 355.7713773 233.52103378 356.60775227 233.53123856 357.46947193 C233.57030151 360.13036975 233.65809438 362.78707951 233.74731827 365.44672108 C233.78244322 367.25460402 233.81438018 369.06255191 233.84302139 370.8705492 C233.92003536 375.29337693 234.04075076 379.71309009 234.18481827 384.13422108 C238.87637227 384.18454303 243.56776124 384.22036462 248.2595253 384.24408436 C249.84776936 384.25399689 251.43599592 384.26753091 253.02417374 384.28509998 C277.78510224 384.55168376 300.03931614 381.20411351 318.88306046 363.52972889 C336.67648011 346.11264065 342.01869501 325.83885069 342.35132217 301.69598866 C342.51083028 277.96081113 339.87712106 257.08062134 328.18481827 236.13422108 C327.66145889 235.18031483 327.13809952 234.22640858 326.59888077 233.24359608 C325.89891983 232.19945545 325.89891983 232.19945545 325.18481827 231.13422108 C324.52481827 231.13422108 323.86481827 231.13422108 323.18481827 231.13422108 C321.6843189 232.61783802 321.6843189 232.61783802 320.12231827 234.57172108 C307.88656415 248.83840979 294.24437852 258.45185848 277.18481827 266.13422108 C276.12907608 266.61761951 275.07333389 267.10101795 273.98559952 267.59906483 C245.51841181 279.59100434 210.3756723 278.50696007 181.87231827 267.44672108 C165.20791453 260.57997374 141.57784097 247.92026647 133.18481827 231.13422108 C132.52481827 231.13422108 131.86481827 231.13422108 131.18481827 231.13422108 Z M-10.81518173 316.13422108 C-15.00221739 329.89162396 -19.16715268 343.63199764 -23.09252548 357.46234608 C-23.5532745 359.08140532 -24.01409676 360.70044373 -24.47498703 362.31946278 C-25.42329756 365.65279994 -26.36992923 368.98660816 -27.31542587 372.32074451 C-28.52727652 376.59314372 -29.74482559 380.86389757 -30.96368694 385.13430119 C-31.90915993 388.44999778 -32.85106313 391.76670038 -33.79192924 395.08370686 C-34.24002004 396.66134491 -34.68937213 398.2386253 -35.14002419 399.81553364 C-35.76326584 401.99787077 -36.38153422 404.18155692 -36.99853134 406.36566639 C-37.52645531 408.22351765 -37.52645531 408.22351765 -38.0650444 410.11890125 C-38.93589022 413.10156065 -38.93589022 413.10156065 -38.81518173 416.13422108 C118.92481827 416.13422108 276.66481827 416.13422108 439.18481827 416.13422108 C437.87929379 409.60659867 436.50689468 403.32070984 434.67871475 396.95258045 C434.43618973 396.09601856 434.1936647 395.23945667 433.94379044 394.35693836 C433.15161631 391.56285806 432.35390294 388.77039512 431.55591202 385.97797108 C431.00037718 384.02415334 430.4451297 382.07025388 429.89015579 380.11627674 C428.7317568 376.04083736 427.57075792 371.9661511 426.40771866 367.89203358 C424.91510304 362.66307325 423.42773162 357.43263928 421.94211102 352.20168781 C420.79847767 348.17620073 419.65277623 344.15130474 418.50636864 340.12660694 C417.95685742 338.19696839 417.40783837 336.26718962 416.85931587 334.33726978 C416.09539361 331.65117093 415.32885344 328.96583359 414.56152725 326.28070545 C414.33449615 325.48074146 414.10746506 324.68077747 413.87355423 323.85657215 C412.76866506 319.90619906 412.76866506 319.90619906 411.18481827 316.13422108 C392.37481827 316.13422108 373.56481827 316.13422108 354.18481827 316.13422108 C352.86481827 322.73422108 351.54481827 329.33422108 350.18481827 336.13422108 C348.6396673 340.40371716 347.19838207 344.14221377 345.18481827 348.13422108 C344.48872452 349.54574451 344.48872452 349.54574451 343.77856827 350.98578358 C340.53701553 357.24473913 336.69689473 362.72773893 332.18481827 368.13422108 C332.51481827 368.79422108 332.84481827 369.45422108 333.18481827 370.13422108 C333.37186231 372.82435447 333.27063218 375.43108285 333.18481827 378.13422108 C331.36761937 379.95141998 328.25282293 379.22212556 325.80981827 379.25922108 C319.10353415 379.6851242 315.53378232 381.36626092 310.16528702 385.22015858 C306.61973029 387.49712162 303.05967 388.9850795 299.12231827 390.44672108 C298.48568253 390.68866199 297.84904678 390.93060291 297.19311905 391.17987537 C288.4421227 394.33927683 279.84029596 395.4337794 270.57300186 395.42474842 C269.5633638 395.43146564 268.55372574 395.43818287 267.51349258 395.44510365 C264.20336239 395.46396998 260.89343626 395.4680024 257.58325577 395.47015858 C255.25933121 395.47659543 252.93540744 395.48332444 250.61148453 395.4903307 C245.74805195 395.50227588 240.88469025 395.50601447 236.02124405 395.50482655 C229.8282561 395.50462376 223.63572911 395.53189691 217.44285011 395.56637096 C212.64346661 395.58875119 207.84419197 395.59266065 203.04476166 395.59160709 C200.76369645 395.59394745 198.48262751 395.60268128 196.20161438 395.61827183 C179.69096272 395.72054001 164.9296264 394.68650133 149.93481827 387.07172108 C149.22970108 386.73334217 148.52458389 386.39496326 147.79809952 386.04633045 C144.99974907 384.67889455 142.54393764 383.4354402 140.14966202 381.42718983 C137.19824363 379.48500397 134.4849098 379.64655629 130.99731827 379.50922108 C124.26877952 379.21818233 124.26877952 379.21818233 123.18481827 378.13422108 C123.14166683 375.45883193 123.13801386 372.80727287 123.18481827 370.13422108 C123.18481827 366.06184237 121.54445769 364.63530637 119.12231827 361.38422108 C109.21363455 347.52694942 104.58723516 332.95113934 102.18481827 316.13422108 C64.89481827 316.13422108 27.60481827 316.13422108 -10.81518173 316.13422108 Z M-41.81518173 428.13422108 C-44.04739109 458.19502809 -44.04739109 458.19502809 -38.81518173 469.13422108 C-33.89926365 472.09105445 -29.34302408 472.56622396 -23.72694016 472.5117445 C-22.93755503 472.51610482 -22.14816991 472.52046514 -21.33486402 472.5249576 C-18.69149024 472.53590016 -16.04863954 472.52549657 -13.40526962 472.515172 C-11.490307 472.51862896 -9.57534637 472.52339378 -7.6603899 472.52935374 C-2.39933528 472.54188816 2.86155628 472.53568219 8.12261152 472.52639508 C13.79685164 472.51961496 19.47106348 472.53008068 25.145298 472.53833485 C36.260687 472.55168543 47.37601528 472.54878852 58.49140668 472.54009692 C67.52388969 472.53332601 76.55635567 472.53240109 85.58884048 472.53566837 C86.87363861 472.53612807 88.15843674 472.53658777 89.48216814 472.5370614 C92.09208529 472.53802056 94.70200243 472.5389932 97.31191957 472.53997917 C121.09583579 472.54829292 144.87971521 472.5396664 168.66362558 472.52395138 C190.37546016 472.50971457 212.08724196 472.51098845 233.79907608 472.52533436 C258.19259411 472.54139829 282.58607621 472.54771294 306.97959995 472.53849757 C309.57999865 472.5375419 312.18039735 472.53659879 314.78079605 472.53566837 C316.06029332 472.53520555 317.33979058 472.53474272 318.65806049 472.53426587 C327.6812997 472.53167393 336.70452019 472.53605138 345.7277565 472.54310703 C356.72175626 472.55151461 367.71569175 472.54925749 378.70968413 472.5332648 C384.32062426 472.52537213 389.93145717 472.52230751 395.54239655 472.53221226 C400.67686548 472.54113894 405.81112761 472.53625967 410.94557774 472.5202796 C412.80483264 472.51692321 414.66410494 472.51864507 416.52334869 472.52590697 C419.04800739 472.53501288 421.57195522 472.52568974 424.09657669 472.5117445 C425.18261608 472.52227975 425.18261608 472.52227975 426.29059565 472.53302783 C431.22576253 472.47844242 434.94202619 471.68618167 439.18481827 469.13422108 C444.41702763 458.19502809 444.41702763 458.19502809 442.18481827 428.13422108 C376.84481827 428.13422108 311.50481827 428.13422108 244.18481827 428.13422108 C239.23481827 438.03422108 234.28481827 447.93422108 229.18481827 458.13422108 C228.18481827 459.13422108 228.18481827 459.13422108 225.93858719 459.25447559 C224.94597382 459.25225498 223.95336044 459.25003437 222.93066788 459.24774647 C221.8095813 459.24767094 220.68849472 459.24759541 219.53343582 459.24751759 C217.70378029 459.23977566 217.70378029 459.23977566 215.83716202 459.23187733 C214.59559845 459.23046238 213.35403488 459.22904743 212.07484818 459.22758961 C208.76876336 459.22292699 205.4627468 459.21393604 202.15668106 459.20288563 C198.78520677 459.19266935 195.41372544 459.18809152 192.04224014 459.1830492 C185.42308052 459.17199503 178.80395334 459.15523844 172.18481827 459.13422108 C170.6409404 456.21871997 169.10015584 453.30159395 167.55981827 450.38422108 C167.13313858 449.57855701 166.70645889 448.77289295 166.26684952 447.94281483 C162.80635962 441.38337876 159.50380741 434.77219935 156.18481827 428.13422108 C90.84481827 428.13422108 25.50481827 428.13422108 -41.81518173 428.13422108 Z M171.18481827 428.13422108 C173.53837166 435.66628577 173.53837166 435.66628577 180.18481827 448.13422108 C193.38481827 448.13422108 206.58481827 448.13422108 220.18481827 448.13422108 C221.66981827 445.20547108 223.15481827 442.27672108 224.68481827 439.25922108 C225.15468155 438.33770252 225.62454483 437.41618397 226.10864639 436.46674061 C226.65682022 435.37788563 226.65682022 435.37788563 227.21606827 434.26703358 C227.59311905 433.52340565 227.97016983 432.77977772 228.35864639 432.01361561 C229.31896085 430.17123208 229.31896085 430.17123208 229.18481827 428.13422108 C210.04481827 428.13422108 190.90481827 428.13422108 171.18481827 428.13422108 Z " fill="#000000" transform="translate(55.815181732177734,17.865778923034668)"/>
<path d="M0 0 C2.27645169 1.30082954 2.84615552 2.50943931 3.62109375 4.98046875 C4.13279449 6.97433713 4.57094234 8.98672945 5 11 C9.02951475 11.34579954 9.02951475 11.34579954 13 11 C15.15449966 8.59855425 15.15449966 8.59855425 17 6 C19.9375 4.875 19.9375 4.875 23 5 C25.8125 7.375 25.8125 7.375 28 10 C28.98267859 11.20561184 28.98267859 11.20561184 30.84765625 11.09765625 C32.8984375 11.06510417 34.94921875 11.03255208 37 11 C37.19335938 10.28972656 37.38671875 9.57945312 37.5859375 8.84765625 C37.84632813 7.92855469 38.10671875 7.00945312 38.375 6.0625 C38.75785156 4.68771484 38.75785156 4.68771484 39.1484375 3.28515625 C40 1 40 1 42 0 C47.3735678 -0.45732492 47.3735678 -0.45732492 49.6640625 1.21484375 C52.24859324 4.66844184 51.57011513 8.90029568 51 13 C48.43493036 18.2287958 44.2447046 22.3776477 39 25 C36.91939575 25.1235718 34.83423667 25.17560367 32.75 25.1875 C31.63109375 25.20167969 30.5121875 25.21585938 29.359375 25.23046875 C26 25 26 25 22.828125 23.86328125 C20.10910176 22.70043109 20.10910176 22.70043109 18.01953125 23.8515625 C17.35308594 24.23054688 16.68664062 24.60953125 16 25 C10.39391409 25.63022665 4.17208279 26.0803327 -1 23.5 C-5.45754332 19.78538056 -8.49814545 16.22620785 -9.41015625 10.36328125 C-9.62955429 3.82903516 -9.62955429 3.82903516 -7.65625 1.23046875 C-5.08518023 -0.67964204 -3.1006993 -0.38758741 0 0 Z " fill="#000000" transform="translate(263,205)"/>
<path d="M0 0 C3.12578143 1.6720747 5.39281175 3.7856235 7 7 C7.51512617 11.09157355 7.94367269 15.23589546 5.953125 18.95703125 C3.55501226 21.85592636 1.60351712 23.79811835 -2.171875 24.2734375 C-9.98876369 24.58137554 -9.98876369 24.58137554 -13.5625 21.625 C-17.3057723 17.59378368 -17.39037018 14.90519941 -17.359375 9.55078125 C-16.78039966 5.44131496 -15.00085071 3.78650423 -12 1 C-8.27533151 -0.86233425 -4.05504687 -0.57130829 0 0 Z " fill="#000000" transform="translate(341,152)"/>
<path d="M0 0 C3.12578143 1.6720747 5.39281175 3.7856235 7 7 C7.51512617 11.09157355 7.94367269 15.23589546 5.953125 18.95703125 C3.55501226 21.85592636 1.60351712 23.79811835 -2.171875 24.2734375 C-9.98876369 24.58137554 -9.98876369 24.58137554 -13.5625 21.625 C-17.3057723 17.59378368 -17.39037018 14.90519941 -17.359375 9.55078125 C-16.78039966 5.44131496 -15.00085071 3.78650423 -12 1 C-8.27533151 -0.86233425 -4.05504687 -0.57130829 0 0 Z " fill="#000000" transform="translate(237,152)"/>
<path d="M0 0 C0.7027002 -0.00191345 1.40540039 -0.0038269 2.12939453 -0.00579834 C3.61556354 -0.00715975 5.10174445 -0.00346632 6.58789062 0.00488281 C8.86615646 0.01558346 11.14363377 0.00498661 13.421875 -0.0078125 C14.86458508 -0.0064909 16.30729466 -0.00392849 17.75 0 C19.06742187 0.00225586 20.38484375 0.00451172 21.7421875 0.00683594 C24.875 0.265625 24.875 0.265625 26.875 2.265625 C27.140625 4.140625 27.140625 4.140625 27.125 6.265625 C27.13273437 7.3175 27.13273437 7.3175 27.140625 8.390625 C26.875 10.265625 26.875 10.265625 24.875 12.265625 C21.7421875 12.52441406 21.7421875 12.52441406 17.75 12.53125 C17.0472998 12.53316345 16.34459961 12.5350769 15.62060547 12.53704834 C14.13443646 12.53840975 12.64825555 12.53471632 11.16210938 12.52636719 C8.88384354 12.51566654 6.60636623 12.52626339 4.328125 12.5390625 C2.88541492 12.5377409 1.44270534 12.53517849 0 12.53125 C-1.31742187 12.52899414 -2.63484375 12.52673828 -3.9921875 12.52441406 C-7.125 12.265625 -7.125 12.265625 -9.125 10.265625 C-9.390625 8.390625 -9.390625 8.390625 -9.375 6.265625 C-9.38015625 5.564375 -9.3853125 4.863125 -9.390625 4.140625 C-8.66167081 -1.00493399 -4.11788693 0.00705118 0 0 Z " fill="#000000" transform="translate(423.125,385.734375)"/>
<path d="M0 0 C0.7027002 -0.00191345 1.40540039 -0.0038269 2.12939453 -0.00579834 C3.61556354 -0.00715975 5.10174445 -0.00346632 6.58789062 0.00488281 C8.86615646 0.01558346 11.14363377 0.00498661 13.421875 -0.0078125 C14.86458508 -0.0064909 16.30729466 -0.00392849 17.75 0 C19.06742188 0.00225586 20.38484375 0.00451172 21.7421875 0.00683594 C24.875 0.265625 24.875 0.265625 26.875 2.265625 C27.140625 4.140625 27.140625 4.140625 27.125 6.265625 C27.13273437 7.3175 27.13273437 7.3175 27.140625 8.390625 C26.875 10.265625 26.875 10.265625 24.875 12.265625 C21.7421875 12.52441406 21.7421875 12.52441406 17.75 12.53125 C17.0472998 12.53316345 16.34459961 12.5350769 15.62060547 12.53704834 C14.13443646 12.53840975 12.64825555 12.53471632 11.16210938 12.52636719 C8.88384354 12.51566654 6.60636623 12.52626339 4.328125 12.5390625 C2.88541492 12.5377409 1.44270534 12.53517849 0 12.53125 C-1.31742187 12.52899414 -2.63484375 12.52673828 -3.9921875 12.52441406 C-7.125 12.265625 -7.125 12.265625 -9.125 10.265625 C-9.390625 8.390625 -9.390625 8.390625 -9.375 6.265625 C-9.38015625 5.564375 -9.3853125 4.863125 -9.390625 4.140625 C-8.66167081 -1.00493399 -4.11788693 0.00705118 0 0 Z " fill="#000000" transform="translate(127.125,385.734375)"/>
<path d="M0 0 C0.7027002 -0.00191345 1.40540039 -0.0038269 2.12939453 -0.00579834 C3.61556354 -0.00715975 5.10174445 -0.00346632 6.58789062 0.00488281 C8.86615646 0.01558346 11.14363377 0.00498661 13.421875 -0.0078125 C14.86458508 -0.0064909 16.30729466 -0.00392849 17.75 0 C19.06742188 0.00225586 20.38484375 0.00451172 21.7421875 0.00683594 C24.875 0.265625 24.875 0.265625 26.875 2.265625 C27.140625 4.140625 27.140625 4.140625 27.125 6.265625 C27.13273437 7.3175 27.13273437 7.3175 27.140625 8.390625 C26.875 10.265625 26.875 10.265625 24.875 12.265625 C21.7421875 12.52441406 21.7421875 12.52441406 17.75 12.53125 C17.0472998 12.53316345 16.34459961 12.5350769 15.62060547 12.53704834 C14.13443646 12.53840975 12.64825555 12.53471632 11.16210938 12.52636719 C8.88384354 12.51566654 6.60636623 12.52626339 4.328125 12.5390625 C2.88541492 12.5377409 1.44270534 12.53517849 0 12.53125 C-1.31742187 12.52899414 -2.63484375 12.52673828 -3.9921875 12.52441406 C-7.125 12.265625 -7.125 12.265625 -9.125 10.265625 C-9.390625 8.390625 -9.390625 8.390625 -9.375 6.265625 C-9.38015625 5.564375 -9.3853125 4.863125 -9.390625 4.140625 C-8.66167081 -1.00493399 -4.11788693 0.00705118 0 0 Z " fill="#000000" transform="translate(71.125,385.734375)"/>
<path d="M0 0 C1.06734375 -0.00257813 2.1346875 -0.00515625 3.234375 -0.0078125 C4.91273438 0.00378906 4.91273438 0.00378906 6.625 0.015625 C7.74390625 0.00789063 8.8628125 0.00015625 10.015625 -0.0078125 C11.08296875 -0.00523437 12.1503125 -0.00265625 13.25 0 C14.23226563 0.00225586 15.21453125 0.00451172 16.2265625 0.00683594 C18.625 0.265625 18.625 0.265625 20.625 2.265625 C20.890625 4.140625 20.890625 4.140625 20.875 6.265625 C20.88015625 6.966875 20.8853125 7.668125 20.890625 8.390625 C20.625 10.265625 20.625 10.265625 18.625 12.265625 C16.2265625 12.52441406 16.2265625 12.52441406 13.25 12.53125 C12.18265625 12.53382813 11.1153125 12.53640625 10.015625 12.5390625 C8.33726562 12.52746094 8.33726562 12.52746094 6.625 12.515625 C5.50609375 12.52335937 4.3871875 12.53109375 3.234375 12.5390625 C2.16703125 12.53648437 1.0996875 12.53390625 0 12.53125 C-0.98226563 12.52899414 -1.96453125 12.52673828 -2.9765625 12.52441406 C-5.375 12.265625 -5.375 12.265625 -7.375 10.265625 C-7.640625 8.390625 -7.640625 8.390625 -7.625 6.265625 C-7.63015625 5.564375 -7.6353125 4.863125 -7.640625 4.140625 C-6.99942022 -0.38552638 -3.77220885 0.00866321 0 0 Z " fill="#000000" transform="translate(421.375,353.734375)"/>
<path d="M0 0 C1.06734375 -0.00257813 2.1346875 -0.00515625 3.234375 -0.0078125 C4.91273438 0.00378906 4.91273438 0.00378906 6.625 0.015625 C7.74390625 0.00789063 8.8628125 0.00015625 10.015625 -0.0078125 C11.08296875 -0.00523437 12.1503125 -0.00265625 13.25 0 C14.23226562 0.00225586 15.21453125 0.00451172 16.2265625 0.00683594 C18.625 0.265625 18.625 0.265625 20.625 2.265625 C20.890625 4.140625 20.890625 4.140625 20.875 6.265625 C20.88015625 6.966875 20.8853125 7.668125 20.890625 8.390625 C20.625 10.265625 20.625 10.265625 18.625 12.265625 C16.2265625 12.52441406 16.2265625 12.52441406 13.25 12.53125 C12.18265625 12.53382813 11.1153125 12.53640625 10.015625 12.5390625 C8.33726562 12.52746094 8.33726562 12.52746094 6.625 12.515625 C5.50609375 12.52335937 4.3871875 12.53109375 3.234375 12.5390625 C2.16703125 12.53648437 1.0996875 12.53390625 0 12.53125 C-0.98226562 12.52899414 -1.96453125 12.52673828 -2.9765625 12.52441406 C-5.375 12.265625 -5.375 12.265625 -7.375 10.265625 C-7.640625 8.390625 -7.640625 8.390625 -7.625 6.265625 C-7.63015625 5.564375 -7.6353125 4.863125 -7.640625 4.140625 C-6.99942022 -0.38552638 -3.77220885 0.00866321 0 0 Z " fill="#000000" transform="translate(125.375,353.734375)"/>
<path d="M0 0 C1.06734375 -0.00257813 2.1346875 -0.00515625 3.234375 -0.0078125 C4.91273437 0.00378906 4.91273437 0.00378906 6.625 0.015625 C7.74390625 0.00789063 8.8628125 0.00015625 10.015625 -0.0078125 C11.08296875 -0.00523437 12.1503125 -0.00265625 13.25 0 C14.23226562 0.00225586 15.21453125 0.00451172 16.2265625 0.00683594 C18.625 0.265625 18.625 0.265625 20.625 2.265625 C20.890625 4.140625 20.890625 4.140625 20.875 6.265625 C20.88015625 6.966875 20.8853125 7.668125 20.890625 8.390625 C20.625 10.265625 20.625 10.265625 18.625 12.265625 C16.2265625 12.52441406 16.2265625 12.52441406 13.25 12.53125 C12.18265625 12.53382813 11.1153125 12.53640625 10.015625 12.5390625 C8.33726563 12.52746094 8.33726563 12.52746094 6.625 12.515625 C5.50609375 12.52335937 4.3871875 12.53109375 3.234375 12.5390625 C2.16703125 12.53648437 1.0996875 12.53390625 0 12.53125 C-0.98226562 12.52899414 -1.96453125 12.52673828 -2.9765625 12.52441406 C-5.375 12.265625 -5.375 12.265625 -7.375 10.265625 C-7.640625 8.390625 -7.640625 8.390625 -7.625 6.265625 C-7.63015625 5.564375 -7.6353125 4.863125 -7.640625 4.140625 C-6.99942022 -0.38552638 -3.77220885 0.00866321 0 0 Z " fill="#000000" transform="translate(77.375,353.734375)"/>
</svg>
