<svg width="725" height="941" xmlns="http://www.w3.org/2000/svg" xmlns:xlink="http://www.w3.org/1999/xlink" overflow="hidden"><defs><clipPath id="clip0"><rect x="3392" y="1500" width="725" height="941"/></clipPath></defs><g clip-path="url(#clip0)" transform="translate(-3392 -1500)"><rect x="3392" y="1564" width="725" height="877" fill="#FFFFFF"/><path d="M3758.5 1564C3614.08 1564 3497 1678.39 3497 1819.5 3497 1960.61 3614.08 2075 3758.5 2075 3902.92 2075 4020 1960.61 4020 1819.5 4020 1678.39 3902.92 1564 3758.5 1564Z" fill="#004AAD" fill-rule="evenodd"/><path d="M3894.59 1648.68C3795.94 1570.07 3655.02 1582.82 3579.84 1677.16 3504.66 1771.5 3523.69 1911.7 3622.34 1990.32 3720.98 2068.93 3861.9 2056.18 3937.08 1961.84 4012.26 1867.5 3993.23 1727.29 3894.59 1648.68Z" fill="#FFFFFF" fill-rule="evenodd"/><path d="M3508.66 1775.09 3508.66 1775.09C3512.64 1771.11 3518.05 1768.87 3523.69 1768.87 3529.32 1768.87 3534.73 1771.11 3538.72 1775.09L3799.64 2036.02C3803.63 2040.01 3805.87 2045.41 3805.87 2051.05 3805.87 2056.69 3803.63 2062.09 3799.64 2066.08L3799.64 2066.08C3795.66 2070.06 3790.25 2072.3 3784.62 2072.3 3778.98 2072.3 3773.57 2070.06 3769.59 2066.08L3508.66 1805.15C3504.67 1801.16 3502.43 1795.76 3502.43 1790.12 3502.43 1784.48 3504.67 1779.08 3508.66 1775.09Z" fill="#004AAD" fill-rule="evenodd"/><path d="M3550.89 1683.32 3550.89 1683.32C3555.18 1679.03 3561 1676.62 3567.07 1676.62 3573.14 1676.62 3578.96 1679.03 3583.26 1683.32L3893.64 1993.7C3897.93 1998 3900.34 2003.82 3900.34 2009.89 3900.34 2015.96 3897.93 2021.78 3893.64 2026.07L3893.64 2026.07C3889.35 2030.36 3883.52 2032.78 3877.45 2032.78 3871.38 2032.78 3865.56 2030.36 3861.27 2026.07L3550.89 1715.69C3546.6 1711.4 3544.19 1705.58 3544.19 1699.51 3544.19 1693.44 3546.6 1687.62 3550.89 1683.32Z" fill="#004AAD" fill-rule="evenodd"/><path d="M3617.66 1617.2 3617.66 1617.2C3621.92 1612.94 3627.7 1610.55 3633.73 1610.55 3639.75 1610.55 3645.53 1612.94 3649.79 1617.2L3960.92 1928.33C3969.79 1937.2 3969.79 1951.59 3960.92 1960.46L3960.92 1960.46C3952.04 1969.33 3937.66 1969.33 3928.78 1960.46L3617.66 1649.34C3608.78 1640.46 3608.78 1626.08 3617.66 1617.2Z" fill="#004AAD" fill-rule="evenodd"/><path d="M3714.26 1575.23 3714.26 1575.23C3718.25 1571.24 3723.65 1569 3729.29 1569 3734.93 1569 3740.33 1571.24 3744.32 1575.23L4005.25 1836.15C4009.23 1840.14 4011.47 1845.55 4011.47 1851.18 4011.47 1856.82 4009.23 1862.22 4005.25 1866.21L4005.25 1866.21C4001.26 1870.2 3995.85 1872.43 3990.22 1872.43 3984.58 1872.43 3979.17 1870.2 3975.19 1866.21L3714.26 1605.28C3710.28 1601.3 3708.04 1595.89 3708.04 1590.25 3708.04 1584.62 3710.27 1579.21 3714.26 1575.23Z" fill="#004AAD" fill-rule="evenodd"/><path d="M3766.5 2042 3766.5 2042C3794.94 2042 3818 2064.93 3818 2093.22L3818 2382.78C3818 2411.07 3794.94 2434 3766.5 2434L3766.5 2434C3738.06 2434 3715 2411.07 3715 2382.78L3715 2093.22C3715 2064.93 3738.06 2042 3766.5 2042Z" fill="#004AAD" fill-rule="evenodd"/><path d="M3766 2225.5 3766 2225.5C3766 2214.23 3770.49 2203.42 3778.48 2195.45 3786.48 2187.48 3797.32 2183 3808.62 2183L3957.38 2183C3980.92 2183 4000 2202.03 4000 2225.5L4000 2225.5C4000 2236.77 3995.51 2247.58 3987.52 2255.55 3979.52 2263.52 3968.68 2268 3957.38 2268L3808.62 2268C3785.08 2268 3766 2248.97 3766 2225.5Z" fill="#004AAD" fill-rule="evenodd"/><path d="M3764 2334.5 3764 2334.5C3764 2323.23 3768.49 2312.42 3776.48 2304.45 3784.48 2296.48 3795.32 2292 3806.62 2292L3955.38 2292C3978.92 2292 3998 2311.03 3998 2334.5L3998 2334.5C3998 2345.77 3993.51 2356.58 3985.52 2364.55 3977.52 2372.52 3966.68 2377 3955.38 2377L3806.62 2377C3783.08 2377 3764 2357.97 3764 2334.5Z" fill="#004AAD" fill-rule="evenodd"/></g></svg>
