<svg width="632" height="929" xmlns="http://www.w3.org/2000/svg" xmlns:xlink="http://www.w3.org/1999/xlink" overflow="hidden"><defs><clipPath id="clip0"><rect x="3416" y="1480" width="632" height="929"/></clipPath></defs><g clip-path="url(#clip0)" transform="translate(-3416 -1480)"><path d="M3770 1544C3625.3 1544 3508 1658.17 3508 1799 3508 1939.83 3625.3 2054 3770 2054 3914.7 2054 4032 1939.83 4032 1799 4032 1658.17 3914.7 1544 3770 1544Z" fill="#004AAD" fill-rule="evenodd"/><path d="M3770 2017 3770 2017C3798.17 2017 3821 2039.93 3821 2068.22L3821 2357.78C3821 2386.07 3798.17 2409 3770 2409L3770 2409C3741.83 2409 3719 2386.07 3719 2357.78L3719 2068.22C3719 2039.93 3741.83 2017 3770 2017Z" fill="#004AAD" fill-rule="evenodd"/><path d="M3905.91 1628.23C3807.26 1549.61 3666.34 1562.36 3591.16 1656.7 3515.98 1751.04 3535.01 1891.25 3633.66 1969.86 3732.3 2048.48 3873.22 2035.73 3948.4 1941.39 4023.58 1847.05 4004.55 1706.84 3905.91 1628.23Z" fill="#FFFFFF" fill-rule="evenodd"/><path d="M3519.98 1754.64 3519.98 1754.64C3523.97 1750.65 3529.37 1748.41 3535.01 1748.41 3540.65 1748.41 3546.05 1750.65 3550.04 1754.64L3810.96 2015.57C3814.95 2019.55 3817.19 2024.96 3817.19 2030.59 3817.19 2036.23 3814.95 2041.64 3810.96 2045.62L3810.96 2045.62C3806.98 2049.61 3801.57 2051.85 3795.94 2051.85 3790.3 2051.85 3784.89 2049.61 3780.91 2045.62L3519.98 1784.69C3515.99 1780.71 3513.76 1775.3 3513.76 1769.67 3513.75 1764.03 3515.99 1758.62 3519.98 1754.64Z" fill="#004AAD" fill-rule="evenodd"/><path d="M3562.21 1662.87 3562.21 1662.87C3566.5 1658.57 3572.32 1656.16 3578.39 1656.16 3584.46 1656.16 3590.28 1658.57 3594.58 1662.87L3904.96 1973.25C3909.25 1977.54 3911.66 1983.36 3911.66 1989.43 3911.66 1995.5 3909.25 2001.32 3904.96 2005.62L3904.96 2005.62C3900.67 2009.91 3894.84 2012.32 3888.77 2012.32 3882.7 2012.32 3876.88 2009.91 3872.59 2005.62L3562.21 1695.23C3557.92 1690.94 3555.51 1685.12 3555.51 1679.05 3555.51 1672.98 3557.92 1667.16 3562.21 1662.87Z" fill="#004AAD" fill-rule="evenodd"/><path d="M3628.98 1596.75 3628.98 1596.75C3633.24 1592.48 3639.02 1590.09 3645.05 1590.09 3651.07 1590.09 3656.85 1592.48 3661.11 1596.75L3972.24 1907.87C3981.11 1916.74 3981.11 1931.13 3972.24 1940L3972.24 1940C3963.36 1948.88 3948.98 1948.88 3940.1 1940L3628.98 1628.88C3620.11 1620.01 3620.11 1605.62 3628.98 1596.75Z" fill="#004AAD" fill-rule="evenodd"/><path d="M3725.58 1554.77 3725.58 1554.77C3729.57 1550.78 3734.97 1548.54 3740.61 1548.54 3746.25 1548.54 3751.65 1550.78 3755.64 1554.77L4016.57 1815.7C4020.55 1819.68 4022.79 1825.09 4022.79 1830.73 4022.79 1836.36 4020.55 1841.77 4016.57 1845.75L4016.57 1845.75C4012.58 1849.74 4007.17 1851.98 4001.54 1851.98 3995.9 1851.98 3990.49 1849.74 3986.51 1845.75L3725.58 1584.83C3721.6 1580.84 3719.36 1575.43 3719.36 1569.8 3719.36 1564.16 3721.6 1558.76 3725.58 1554.77Z" fill="#004AAD" fill-rule="evenodd"/><path d="M3724 2185.5 3724 2185.5C3724 2174.23 3728.47 2163.42 3736.43 2155.45 3744.39 2147.48 3755.18 2143 3766.44 2143L3914.56 2143C3938 2143 3957 2162.03 3957 2185.5L3957 2185.5C3957 2196.77 3952.53 2207.58 3944.57 2215.55 3936.61 2223.52 3925.82 2228 3914.56 2228L3766.44 2228C3743 2228 3724 2208.97 3724 2185.5Z" fill="#004AAD" fill-rule="evenodd"/><path d="M3724 2298.5 3724 2298.5C3724 2287.23 3728.47 2276.42 3736.43 2268.45 3744.39 2260.48 3755.18 2256 3766.44 2256L3914.56 2256C3938 2256 3957 2275.03 3957 2298.5L3957 2298.5C3957 2309.77 3952.53 2320.58 3944.57 2328.55 3936.61 2336.52 3925.82 2341 3914.56 2341L3766.44 2341C3743 2341 3724 2321.97 3724 2298.5Z" fill="#004AAD" fill-rule="evenodd"/></g></svg>