<svg width="570" height="679" xmlns="http://www.w3.org/2000/svg" xmlns:xlink="http://www.w3.org/1999/xlink" xml:space="preserve" overflow="hidden"><g transform="translate(-4348 -2913)"><path d="M4395 3519.72 4395 2985.28C4395 2966.11 4402.61 2947.73 4416.17 2934.17 4429.72 2920.62 4448.1 2913 4467.27 2913L4845.73 2913C4864.9 2913 4883.28 2920.62 4896.83 2934.17 4910.39 2947.73 4918 2966.11 4918 2985.28L4918 3519.72C4918 3538.89 4910.39 3557.27 4896.83 3570.83 4883.28 3584.38 4864.9 3592 4845.73 3592L4467.27 3592C4448.1 3592 4429.72 3584.38 4416.17 3570.83 4402.61 3557.27 4395 3538.89 4395 3519.72Z" fill="#FFFFFF" fill-rule="evenodd"/><path d="M4657.5 2949C4557.26 2949 4476 3030.48 4476 3131 4476 3231.52 4557.26 3313 4657.5 3313 4757.74 3313 4839 3231.52 4839 3131 4839 3030.48 4757.74 2949 4657.5 2949Z" fill="#F6A02E" fill-rule="evenodd"/><path d="M4657.5 3286 4657.5 3286C4677.11 3286 4693 3301.92 4693 3321.55L4693 3529.45C4693 3549.08 4677.11 3565 4657.5 3565L4657.5 3565C4637.89 3565 4622 3549.08 4622 3529.45L4622 3321.55C4622 3301.92 4637.89 3286 4657.5 3286Z" fill="#F6A02E" fill-rule="evenodd"/><path d="M4657.5 2976C4571.62 2976 4502 3045.4 4502 3131 4502 3216.6 4571.62 3286 4657.5 3286 4743.38 3286 4813 3216.6 4813 3131 4813 3045.4 4743.38 2976 4657.5 2976Z" fill="#FFFFFF" fill-rule="evenodd"/><path d="M4484.45 3102.21 4484.45 3102.21C4487.29 3099.38 4491.13 3097.78 4495.14 3097.78 4499.15 3097.78 4503 3099.38 4505.83 3102.21L4685.81 3282.19C4688.65 3285.02 4690.24 3288.87 4690.24 3292.88 4690.24 3296.89 4688.65 3300.74 4685.81 3303.57L4685.81 3303.57C4682.98 3306.41 4679.13 3308 4675.12 3308 4671.11 3308 4667.26 3306.41 4664.43 3303.57L4484.45 3123.6C4481.62 3120.76 4480.02 3116.91 4480.02 3112.9 4480.02 3108.89 4481.62 3105.05 4484.45 3102.21Z" fill="#F6A02E" fill-rule="evenodd"/><path d="M4513.77 3037.4 4513.77 3037.4C4516.83 3034.34 4520.97 3032.63 4525.29 3032.63 4529.6 3032.63 4533.75 3034.34 4536.8 3037.4L4751.01 3251.6C4754.06 3254.66 4755.78 3258.8 4755.78 3263.12 4755.78 3267.44 4754.06 3271.58 4751.01 3274.63L4751.01 3274.63C4747.95 3277.69 4743.81 3279.4 4739.49 3279.4 4735.17 3279.4 4731.03 3277.69 4727.98 3274.63L4513.77 3060.43C4510.72 3057.37 4509 3053.23 4509 3048.91 4509 3044.59 4510.72 3040.45 4513.77 3037.4Z" fill="#F6A02E" fill-rule="evenodd"/><path d="M4560.1 2990.36 4560.1 2990.36C4563.13 2987.33 4567.24 2985.62 4571.53 2985.62 4575.81 2985.62 4579.93 2987.33 4582.96 2990.36L4797.69 3205.09C4804 3211.4 4804 3221.64 4797.69 3227.95L4797.69 3227.95C4791.37 3234.26 4781.14 3234.26 4774.83 3227.95L4560.1 3013.22C4553.78 3006.91 4553.78 2996.67 4560.1 2990.36Z" fill="#F6A02E" fill-rule="evenodd"/><path d="M4623.85 2962.81 4623.85 2962.81C4628.98 2957.69 4637.29 2957.68 4642.42 2962.81L4825.21 3145.6C4827.67 3148.07 4829.06 3151.41 4829.06 3154.89 4829.06 3158.37 4827.67 3161.71 4825.21 3164.17L4825.21 3164.17C4822.75 3166.64 4819.41 3168.02 4815.93 3168.02 4812.44 3168.02 4809.1 3166.64 4806.64 3164.17L4623.85 2981.38C4621.39 2978.92 4620 2975.58 4620 2972.1 4620 2968.62 4621.39 2965.28 4623.85 2962.81Z" fill="#F6A02E" fill-rule="evenodd"/><path d="M4638 3410 4638 3410C4638 3402.04 4641.19 3394.41 4646.86 3388.79 4652.54 3383.16 4660.23 3380 4668.26 3380L4769.74 3380C4786.45 3380 4800 3393.43 4800 3410L4800 3410C4800 3426.57 4786.45 3440 4769.74 3440L4668.26 3440C4651.55 3440 4638 3426.57 4638 3410Z" fill="#F6A02E" fill-rule="evenodd"/><path d="M4638 3490 4638 3490C4638 3482.04 4641.19 3474.41 4646.86 3468.79 4652.54 3463.16 4660.23 3460 4668.26 3460L4769.74 3460C4786.45 3460 4800 3473.43 4800 3490L4800 3490C4800 3506.57 4786.45 3520 4769.74 3520L4668.26 3520C4651.55 3520 4638 3506.57 4638 3490Z" fill="#F6A02E" fill-rule="evenodd"/></g></svg>