<svg width="570" height="678" xmlns="http://www.w3.org/2000/svg" xmlns:xlink="http://www.w3.org/1999/xlink" overflow="hidden"><defs><clipPath id="clip0"><rect x="2871" y="1622" width="570" height="678"/></clipPath></defs><g clip-path="url(#clip0)" transform="translate(-2871 -1622)"><path d="M2918 2227.82 2918 1694.18C2918 1675.03 2925.61 1656.68 2939.17 1643.14 2952.72 1629.6 2971.1 1622 2990.27 1622L3368.73 1622C3387.9 1622 3406.28 1629.6 3419.83 1643.14 3433.39 1656.68 3441 1675.03 3441 1694.18L3441 2227.82C3441 2246.97 3433.39 2265.32 3419.83 2278.86 3406.28 2292.4 3387.9 2300 3368.73 2300L2990.27 2300C2971.1 2300 2952.72 2292.4 2939.17 2278.86 2925.61 2265.32 2918 2246.97 2918 2227.82Z" fill="#FFFFFF" fill-rule="evenodd"/><path d="M3181 1658C3080.48 1658 2999 1739.26 2999 1839.5 2999 1939.74 3080.48 2021 3181 2021 3281.52 2021 3363 1939.74 3363 1839.5 3363 1739.26 3281.52 1658 3181 1658Z" fill="#004AAD" fill-rule="evenodd"/><path d="M3180.5 1994 3180.5 1994C3200.11 1994 3216 2009.92 3216 2029.55L3216 2237.45C3216 2257.08 3200.11 2273 3180.5 2273L3180.5 2273C3160.89 2273 3145 2257.08 3145 2237.45L3145 2029.55C3145 2009.92 3160.89 1994 3180.5 1994Z" fill="#004AAD" fill-rule="evenodd"/><path d="M3180.5 1684C3094.62 1684 3025 1753.62 3025 1839.5 3025 1925.38 3094.62 1995 3180.5 1995 3266.38 1995 3336 1925.38 3336 1839.5 3336 1753.62 3266.38 1684 3180.5 1684Z" fill="#FFFFFF" fill-rule="evenodd"/><path d="M3007.82 1810.48 3007.82 1810.48C3010.65 1807.64 3014.5 1806.05 3018.51 1806.05 3022.52 1806.05 3026.37 1807.64 3029.2 1810.48L3209.18 1990.45C3212.01 1993.29 3213.61 1997.14 3213.61 2001.15 3213.61 2005.16 3212.01 2009 3209.18 2011.84L3209.18 2011.84C3206.34 2014.67 3202.5 2016.27 3198.49 2016.27 3194.48 2016.27 3190.63 2014.67 3187.8 2011.84L3007.82 1831.86C3004.98 1829.03 3003.39 1825.18 3003.39 1821.17 3003.39 1817.16 3004.98 1813.31 3007.82 1810.48Z" fill="#004AAD" fill-rule="evenodd"/><path d="M3037.14 1745.66 3037.14 1745.66C3040.19 1742.61 3044.33 1740.9 3048.65 1740.9 3052.97 1740.9 3057.11 1742.61 3060.17 1745.66L3274.37 1959.87C3277.43 1962.93 3279.14 1967.07 3279.14 1971.39 3279.14 1975.7 3277.43 1979.85 3274.37 1982.9L3274.37 1982.9C3271.32 1985.95 3267.18 1987.67 3262.86 1987.67 3258.54 1987.67 3254.4 1985.95 3251.34 1982.9L3037.14 1768.69C3034.08 1765.64 3032.37 1761.5 3032.37 1757.18 3032.37 1752.86 3034.08 1748.72 3037.14 1745.66Z" fill="#004AAD" fill-rule="evenodd"/><path d="M3083.46 1698.63 3083.46 1698.63C3086.49 1695.59 3090.61 1693.89 3094.89 1693.89 3099.18 1693.89 3103.29 1695.59 3106.32 1698.63L3321.05 1913.35C3327.37 1919.67 3327.37 1929.9 3321.05 1936.22L3321.05 1936.22C3314.74 1942.53 3304.5 1942.53 3298.19 1936.22L3083.46 1721.49C3077.15 1715.17 3077.15 1704.94 3083.46 1698.63Z" fill="#004AAD" fill-rule="evenodd"/><path d="M3147.22 1671.08 3147.22 1671.08C3152.34 1665.95 3160.66 1665.95 3165.79 1671.08L3348.58 1853.87C3351.04 1856.33 3352.42 1859.67 3352.42 1863.15 3352.42 1866.64 3351.04 1869.98 3348.58 1872.44L3348.58 1872.44C3346.11 1874.9 3342.77 1876.29 3339.29 1876.29 3335.81 1876.29 3332.47 1874.9 3330.01 1872.44L3147.22 1689.65C3144.75 1687.19 3143.37 1683.85 3143.37 1680.36 3143.37 1676.88 3144.75 1673.54 3147.22 1671.08Z" fill="#004AAD" fill-rule="evenodd"/><path d="M3162 2118 3162 2118C3162 2110.04 3165.19 2102.41 3170.86 2096.79 3176.54 2091.16 3184.23 2088 3192.26 2088L3293.74 2088C3310.45 2088 3324 2101.43 3324 2118L3324 2118C3324 2134.57 3310.45 2148 3293.74 2148L3192.26 2148C3175.55 2148 3162 2134.57 3162 2118Z" fill="#004AAD" fill-rule="evenodd"/><path d="M3162 2198 3162 2198C3162 2190.04 3165.19 2182.41 3170.86 2176.79 3176.54 2171.16 3184.23 2168 3192.26 2168L3293.74 2168C3310.45 2168 3324 2181.43 3324 2198L3324 2198C3324 2214.57 3310.45 2228 3293.74 2228L3192.26 2228C3175.55 2228 3162 2214.57 3162 2198Z" fill="#004AAD" fill-rule="evenodd"/></g></svg>