<svg width="4025" height="2575" xmlns="http://www.w3.org/2000/svg" xmlns:xlink="http://www.w3.org/1999/xlink" overflow="hidden"><defs><clipPath id="clip0"><rect x="1714" y="867" width="4025" height="2575"/></clipPath></defs><g clip-path="url(#clip0)" transform="translate(-1714 -867)"><path d="M4084.86 889.5C4126.27 889.5 4167.93 889.5 4209.25 889.5 4538.72 931.769 4744.62 1072.47 4838.4 1302.71 5387.69 1272 5785.31 1707.35 5543.67 2134.61 5624.6 2224.4 5692.12 2324.83 5716.5 2459.62 5716.5 2498.23 5716.5 2536.76 5716.5 2575.36 5643.83 2918.43 5331.14 3150.25 4817.78 3087.84 4685.7 3263.99 4450.66 3434.72 4084.94 3418.42 3895.9 3406.86 3764.39 3339.88 3649.25 3258.5 3527.97 3326.14 3396.62 3379.23 3206.85 3379.81 2767.8 3380.81 2474.09 3120.21 2466.97 2762.75 2184.71 2679.12 1993.55 2523.03 1941.5 2255.93 1941.5 2217.32 1941.5 2178.63 1941.5 2140.19 1998.95 1875.51 2179.72 1709.26 2480.72 1638.78 2462.63 1192.29 3064.7 913.296 3559.31 1110 3677.08 1012.73 3843.69 906.641 4084.86 889.5Z" stroke="#000000" stroke-width="44.6875" stroke-linecap="square" stroke-miterlimit="8" fill="#FFFFFF" fill-rule="evenodd"/><path d="M2048.5 2995C1979.74 2995 1924 3050.07 1924 3118 1924 3185.93 1979.74 3241 2048.5 3241 2117.26 3241 2173 3185.93 2173 3118 2173 3050.07 2117.26 2995 2048.5 2995Z" stroke="#000000" stroke-width="37.8125" stroke-linecap="square" stroke-miterlimit="8" fill="#FFFFFF" fill-rule="evenodd"/><path d="M1788 3259C1757.62 3259 1733 3283.62 1733 3314 1733 3344.38 1757.62 3369 1788 3369 1818.38 3369 1843 3344.38 1843 3314 1843 3283.62 1818.38 3259 1788 3259Z" stroke="#000000" stroke-width="37.8125" stroke-linecap="square" stroke-miterlimit="8" fill="#FFFFFF" fill-rule="evenodd"/></g></svg>