<svg width="571" height="679" xmlns="http://www.w3.org/2000/svg" xmlns:xlink="http://www.w3.org/1999/xlink" overflow="hidden"><defs><clipPath id="clip0"><rect x="1729" y="1626" width="571" height="679"/></clipPath></defs><g clip-path="url(#clip0)" transform="translate(-1729 -1626)"><path d="M1777 2232.72 1777 1698.28C1777 1679.11 1784.61 1660.73 1798.17 1647.17 1811.72 1633.62 1830.1 1626 1849.27 1626L2227.73 1626C2246.9 1626 2265.28 1633.62 2278.83 1647.17 2292.39 1660.73 2300 1679.11 2300 1698.28L2300 2232.72C2300 2251.89 2292.39 2270.27 2278.83 2283.83 2265.28 2297.38 2246.9 2305 2227.73 2305L1849.27 2305C1830.1 2305 1811.72 2297.38 1798.17 2283.83 1784.61 2270.27 1777 2251.89 1777 2232.72Z" fill="#FFFFFF" fill-rule="evenodd"/><path d="M2038.5 1658C1938.26 1658 1857 1739.26 1857 1839.5 1857 1939.74 1938.26 2021 2038.5 2021 2138.74 2021 2220 1939.74 2220 1839.5 2220 1739.26 2138.74 1658 2038.5 1658Z" fill="#004AAD" fill-rule="evenodd"/><path d="M2038.5 1994 2038.5 1994C2058.11 1994 2074 2009.92 2074 2029.55L2074 2237.45C2074 2257.08 2058.11 2273 2038.5 2273L2038.5 2273C2018.89 2273 2003 2257.08 2003 2237.45L2003 2029.55C2003 2009.92 2018.89 1994 2038.5 1994Z" fill="#004AAD" fill-rule="evenodd"/><path d="M2038.5 1684C1952.62 1684 1883 1753.62 1883 1839.5 1883 1925.38 1952.62 1995 2038.5 1995 2124.38 1995 2194 1925.38 2194 1839.5 2194 1753.62 2124.38 1684 2038.5 1684Z" fill="#FFFFFF" fill-rule="evenodd"/><path d="M1937.5 1700 1937.5 1700C1941.61 1700 1945.55 1701.59 1948.46 1704.43 1951.37 1707.27 1953 1711.12 1953 1715.13L1953 1969.87C1953 1973.88 1951.37 1977.73 1948.46 1980.57 1945.55 1983.41 1941.61 1985 1937.5 1985L1937.5 1985C1933.39 1985 1929.45 1983.41 1926.54 1980.57 1923.63 1977.73 1922 1973.88 1922 1969.87L1922 1715.13C1922 1711.12 1923.63 1707.27 1926.54 1704.43 1929.45 1701.59 1933.39 1700 1937.5 1700Z" fill="#004AAD" fill-rule="evenodd"/><path d="M2004 1675 2004 1675C2008.24 1675 2012.31 1676.71 2015.31 1679.76 2018.31 1682.81 2020 1686.95 2020 1691.26L2020 1993.74C2020 1998.05 2018.31 2002.19 2015.31 2005.24 2012.31 2008.29 2008.24 2010 2004 2010L2004 2010C1999.76 2010 1995.69 2008.29 1992.69 2005.24 1989.69 2002.19 1988 1998.05 1988 1993.74L1988 1691.26C1988 1686.95 1989.69 1682.81 1992.69 1679.76 1995.69 1676.71 1999.76 1675 2004 1675Z" fill="#004AAD" fill-rule="evenodd"/><path d="M2070 1674 2070 1674C2074.24 1674 2078.31 1675.7 2081.31 1678.74 2084.31 1681.77 2086 1685.88 2086 1690.17L2086 1993.83C2086 2002.76 2078.84 2010 2070 2010L2070 2010C2061.16 2010 2054 2002.76 2054 1993.83L2054 1690.17C2054 1681.24 2061.16 1674 2070 1674Z" fill="#004AAD" fill-rule="evenodd"/><path d="M2134.5 1700 2134.5 1700C2141.96 1700 2148 1705.88 2148 1713.14L2148 1971.86C2148 1975.34 2146.58 1978.69 2144.05 1981.15 2141.51 1983.62 2138.08 1985 2134.5 1985L2134.5 1985C2130.92 1985 2127.49 1983.62 2124.95 1981.15 2122.42 1978.69 2121 1975.34 2121 1971.86L2121 1713.14C2121 1709.66 2122.42 1706.31 2124.95 1703.85 2127.49 1701.38 2130.92 1700 2134.5 1700Z" fill="#004AAD" fill-rule="evenodd"/><path d="M2019 2118 2019 2118C2019 2110.04 2022.19 2102.41 2027.86 2096.79 2033.54 2091.16 2041.23 2088 2049.26 2088L2150.74 2088C2167.45 2088 2181 2101.43 2181 2118L2181 2118C2181 2134.57 2167.45 2148 2150.74 2148L2049.26 2148C2032.55 2148 2019 2134.57 2019 2118Z" fill="#004AAD" fill-rule="evenodd"/><path d="M2019 2198 2019 2198C2019 2190.04 2022.19 2182.41 2027.86 2176.79 2033.54 2171.16 2041.23 2168 2049.26 2168L2150.74 2168C2167.45 2168 2181 2181.43 2181 2198L2181 2198C2181 2214.57 2167.45 2228 2150.74 2228L2049.26 2228C2032.55 2228 2019 2214.57 2019 2198Z" fill="#004AAD" fill-rule="evenodd"/></g></svg>