<svg width="570" height="926" xmlns="http://www.w3.org/2000/svg" xmlns:xlink="http://www.w3.org/1999/xlink" overflow="hidden"><defs><clipPath id="clip0"><rect x="2475" y="1483" width="570" height="926"/></clipPath></defs><g clip-path="url(#clip0)" transform="translate(-2475 -1483)"><path d="M2783 1543C2638.3 1543 2521 1657.39 2521 1798.5 2521 1939.61 2638.3 2054 2783 2054 2927.7 2054 3045 1939.61 3045 1798.5 3045 1657.39 2927.7 1543 2783 1543Z" fill="#004AAD" fill-rule="evenodd"/><path d="M2783 2017 2783 2017C2811.17 2017 2834 2039.93 2834 2068.22L2834 2357.78C2834 2386.07 2811.17 2409 2783 2409L2783 2409C2754.83 2409 2732 2386.07 2732 2357.78L2732 2068.22C2732 2039.93 2754.83 2017 2783 2017Z" fill="#004AAD" fill-rule="evenodd"/><path d="M2783 1580C2659.29 1580 2559 1677.83 2559 1798.5 2559 1919.17 2659.29 2017 2783 2017 2906.71 2017 3007 1919.17 3007 1798.5 3007 1677.83 2906.71 1580 2783 1580Z" fill="#FFFFFF" fill-rule="evenodd"/><path d="M2637.5 1603 2637.5 1603C2643.2 1603 2648.67 1605.29 2652.7 1609.38 2656.73 1613.46 2659 1619 2659 1624.78L2659 1981.22C2659 1987 2656.73 1992.54 2652.7 1996.62 2648.67 2000.71 2643.2 2003 2637.5 2003L2637.5 2003C2625.63 2003 2616 1993.25 2616 1981.22L2616 1624.78C2616 1612.75 2625.63 1603 2637.5 1603Z" fill="#004AAD" fill-rule="evenodd"/><path d="M2733.5 1568 2733.5 1568C2746.48 1568 2757 1578.49 2757 1591.44L2757 2015.56C2757 2021.78 2754.52 2027.74 2750.12 2032.13 2745.71 2036.53 2739.73 2039 2733.5 2039L2733.5 2039C2727.27 2039 2721.29 2036.53 2716.88 2032.13 2712.48 2027.74 2710 2021.78 2710 2015.56L2710 1591.44C2710 1585.22 2712.48 1579.26 2716.88 1574.87 2721.29 1570.47 2727.27 1568 2733.5 1568Z" fill="#004AAD" fill-rule="evenodd"/><path d="M2828.5 1567 2828.5 1567C2834.73 1567 2840.71 1569.45 2845.12 1573.82 2849.53 1578.19 2852 1584.11 2852 1590.29L2852 2015.71C2852 2021.89 2849.53 2027.81 2845.12 2032.18 2840.71 2036.55 2834.73 2039 2828.5 2039L2828.5 2039C2822.27 2039 2816.29 2036.55 2811.88 2032.18 2807.48 2027.81 2805 2021.89 2805 2015.71L2805 1590.29C2805 1584.11 2807.48 1578.19 2811.88 1573.82 2816.29 1569.45 2822.27 1567 2828.5 1567Z" fill="#004AAD" fill-rule="evenodd"/><path d="M2922 1603 2922 1603C2927.04 1603 2931.87 1604.99 2935.43 1608.54 2939 1612.09 2941 1616.9 2941 1621.91L2941 1984.09C2941 1989.1 2939 1993.91 2935.43 1997.46 2931.87 2001.01 2927.04 2003 2922 2003L2922 2003C2911.51 2003 2903 1994.53 2903 1984.09L2903 1621.91C2903 1611.47 2911.51 1603 2922 1603Z" fill="#004AAD" fill-rule="evenodd"/><path d="M2783 2199.5 2783 2199.5C2783 2188.23 2787.47 2177.42 2795.43 2169.45 2803.39 2161.48 2814.18 2157 2825.44 2157L2973.56 2157C2997 2157 3016 2176.03 3016 2199.5L3016 2199.5C3016 2210.77 3011.53 2221.58 3003.57 2229.55 2995.61 2237.52 2984.82 2242 2973.56 2242L2825.44 2242C2802 2242 2783 2222.97 2783 2199.5Z" fill="#004AAD" fill-rule="evenodd"/><path d="M2783 2311.5 2783 2311.5C2783 2300.23 2787.47 2289.42 2795.43 2281.45 2803.39 2273.48 2814.18 2269 2825.44 2269L2973.56 2269C2997 2269 3016 2288.03 3016 2311.5L3016 2311.5C3016 2322.77 3011.53 2333.58 3003.57 2341.55 2995.61 2349.52 2984.82 2354 2973.56 2354L2825.44 2354C2802 2354 2783 2334.97 2783 2311.5Z" fill="#004AAD" fill-rule="evenodd"/></g></svg>