<svg width="448" height="449" xmlns="http://www.w3.org/2000/svg" xmlns:xlink="http://www.w3.org/1999/xlink" xml:space="preserve" overflow="hidden"><g transform="translate(-736 -390)"><path d="M0 0C1.15998-0.00594709 1.15998-0.00594709 2.34339-0.0120143 4.91914-0.0230388 7.49471-0.0216626 10.0705-0.0202141 11.9237-0.0254537 13.777-0.0314091 15.6302-0.0380249 20.6544-0.05346 25.6786-0.0575851 30.7028-0.0587025 33.8454-0.0599481 36.988-0.0636872 40.1307-0.0683226 51.1047-0.0845056 62.0788-0.0916598 73.053-0.0902825 83.265-0.0892316 93.4771-0.107686 103.688-0.135334 112.47-0.158257 121.251-0.167603 130.033-0.166485 135.271-0.16604 140.51-0.170967 145.749-0.189547 150.679-0.206558 155.609-0.206581 160.54-0.193893 162.342-0.192071 164.146-0.196147 165.948-0.206774 181.302-0.291371 193.294 1.37984 204.87 12.3746 212.699 20.5765 216.107 30.0944 216.165 41.374 216.169 41.9816 216.173 42.5892 216.177 43.2152 216.191 45.2452 216.199 47.2751 216.206 49.3051 216.214 50.7627 216.223 52.2202 216.233 53.6777 216.256 57.6311 216.275 61.5844 216.292 65.5378 216.311 69.6707 216.335 73.8035 216.359 77.9363 216.402 85.7608 216.442 93.5856 216.479 101.41 216.522 110.318 216.57 119.227 216.618 128.136 216.718 146.46 216.812 164.784 216.901 183.109 217.952 182.748 219.003 182.388 220.085 182.017 221.494 181.538 222.903 181.06 224.311 180.583 225 180.346 225.69 180.109 226.399 179.865 257.006 169.534 293.084 172.97 322.1 186.687 354.543 202.758 379.11 230.652 391.138 264.737 395.543 278.428 397.358 292.044 397.37 306.374 397.371 306.979 397.372 307.583 397.372 308.206 397.357 317.778 396.793 326.91 394.526 336.234 394.381 336.867 394.236 337.501 394.085 338.152 388.643 361.441 376.798 381.915 360.401 399.234 359.684 400.008 358.967 400.781 358.228 401.579 336.354 424.422 303.5 438.914 271.848 439.662 236.089 440.063 202.633 430.631 176.067 405.612 174.628 404.2 173.198 402.779 171.774 401.353 170.546 400.128 169.306 398.914 168.031 397.737 161.431 391.543 156.28 383.99 151.276 376.484 149.144 376.223 147.232 376.135 145.097 376.159 144.453 376.155 143.809 376.152 143.146 376.148 140.977 376.141 138.808 376.151 136.64 376.162 135.089 376.159 133.538 376.155 131.988 376.151 128.641 376.144 125.294 376.145 121.947 376.151 116.647 376.162 111.347 376.151 106.047 376.137 92.8743 376.105 79.701 376.099 66.5276 376.102 56.3081 376.103 46.0885 376.097 35.869 376.067 30.6092 376.052 25.3499 376.054 20.0902 376.068 16.8018 376.072 13.5137 376.064 10.2254 376.05 8.71054 376.047 7.19565 376.05 5.68082 376.058-6.70462 376.129-17.105 374.63-27.2236 366.859-27.9816 366.354-28.7395 365.848-29.5205 365.327-36.686 358.539-41.7627 348.933-42.2113 338.985-42.2129 338.059-42.2145 337.134-42.216 336.181-42.22 335.109-42.2239 334.038-42.2278 332.934-42.2278 331.747-42.2277 330.561-42.2274 329.375-42.2303 328.112-42.2335 326.85-42.2371 325.587-42.2459 322.117-42.2492 318.648-42.2515 315.178-42.2549 311.435-42.2633 307.693-42.2709 303.951-42.2882 294.913-42.2971 285.874-42.3049 276.836-42.3086 272.577-42.3133 268.319-42.3179 264.06-42.3329 249.901-42.3455 235.742-42.3518 221.581-42.3535 217.908-42.3552 214.234-42.3569 210.561-42.3574 209.647-42.3578 208.735-42.3581 207.794-42.3654 193.008-42.3876 178.224-42.4161 163.438-42.445 148.251-42.4607 133.065-42.4635 117.878-42.4654 109.354-42.473 100.831-42.4954 92.3064-42.5144 85.0457-42.5214 77.7853-42.5129 70.5248-42.509 66.8231-42.5106 63.1216-42.5276 59.42-42.5431 56.0247-42.5421 52.6298-42.5286 49.2345-42.5265 48.0126-42.5303 46.7907-42.5407 45.5689-42.6443 32.6389-39.6394 21.3915-30.8911 11.5851-22.3629 3.48241-11.5414-0.0440132 0 0ZM-19.5674 28.9996C-23.3776 35.8037-23.0989 42.2915-23.0767 49.9365-23.0793 51.1741-23.0828 52.4117-23.0869 53.6494-23.0959 57.0422-23.094 60.435-23.0902 63.8279-23.0881 67.4902-23.096 71.1525-23.1025 74.8149-23.1136 81.9867-23.1152 89.1581-23.1132 96.3305-23.1116 102.16-23.1131 107.99-23.1169 113.82-23.1174 114.649-23.1179 115.479-23.1185 116.334-23.1195 118.02-23.1206 119.706-23.1216 121.392-23.1311 137.201-23.1292 153.009-23.1239 168.819-23.1194 183.278-23.1292 197.738-23.1459 212.197-23.1628 227.048-23.1701 241.898-23.1668 256.749-23.1651 265.085-23.1673 273.421-23.1796 281.757-23.19 288.853-23.1914 295.949-23.1807 303.047-23.1756 306.667-23.1746 310.285-23.1851 313.905-23.1946 317.222-23.1919 320.538-23.1796 323.854-23.1762 325.616-23.1857 327.379-23.1956 329.141-23.1461 337.438-22.3268 344.407-16.5015 350.669-11.1617 355.267-5.37889 356.47 1.49474 356.465 2.09443 356.465 2.69413 356.465 3.31201 356.466 5.32053 356.468 7.32901 356.463 9.33756 356.458 10.7777 356.458 12.2178 356.458 13.658 356.458 17.5681 356.459 21.4781 356.454 25.3881 356.448 29.4743 356.443 33.5604 356.442 37.6465 356.441 45.3843 356.438 53.1221 356.43 60.86 356.422 69.6692 356.412 78.4783 356.408 87.2875 356.403 105.409 356.394 123.53 356.379 141.651 356.359 141.474 355.749 141.298 355.138 141.116 354.509 140.304 351.689 139.499 348.866 138.694 346.043 138.417 345.083 138.139 344.124 137.853 343.135 128.778 311.147 131.942 277.535 146.901 247.859 147.767 245.985 148.625 244.108 149.472 242.226 150.067 240.909 150.663 239.592 151.276 238.234 146.079 238.234 140.881 238.234 135.526 238.234 135.526 231.881 135.526 225.529 135.526 218.984 137.605 219.116 139.684 219.248 141.826 219.383 156.662 220.897 156.662 220.897 170.318 216.758 172.718 214.485 174.574 211.863 176.399 209.117 178.335 206.527 180.837 204.741 183.432 202.851 184.751 201.859 186.07 200.866 187.382 199.865 188.901 198.859 188.901 198.859 190.87 198.026 193.388 196.813 194.943 195.738 196.776 193.609 197.979 188.765 197.8 183.98 197.712 179.015 197.714 177.511 197.719 176.007 197.728 174.504 197.742 170.425 197.706 166.347 197.662 162.268 197.621 157.993 197.625 153.718 197.623 149.444 197.613 142.261 197.574 135.08 197.515 127.898 197.439 118.696 197.411 109.495 197.4 100.293 197.389 92.3659 197.357 84.439 197.32 76.512 197.31 73.9726 197.302 71.4333 197.295 68.8938 197.282 64.8919 197.255 60.8903 197.217 56.8885 197.206 55.4248 197.198 53.961 197.195 52.4972 197.172 42.3056 197.084 33.0756 189.691 25.3389 183.966 20.2489 178.534 19.353 171.09 19.3611 170.347 19.3585 169.602 19.3559 168.836 19.3533 166.338 19.3456 163.839 19.3443 161.341 19.343 159.552 19.339 157.762 19.3345 155.973 19.3298 151.108 19.3183 146.243 19.3127 141.378 19.3088 138.338 19.3063 135.298 19.3027 132.258 19.2987 122.746 19.2868 113.233 19.2784 103.721 19.2749 92.7421 19.2711 81.7639 19.2557 70.7856 19.2303 62.2985 19.2114 53.8114 19.2026 45.3244 19.2014 40.2561 19.2005 35.188 19.1953 30.1197 19.1797 25.3501 19.1653 20.5808 19.1634 15.8112 19.1711 14.0635 19.1718 12.3157 19.1679 10.5681 19.1594 8.176 19.1481 5.78451 19.1533 3.39247 19.1624 2.70623 19.1554 2.02001 19.1483 1.31298 19.1411-7.53755 19.2196-14.075 21.9816-19.5674 28.9996ZM190.651 221.609C189.936 222.198 189.221 222.786 188.485 223.393 166.896 241.692 154.288 269.693 151.625 297.562 149.305 328.214 159.209 357.944 179.174 381.221 197.182 401.598 221.415 415.287 248.401 419.359 249.044 419.456 249.687 419.553 250.35 419.653 278.906 423.187 309.411 415.67 332.282 397.976 356.513 378.466 373.265 352.363 377.354 321.14 380.467 289.305 371.834 259.663 351.705 234.765 331.456 210.304 303.409 196.969 272.132 193.868 242.598 191.44 212.743 202.236 190.651 221.609Z" transform="matrix(1 0 0 1.00223 782.474 394.15)"/><path d="M0 0C56.8838 0 113.768 0 172.375 0 172.375 32.0513 172.375 64.1025 172.375 97.125 115.491 97.125 58.6075 97.125 0 97.125 0 65.0738 0 33.0225 0 0ZM20.125 20.125C20.125 39.1825 20.125 58.24 20.125 77.875 63.7262 77.875 107.327 77.875 152.25 77.875 152.25 58.8175 152.25 39.76 152.25 20.125 108.649 20.125 65.0475 20.125 20.125 20.125Z" transform="matrix(1 0 0 1.00223 783.25 443.494)"/><path d="M0 0C1.88918 0.840529 2.99417 1.80457 4.43357 3.28716 5.18647 4.05274 5.18647 4.05274 5.95457 4.83379 6.46778 5.36899 6.98099 5.90419 7.50975 6.45561 8.03649 6.9942 8.56323 7.53279 9.10595 8.0877 10.4028 9.41544 11.6915 10.7511 12.9785 12.0884 11.6095 15.3679 9.58107 17.4624 7.08861 19.9682 6.66438 20.397 6.24016 20.8258 5.80308 21.2676 4.38188 22.702 2.9545 24.13 1.52701 25.558 0.506244 26.5855-0.514175 27.6133-1.53427 28.6414-4.30499 31.4313-7.08144 34.2154-9.85959 36.998-11.5938 38.7355-13.327 40.474-15.0597 42.2131-21.1012 48.2759-27.1477 54.3338-33.1983 60.3875-38.845 66.0375-44.4802 71.6988-50.1102 77.3654-54.9408 82.2264-59.7798 87.0789-64.6253 91.9249-67.521 94.8211-70.4129 97.7209-73.2964 100.629-76.0059 103.362-78.7256 106.083-81.4536 108.798-82.4549 109.797-83.4525 110.8-84.4462 111.808-85.7991 113.179-87.1646 114.536-88.5342 115.889-89.2964 116.653-90.0594 117.417-90.8442 118.205-92.8961 119.713-92.8961 119.713-94.745 119.668-96.5536 118.759-97.7454 117.824-99.1821 116.399-99.7106 115.88-100.239 115.361-100.784 114.826-101.354 114.254-101.924 113.682-102.511 113.092-103.422 112.191-103.422 112.191-104.353 111.272-106.361 109.284-108.361 107.285-110.358 105.286-111.749 103.903-113.138 102.519-114.529 101.137-117.441 98.2362-120.347 95.3304-123.252 92.4219-126.98 88.6874-130.725 84.9698-134.474 81.2558-137.349 78.4042-140.213 75.5427-143.074 72.6782-144.451 71.3026-145.832 69.9306-147.216 68.562-149.145 66.6515-151.061 64.7277-152.974 62.7998-153.552 62.2328-154.13 61.6659-154.727 61.0817-155.243 60.5554-155.76 60.0292-156.292 59.487-156.746 59.0332-157.201 58.5794-157.669 58.1119-158.521 56.7134-158.521 56.7134-158.295 54.8802-157.525 52.899-156.595 51.8613-155.073 50.3834-154.563 49.8814-154.052 49.3795-153.526 48.8624-152.723 48.0925-152.723 48.0925-151.904 47.3071-151.365 46.7805-150.827 46.2537-150.273 45.711-148.944 44.4141-147.609 43.1254-146.271 41.8384-143.226 43.1437-141.274 44.8784-138.951 47.2241-138.203 47.9749-137.455 48.7259-136.685 49.4995-135.882 50.3134-135.081 51.1273-134.254 51.9659-133.413 52.8123-132.571 53.6583-131.73 54.5038-129.513 56.7318-127.302 58.9645-125.092 61.1987-121.569 64.7595-118.04 68.3145-114.509 71.8665-113.285 73.0986-112.065 74.334-110.845 75.5695-106.931 79.5127-102.979 83.3343-98.7438 86.9322-97.3114 88.1781-95.9717 89.481-94.6461 90.8381-91.6151 89.537-89.6726 87.8211-87.3609 85.4838-86.6102 84.7292-85.8595 83.9745-85.086 83.197-84.2612 82.3591-83.4365 81.521-82.6118 80.683-81.7381 79.8016-80.864 78.9206-79.9894 78.0401-78.1088 76.145-76.2308 74.2474-74.3547 72.3479-71.3895 69.3465-68.4163 66.3533-65.4414 63.3615-56.9841 54.8537-48.5356 46.3373-40.1 37.808-35.4396 33.096-30.7715 28.3918-26.0947 23.6961-23.1333 20.7219-20.182 17.7383-17.2375 14.7475-15.4068 12.8926-13.5671 11.047-11.7247 9.20378-10.87 8.34512-10.0192 7.48269-9.17236 6.61632-8.01907 5.43747-6.85098 4.27313-5.68212 3.1097-5.03173 2.45301-4.38134 1.79631-3.71124 1.11972-1.8965-0.161575-1.8965-0.161575 0 0Z" transform="matrix(1 0 0 1.00223 1120.27 645.356)"/><path d="M0 0C12.4162 0 24.8325 0 37.625 0 37.625 6.64125 37.625 13.2825 37.625 20.125 25.2087 20.125 12.7925 20.125 0 20.125 0 13.4837 0 6.8425 0 0Z" transform="matrix(1 0 0 1.00223 850.625 701.318)"/><path d="M0 0C12.4162 0 24.8325 0 37.625 0 37.625 6.64125 37.625 13.2825 37.625 20.125 25.2087 20.125 12.7925 20.125 0 20.125 0 13.4837 0 6.8425 0 0Z" transform="matrix(1 0 0 1.00223 783.25 701.318)"/><path d="M0 0C12.4162 0 24.8325 0 37.625 0 37.625 6.64125 37.625 13.2825 37.625 20.125 25.2087 20.125 12.7925 20.125 0 20.125 0 13.4837 0 6.8425 0 0Z" transform="matrix(1 0 0 1.00223 850.625 568.898)"/><path d="M0 0C12.4162 0 24.8325 0 37.625 0 37.625 6.64125 37.625 13.2825 37.625 20.125 25.2087 20.125 12.7925 20.125 0 20.125 0 13.4837 0 6.8425 0 0Z" transform="matrix(1 0 0 1.00223 783.25 568.898)"/><path d="M0 0C12.1275 0 24.255 0 36.75 0 36.75 6.64125 36.75 13.2825 36.75 20.125 24.6225 20.125 12.495 20.125 0 20.125 0 13.4837 0 6.8425 0 0Z" transform="matrix(1 0 0 1.00223 918 568.898)"/><path d="M0 0C12.4162 0 24.8325 0 37.625 0 37.625 6.3525 37.625 12.705 37.625 19.25 25.2087 19.25 12.7925 19.25 0 19.25 0 12.8975 0 6.545 0 0Z" transform="matrix(1 0 0 1.00223 850.625 657.471)"/><path d="M0 0C12.4162 0 24.8325 0 37.625 0 37.625 6.3525 37.625 12.705 37.625 19.25 25.2087 19.25 12.7925 19.25 0 19.25 0 12.8975 0 6.545 0 0Z" transform="matrix(1 0 0 1.00223 783.25 657.471)"/><path d="M0 0C12.4162 0 24.8325 0 37.625 0 37.625 6.3525 37.625 12.705 37.625 19.25 25.2087 19.25 12.7925 19.25 0 19.25 0 12.8975 0 6.545 0 0Z" transform="matrix(1 0 0 1.00223 850.625 613.623)"/><path d="M0 0C12.4162 0 24.8325 0 37.625 0 37.625 6.3525 37.625 12.705 37.625 19.25 25.2087 19.25 12.7925 19.25 0 19.25 0 12.8975 0 6.545 0 0Z" transform="matrix(1 0 0 1.00223 783.25 613.623)"/></g></svg>