<svg width="444" height="444" xmlns="http://www.w3.org/2000/svg" xmlns:xlink="http://www.w3.org/1999/xlink" xml:space="preserve" overflow="hidden"><g transform="translate(-1323 -392)"><path d="M1347.77 394.818C1350.45 394.891 1351.45 395.331 1353.53 397.071 1355.6 399.358 1357.52 401.716 1359.42 404.141 1360.83 405.839 1362.24 407.538 1363.65 409.235 1364.85 410.711 1366.04 412.191 1367.23 413.68 1367.72 414.271 1368.22 414.862 1368.73 415.472 1370.64 418.392 1370.15 420.659 1369.83 424.086 1368.96 425.82 1368.96 425.82 1367.23 426.688 1363.92 427.175 1363.92 427.175 1360.29 426.688 1358.57 424.97 1356.85 423.253 1355.09 421.484 1355.09 469.847 1355.09 518.21 1355.09 568.039 1364.24 558.882 1373.4 549.724 1382.84 540.289 1389.67 537.362 1389.67 537.362 1392.75 537.524 1393.77 537.578 1394.79 537.632 1395.84 537.688 1397 533.651 1396.54 531.465 1394.54 527.799 1394.06 526.953 1394.06 526.953 1393.57 526.089 1382.34 505.013 1380.58 480.412 1387.39 457.608 1391.23 445.599 1397.16 435.409 1405.38 425.82 1406 425.026 1406 425.026 1406.64 424.215 1419.53 408.033 1440.78 398.431 1460.88 395.469 1474.43 394.688 1487.82 394.606 1500.77 398.938 1501.78 399.272 1502.79 399.606 1503.83 399.95 1526.88 408.253 1544.81 425.145 1555.3 447.121 1565.33 469.235 1565.79 494.463 1557.57 517.207 1547.58 541.309 1529.45 558.938 1505.43 568.987 1500.26 570.966 1494.93 572.199 1489.5 573.242 1488.72 573.406 1487.94 573.571 1487.14 573.74 1465.63 576.531 1447.2 571.908 1427.92 562.886 1424.8 561.32 1424.8 561.32 1421.48 561.806 1420.81 562.316 1420.81 562.316 1420.12 562.836 1420.2 563.838 1420.27 564.839 1420.34 565.871 1420.67 570.405 1418.27 574.625 1415.56 578.133 1414.33 579.482 1413.07 580.769 1411.77 582.047 1411.29 582.531 1410.81 583.016 1410.32 583.516 1408.75 585.098 1407.17 586.669 1405.59 588.238 1404.48 589.345 1403.38 590.452 1402.28 591.561 1399.97 593.874 1397.65 596.182 1395.33 598.485 1392.38 601.424 1389.43 604.379 1386.49 607.337 1384.22 609.626 1381.94 611.905 1379.65 614.183 1378.56 615.268 1377.48 616.356 1376.39 617.447 1364.48 629.433 1364.48 629.433 1358.55 631.344 1357.12 631.344 1355.69 631.344 1354.22 631.344 1354.22 688.578 1354.22 745.812 1354.22 804.781 1480.99 804.495 1607.77 804.209 1738.38 803.914 1736.38 802.197 1734.38 800.48 1732.31 798.711 1731.81 795.323 1731.63 793.134 1733.18 790.039 1736.04 788.607 1738.77 788.566 1741.85 789.172 1744.61 790.738 1746.87 792.75 1749.22 794.862 1750.14 795.655 1750.14 795.655 1751.08 796.463 1752.31 797.528 1753.54 798.603 1754.75 799.687 1756.01 800.795 1757.28 801.882 1758.56 802.952 1759.19 803.476 1759.82 804.001 1760.46 804.541 1761.03 805.007 1761.59 805.473 1762.18 805.954 1763.69 807.55 1764.13 808.596 1764.51 810.743 1764.02 815.178 1760.68 817.442 1757.41 820.123 1756.57 820.783 1755.73 821.444 1754.86 822.125 1753.16 823.533 1751.46 824.943 1749.76 826.353 1748.29 827.553 1746.81 828.746 1745.32 829.93 1744.43 830.675 1744.43 830.675 1743.53 831.433 1740.61 833.346 1738.34 832.857 1734.91 832.531 1733.18 831.664 1733.18 831.664 1732.31 829.93 1731.67 825.595 1731.67 825.595 1732.31 822.992 1733.5 821.5 1733.5 821.5 1734.94 820.163 1735.42 819.713 1735.9 819.263 1736.39 818.799 1736.76 818.466 1737.13 818.132 1737.52 817.789 1736.27 817.789 1736.27 817.789 1735 817.788 1685.85 817.777 1636.71 817.742 1587.56 817.679 1581.66 817.671 1575.76 817.664 1569.87 817.656 1568.99 817.656 1568.99 817.656 1568.09 817.655 1549.06 817.631 1530.03 817.622 1511 817.619 1490.9 817.616 1470.8 817.598 1450.69 817.563 1438.64 817.543 1426.6 817.535 1414.55 817.543 1406.3 817.548 1398.04 817.537 1389.79 817.512 1385.02 817.499 1380.26 817.493 1375.49 817.505 1371.13 817.517 1366.77 817.509 1362.41 817.485 1360.83 817.479 1359.25 817.481 1357.67 817.491 1355.52 817.504 1353.38 817.49 1351.24 817.469 1350.62 817.479 1350 817.489 1349.36 817.499 1346.19 817.438 1344.9 817.132 1342.56 814.93 1340.71 811.708 1340.75 808.801 1340.81 805.186 1340.81 804.442 1340.81 803.699 1340.81 802.932 1340.81 800.441 1340.84 797.95 1340.86 795.459 1340.87 793.673 1340.87 791.886 1340.87 790.1 1340.88 786.254 1340.9 782.407 1340.92 778.561 1340.96 772.479 1340.97 766.398 1340.97 760.316 1340.98 743.023 1341.03 725.729 1341.11 708.437 1341.16 698.885 1341.18 689.334 1341.17 679.783 1341.17 673.736 1341.2 667.691 1341.25 661.645 1341.28 657.884 1341.27 654.123 1341.26 650.362 1341.25 648.618 1341.27 646.873 1341.29 645.129 1341.83 636.208 1341.83 636.208 1338.61 628.332 1336.62 627.001 1334.76 626.141 1332.54 625.273 1327.74 620.132 1325.97 614.502 1325.33 607.604 1326.12 598.485 1329.56 593.493 1336.01 587.117 1336.75 586.497 1337.5 585.877 1338.27 585.239 1340.85 582.184 1340.94 579.957 1340.87 576.136 1340.87 575.474 1340.87 574.812 1340.88 574.129 1340.88 571.913 1340.86 569.698 1340.84 567.482 1340.83 565.893 1340.84 564.303 1340.84 562.713 1340.84 558.399 1340.81 554.085 1340.78 549.771 1340.76 545.262 1340.75 540.753 1340.75 536.244 1340.74 527.706 1340.7 519.168 1340.66 510.63 1340.61 500.91 1340.58 491.19 1340.56 481.469 1340.52 461.474 1340.44 441.479 1340.34 421.484 1339.67 422.329 1338.99 423.174 1338.29 424.045 1336.24 426.605 1336.24 426.605 1334.19 427.348 1331 427.228 1329.32 426.896 1326.85 424.845 1325.29 421.727 1325.61 420.481 1326.47 417.148 1327.74 415.14 1327.74 415.14 1329.4 413.192 1330.01 412.457 1330.63 411.723 1331.27 410.966 1331.97 410.145 1332.68 409.323 1333.41 408.477 1334.25 407.476 1335.09 406.474 1335.93 405.472 1344.24 395.561 1344.24 395.561 1347.77 394.818ZM1420.49 428.978C1405.74 443.076 1397.06 461.902 1396.4 482.442 1396.25 497.863 1400.54 511.4 1407.78 524.978 1409.86 529.46 1410.72 534.723 1409.11 539.496 1408.63 540.669 1408.13 541.832 1407.6 542.982 1406.99 545.046 1407.2 546.104 1407.98 548.094 1410.13 550.044 1410.13 550.044 1412.32 551.562 1413.05 551.151 1413.79 550.74 1414.54 550.315 1420.65 547.54 1426.01 547.744 1432.27 549.828 1435.16 551.154 1437.96 552.649 1440.77 554.129 1456.93 562.46 1477.36 563.852 1494.7 558.5 1514.79 551.896 1531.4 539.029 1541.53 520.344 1545.34 512.784 1547.83 505.249 1549.34 496.93 1549.45 496.31 1549.56 495.689 1549.68 495.05 1552.5 476.579 1547.28 456.317 1536.63 441.115 1535.13 439.149 1533.58 437.251 1531.99 435.359 1531.5 434.728 1531 434.096 1530.49 433.445 1518.5 418.844 1499.5 410.233 1481.05 408.151 1458.45 406.03 1437.02 413.472 1420.49 428.978ZM1374.72 566.41C1374.26 566.864 1373.8 567.318 1373.33 567.788 1370.91 570.188 1368.5 572.592 1366.08 574.997 1363.6 577.466 1361.12 579.925 1358.62 582.381 1356.69 584.288 1354.77 586.203 1352.85 588.12 1351.94 589.03 1351.02 589.936 1350.1 590.841 1342.01 598.352 1342.01 598.352 1338.47 608.427 1339.36 611.938 1340.18 613.812 1342.62 616.602 1346.3 618.785 1348.2 619.203 1352.48 619.203 1356.73 617.508 1359.66 614.987 1362.82 611.769 1363.3 611.287 1363.78 610.804 1364.28 610.307 1365.86 608.722 1367.44 607.128 1369.01 605.535 1370.11 604.43 1371.21 603.325 1372.31 602.221 1375.2 599.323 1378.08 596.417 1380.96 593.509 1383.9 590.54 1386.85 587.578 1389.8 584.615 1395.58 578.808 1401.35 572.992 1407.12 567.172 1405.83 564.48 1404.52 562.629 1402.4 560.519 1401.53 559.655 1401.53 559.655 1400.65 558.774 1400.05 558.183 1399.44 557.592 1398.82 556.982 1397.92 556.075 1397.92 556.075 1396.99 555.15 1388.52 546.758 1381.7 559.476 1374.72 566.41Z"/><path d="M1753.12 580.18C1759.62 585.847 1763.28 592.292 1764.34 600.83 1764.77 609.368 1762.67 616.569 1757.47 623.373 1752.14 629.174 1745.29 632.539 1737.49 633.352 1730.49 633.611 1724.98 631.963 1718.44 629.609 1717.92 630.129 1717.41 630.649 1716.88 631.185 1714.93 633.144 1712.99 635.101 1711.04 637.056 1710.2 637.897 1709.37 638.739 1708.53 639.582 1707.32 640.805 1706.1 642.024 1704.89 643.244 1704.16 643.975 1703.43 644.706 1702.69 645.459 1700.84 647.23 1698.99 648.899 1697.05 650.559 1692.91 654.152 1689.07 658.023 1685.22 661.92 1683.92 663.238 1682.61 664.553 1681.31 665.867 1677.6 669.597 1673.89 673.332 1670.19 677.071 1667.92 679.37 1665.64 681.666 1663.35 683.958 1662.49 684.83 1661.62 685.703 1660.76 686.579 1659.56 687.795 1658.35 689.006 1657.15 690.215 1656.46 690.906 1655.78 691.597 1655.07 692.308 1653.4 693.781 1653.4 693.781 1651.66 693.781 1651.91 694.308 1652.16 694.837 1652.42 695.38 1655.96 703.728 1656.86 713.296 1653.78 721.965 1649.87 730.104 1643.21 735.715 1634.97 739.2 1626.53 740.607 1618.53 740.472 1610.91 736.273 1604.15 731.437 1598.79 725.488 1597.03 717.195 1596.96 715.946 1596.94 714.693 1596.95 713.442 1596.95 712.749 1596.95 712.055 1596.95 711.342 1596.96 710.626 1596.97 709.911 1596.98 709.174 1596.98 708.445 1596.99 707.716 1596.99 706.965 1597 705.172 1597.01 703.379 1597.03 701.586 1596.48 701.282 1595.94 700.977 1595.37 700.664 1583.47 694.049 1571.65 687.328 1559.91 680.445 1553.94 676.949 1547.96 673.494 1541.96 670.042 1541.46 669.751 1540.96 669.461 1540.44 669.161 1537.62 667.539 1534.81 665.918 1531.99 664.297 1531.53 664.654 1531.07 665.012 1530.59 665.38 1529.97 665.849 1529.36 666.317 1528.72 666.8 1528.12 667.265 1527.51 667.729 1526.88 668.208 1520.41 672.78 1512.85 673.728 1505.11 672.969 1501.55 672.028 1498.13 670.84 1494.7 669.5 1494.04 670.223 1493.38 670.946 1492.7 671.691 1487.98 676.844 1483.21 681.906 1478.23 686.813 1476.6 688.47 1475.08 690.172 1473.57 691.938 1471.06 694.862 1468.39 697.584 1465.65 700.285 1462.95 702.951 1460.31 705.633 1457.85 708.523 1455 711.863 1451.9 714.926 1448.78 718.005 1446.5 720.264 1444.32 722.559 1442.24 725 1439.77 727.89 1437.14 730.573 1434.43 733.238 1430.63 736.993 1427.03 740.852 1423.59 744.945 1423.15 745.467 1422.72 745.989 1422.26 746.527 1421.26 747.73 1420.26 748.939 1419.26 750.148 1419.5 750.662 1419.74 751.174 1419.99 751.703 1423.84 760.113 1424.94 768.126 1421.86 777.031 1417.86 785.475 1412.31 790.892 1403.65 794.375 1396.4 796.699 1387.7 795.947 1380.76 793.03 1372.8 788.598 1367.69 782.288 1364.97 773.637 1363.29 764.829 1364.8 756.778 1369.21 749.064 1374 742.022 1380.58 738.393 1388.8 736.622 1396.12 735.679 1402.11 737.064 1408.85 739.742 1411.19 737.434 1413.52 735.119 1415.84 732.805 1416.5 732.159 1417.15 731.514 1417.82 730.85 1421.46 727.225 1424.94 723.525 1428.29 719.631 1430.24 717.408 1432.32 715.36 1434.43 713.293 1437.14 710.629 1439.77 707.945 1442.24 705.055 1445.09 701.715 1448.18 698.652 1451.3 695.573 1453.58 693.314 1455.77 691.019 1457.85 688.578 1460.69 685.239 1463.79 682.178 1466.91 679.101 1469.74 676.295 1472.37 673.389 1474.96 670.36 1477.91 667.033 1481.12 663.942 1484.3 660.828 1484.12 660.305 1483.94 659.782 1483.76 659.243 1483.52 658.55 1483.29 657.857 1483.05 657.143 1482.82 656.458 1482.59 655.774 1482.35 655.069 1479.81 647.109 1479.4 637.593 1483.03 629.911 1487.02 623.49 1491.84 618.297 1499.04 615.734 1499.99 615.377 1500.93 615.019 1501.91 614.65 1509.94 613.017 1518.04 613.497 1525.22 617.719 1532.36 622.785 1537.76 629.28 1539.36 638.054 1539.9 642.943 1539.61 647.302 1538.93 652.156 1539.42 652.434 1539.92 652.712 1540.43 652.998 1550.03 658.394 1559.61 663.829 1569.12 669.392 1576.27 673.572 1583.42 677.75 1590.58 681.9 1592.07 682.763 1593.56 683.628 1595.05 684.495 1595.95 685.016 1596.85 685.538 1597.78 686.075 1598.58 686.538 1599.38 687.001 1600.2 687.479 1602.27 688.674 1602.27 688.674 1604.84 689.445 1606.47 688.486 1606.47 688.486 1608.09 687.061 1615.09 681.602 1622.63 680.004 1631.46 681.051 1634.08 681.597 1636.32 682.163 1638.65 683.494 1640.86 684.443 1641.62 684.181 1643.86 683.375 1645.44 682.162 1645.44 682.162 1646.93 680.587 1647.51 679.999 1648.1 679.411 1648.7 678.805 1649.64 677.844 1649.64 677.844 1650.59 676.864 1651.25 676.206 1651.9 675.548 1652.57 674.87 1654.66 672.761 1656.74 670.643 1658.82 668.524 1660.89 666.426 1662.96 664.329 1665.03 662.234 1666.32 660.931 1667.6 659.625 1668.89 658.316 1672.29 654.867 1675.78 651.604 1679.45 648.443 1684.23 644.257 1688.69 639.712 1693.21 635.248 1694.46 634.01 1695.72 632.777 1696.99 631.55 1698.83 629.766 1700.66 627.966 1702.48 626.161 1703.05 625.614 1703.62 625.068 1704.21 624.505 1705.63 623.078 1706.91 621.744 1708.03 620.07 1708.16 617.694 1708.16 617.694 1707.16 615.734 1704.55 608.495 1704.13 600.213 1706.78 592.917 1710.86 584.276 1716.58 578.572 1725.53 575.112 1735.22 572.41 1744.94 574.597 1753.12 580.18ZM1721.04 594.055C1718.4 598.625 1717.75 602.764 1718.44 607.93 1720.27 612.943 1723.32 616.082 1727.71 619.041 1732.25 620.669 1736.68 621.138 1741.23 619.247 1745.82 616.529 1748.8 613.551 1750.79 608.526 1751.81 603.092 1751.23 598.433 1748.23 593.713 1745.04 589.931 1741 587.894 1736.16 587.117 1729.94 586.754 1725.33 589.761 1721.04 594.055ZM1495.68 635.087C1493.11 638.927 1493.47 643.39 1493.84 647.82 1495.62 653.293 1499.74 656.704 1504.68 659.419 1509.88 660.72 1514.09 660.056 1518.85 657.759 1523.17 654.83 1525.36 650.539 1526.84 645.652 1526.75 640.662 1525.28 636.632 1522.72 632.374 1519.18 629.021 1515.25 626.856 1510.31 626.574 1503.92 626.963 1499.62 630.274 1495.68 635.087ZM1612.08 701.64C1609.22 705.748 1609.38 710.67 1610.04 715.461 1611.83 719.832 1614.43 723.128 1618.55 725.487 1623.63 727.588 1628.54 727.588 1633.62 725.487 1637.74 723.123 1640.31 719.831 1642.12 715.461 1642.86 711.057 1642.56 707.29 1641.2 703.05 1637.84 698.381 1633.98 695.027 1628.25 693.781 1621.16 692.848 1616.39 696.452 1612.08 701.64ZM1380.23 756.219C1377.59 760.806 1376.97 764.915 1377.63 770.094 1379.25 775.153 1382.98 778.299 1387.17 781.367 1391.51 782.815 1396.13 783.185 1400.43 781.418 1404.82 778.791 1407.77 775.835 1409.99 771.178 1411.1 765.95 1410.51 761.491 1407.88 756.815 1404.82 752.418 1401.12 750.319 1395.9 749.335 1389.59 748.836 1384.52 751.838 1380.23 756.219Z"/><path d="M1510.79 430.715C1512.42 431.917 1513.97 433.175 1515.52 434.492 1516.01 434.859 1516.49 435.225 1517 435.603 1529.24 445.128 1536.68 461.502 1538.66 476.605 1538.76 477.887 1538.86 479.169 1538.93 480.453 1538.98 481.078 1539.02 481.703 1539.07 482.347 1539.76 500.233 1532.94 516.202 1521.38 529.517 1512.68 538.801 1502.56 544.564 1490.37 548.093 1489.68 548.306 1488.99 548.518 1488.29 548.738 1471.32 553.084 1453.08 549.143 1438.24 540.453 1423.75 531.332 1413.44 516.626 1409.29 500.049 1405.89 482.642 1408.16 464.578 1417.64 449.388 1427.84 434.312 1442.57 423.876 1460.44 420.088 1478.61 417.265 1495.46 420.818 1510.79 430.715ZM1433.16 451.104C1424.44 461.661 1420.35 474.077 1420.69 487.723 1422.2 503.315 1429.4 516.419 1441.28 526.516 1453.98 535.693 1468.29 538.369 1483.63 536.475 1497.48 533.598 1509.28 525.091 1517.16 513.523 1524.97 501.39 1526.97 488.447 1525.05 474.383 1521.92 460.653 1513.9 448.5 1502.18 440.617 1478.61 426.745 1451.58 430.931 1433.16 451.104Z"/><path d="M1536.53 729.746C1542.27 734.3 1545.57 740.326 1546.73 747.547 1547.34 755.26 1545.12 761.82 1540.26 767.767 1534.9 773.637 1528.83 776.067 1521.04 776.435 1514.7 776.36 1509.27 774.252 1503.97 770.853 1497.37 763.789 1495.24 757.373 1495.33 747.889 1495.88 741.218 1498.62 735.714 1503.38 731.071 1513.6 723.325 1525.77 722.635 1536.53 729.746ZM1510.91 742.832C1508.22 746.718 1508.03 749.83 1508.58 754.485 1510.68 758.933 1513.57 761.455 1518.12 763.156 1521.85 763.681 1523.61 763.462 1526.95 761.693 1530.62 758.68 1532.5 756.708 1533.73 752.046 1534.04 747.894 1532.78 744.747 1530.26 741.477 1527.49 739.039 1524.78 738.081 1521.1 737.629 1516.62 738.199 1513.94 739.472 1510.91 742.832Z"/><path d="M1746.87 452.483C1753.27 456.109 1757.44 461.155 1759.73 468.218 1761.11 475.77 1760.63 483.366 1756.59 489.992 1752.27 495.513 1747.28 498.995 1740.6 501.049 1739.87 501.12 1739.14 501.192 1738.38 501.266 1737.83 501.32 1737.29 501.375 1736.72 501.432 1729.51 501.827 1722.89 499.586 1717.24 495.087 1711.67 489.772 1709.28 483.106 1708.63 475.575 1708.77 468.258 1711.89 461.947 1716.88 456.738 1725.24 449.034 1736.61 447.711 1746.87 452.483ZM1724.2 468.109C1722.16 471.648 1721.35 474.718 1722.13 478.756 1723.64 482.748 1726.48 485.575 1730.04 487.824 1734.62 488.697 1738.06 487.998 1742.12 485.927 1745.16 483.311 1746.68 481.03 1747.33 477.025 1747.59 472.583 1746.55 470.013 1743.59 466.578 1740.26 463.708 1737.66 462.511 1733.2 462.784 1729.36 463.496 1726.59 464.999 1724.2 468.109Z"/><path d="M1599.81 536.143C1605.3 539.916 1609.4 545.158 1611.23 551.617 1612.52 559.753 1611.7 566.589 1606.91 573.537 1602.1 579.254 1596.74 583.113 1589.16 583.94 1580.79 584.043 1573.45 582.591 1567.2 576.657 1561.85 570.196 1559.8 563.655 1560.22 555.316 1561.18 548.159 1563.78 543.196 1569.09 538.287 1578.26 531.307 1589.75 530.578 1599.81 536.143ZM1574.92 551.292C1573.23 555.009 1572.91 557.955 1573.62 561.969 1575.67 566.146 1578.13 568.561 1582.29 570.641 1586.83 571.218 1590.08 570.902 1593.96 568.378 1596.94 565.696 1598.52 562.434 1598.96 558.456 1598.75 554.177 1597.01 551.505 1594.09 548.45 1591.66 546.318 1589.49 545.676 1586.35 545.167 1581.65 545.823 1578.13 547.835 1574.92 551.292Z"/><path d="M1488.92 448.103C1494.02 452.783 1496.76 457.937 1497.63 464.803 1497.99 473.56 1495.6 479.576 1489.88 486.144 1486.45 489.853 1486.45 489.853 1483.43 490.859 1481.33 494.121 1480.78 497.915 1479.94 501.648 1478.94 504.269 1478.07 505.139 1475.63 506.469 1470.48 506.288 1470.48 506.288 1468.09 504.507 1465.86 501.541 1466.59 497.858 1466.95 494.328 1468.12 487.648 1472.84 483.455 1477.36 478.719 1481.84 474.057 1481.84 474.057 1483.65 468.096 1483.41 464.502 1482.85 462.609 1480.83 459.641 1477.91 457.535 1475.64 456.819 1472.1 457.039 1468.36 457.732 1466.6 459.098 1464.35 462.242 1463.57 464.45 1462.95 466.636 1462.42 468.915 1461.68 471.137 1461.01 472.115 1459.15 473.516 1455.86 473.934 1453.88 473.966 1450.96 472.323 1448.83 468.734 1449.02 465.443 1449.61 461.375 1451.91 453.686 1456.25 448.687 1463.24 444.882 1471.72 441.239 1481.54 442.742 1488.92 448.103Z"/><path d="M1630.85 529.016C1633.07 530.858 1633.07 530.858 1634.32 533.352 1634.32 536.414 1633.98 537.937 1631.98 540.269 1628.06 543.714 1622.85 546.734 1617.64 547.518 1614.89 547.294 1613.62 546.481 1611.77 544.462 1610.63 541.259 1610.47 540.003 1611.77 536.82 1614.2 534.772 1616.84 533.214 1619.58 531.617 1620.31 531.081 1621.04 530.544 1621.8 529.991 1625.09 528.475 1627.24 528.556 1630.85 529.016Z"/><path d="M1656.87 514.273C1659.04 516.062 1659.04 516.062 1660.34 518.609 1660.61 521.59 1660.61 521.59 1659.47 524.68 1657.08 526.815 1654.46 528.343 1651.66 529.883 1650.75 530.419 1649.84 530.956 1648.9 531.509 1645.34 532.932 1642.75 533.113 1639.2 531.617 1637.4 529.399 1637.37 527.515 1637.33 524.71 1638.19 521.399 1640.73 519.83 1643.47 518 1652.05 513.193 1652.05 513.193 1656.87 514.273Z"/><path d="M1685 500.398C1686.74 502.63 1686.94 504.543 1686.8 507.343 1686.01 510.419 1683.71 511.834 1681.15 513.406 1680.64 513.737 1680.13 514.068 1679.6 514.409 1676.73 516.174 1674.13 517.564 1670.74 517.742 1667.44 516.82 1666.62 516.333 1664.67 513.406 1664.29 510.913 1664.29 510.913 1664.67 508.203 1669.31 502.064 1677.39 497.279 1685 500.398Z"/><path d="M1538.93 702.453C1540.61 703.429 1540.61 703.429 1541.53 705.055 1542.37 710.675 1540.62 716.524 1538.06 721.531 1535.44 723.533 1534.34 724.157 1531.02 724.024 1527.2 722.862 1527.2 722.862 1525.92 720.664 1525.19 714.787 1526.65 709.425 1529.39 704.188 1532.61 701.108 1534.65 701.365 1538.93 702.453Z"/><path d="M1549.34 676.438C1551.22 678.561 1551.08 679.779 1550.96 682.616 1549.8 687.753 1548.42 693.826 1544.13 697.25 1540.65 697.856 1539.33 697.52 1536.38 695.516 1534.59 692.914 1534.59 692.914 1534.54 689.716 1535.6 684.519 1537.07 679.112 1540.94 675.354 1544.26 674.425 1546.2 675.078 1549.34 676.438Z"/><path d="M1566.14 609.339C1569.28 609.664 1569.28 609.664 1571.4 611.019 1573.34 614.046 1573.2 615.623 1572.75 619.203 1570.49 627.836 1570.49 627.836 1567.16 630.331 1564.26 631.66 1562.75 631.459 1559.74 630.477 1558.06 629.176 1558.06 629.176 1557.14 627.008 1556.87 621.364 1558.75 616.268 1561.48 611.398 1563.21 609.664 1563.21 609.664 1566.14 609.339Z"/><path d="M1561.48 634.812C1563.42 636.152 1563.96 637.053 1564.7 639.287 1565.03 642.603 1564.14 644.867 1562.99 647.983 1562.61 649.05 1562.23 650.118 1561.84 651.218 1560.61 653.891 1560.61 653.891 1558.01 655.625 1555.03 656.004 1555.03 656.004 1551.94 655.625 1549.77 653.891 1549.77 653.891 1548.47 651.289 1548.47 645.262 1550.4 639.273 1554.43 634.704 1557.09 633.608 1558.75 634.001 1561.48 634.812Z"/><path d="M1579.69 586.25C1581.64 589.173 1581.55 590.385 1581.03 593.767 1579.99 598.17 1578.59 602.957 1575.35 606.195 1569.09 606.692 1569.09 606.692 1566.92 605.098 1564.83 602.255 1565.35 599.151 1565.81 595.789 1566.93 591.64 1568.18 588.191 1571.29 585.166 1574.59 584.245 1576.56 584.954 1579.69 586.25Z"/><path d="M1708.03 486.523C1709.66 487.445 1709.66 487.445 1710.63 489.125 1711.49 493.485 1711.49 493.485 1710.63 496.062 1708.29 498.291 1705.68 499.78 1702.83 501.266 1702.23 501.593 1701.64 501.921 1701.03 502.258 1698.39 503.431 1696.13 503.258 1693.29 503 1690.96 501.605 1690.72 500.511 1689.93 497.905 1689.8 494.567 1690.44 493.518 1692.42 490.859 1694.77 489.267 1694.77 489.267 1697.46 487.933 1698.34 487.479 1699.23 487.025 1700.14 486.557 1703.21 485.527 1704.93 485.693 1708.03 486.523Z"/><path d="M1482.64 748.251C1485.58 748.076 1487.42 748.195 1489.93 749.769 1491.74 752.705 1491.72 754.565 1491.23 757.953 1489.41 760.723 1488.23 761.312 1485 762.072 1483.36 762.179 1483.36 762.179 1481.7 762.289 1480.7 762.371 1480.7 762.371 1479.69 762.455 1476.4 762.622 1474.5 762.675 1471.67 760.879 1470.02 758.153 1469.85 756.755 1470.42 753.617 1472.62 750.622 1474.01 749.465 1477.63 748.576 1479.3 748.491 1480.97 748.401 1482.64 748.251Z"/><path d="M1465.98 752.804C1467.57 755.546 1467.43 758.337 1466.95 761.421 1465.73 763.317 1464.97 763.828 1462.85 764.494 1458.75 765.321 1454.62 765.399 1450.48 764.89 1448.04 763.047 1448.04 763.047 1447.01 760.554 1447.06 757.818 1447.26 756.135 1448.97 753.962 1453.37 750.43 1461.16 750.074 1465.98 752.804Z"/><path d="M1440.94 754.484C1443.38 756.327 1443.38 756.327 1444.41 758.82 1444.35 761.702 1444.09 763.325 1442.29 765.595 1439.43 767.77 1437.17 767.662 1433.62 767.709 1432.62 767.731 1431.62 767.754 1430.59 767.777 1427.93 767.492 1427.93 767.492 1426.29 766.395 1424.58 763.733 1424.85 760.999 1425.33 757.953 1428.62 753.088 1435.73 753.854 1440.94 754.484Z"/><path d="M1476.49 511.672C1479.3 514.047 1479.89 515.446 1480.34 519.097 1479.94 522.228 1479.73 523.492 1477.36 525.547 1474.19 526.582 1472.76 526.697 1469.72 525.276 1467.82 523.812 1467.82 523.812 1466.95 522.078 1466.46 515.933 1466.46 515.933 1468.31 512.973 1471.27 511.151 1473.08 511.124 1476.49 511.672Z"/></g></svg>