<svg width="3071" height="2402" xmlns="http://www.w3.org/2000/svg" xmlns:xlink="http://www.w3.org/1999/xlink" xml:space="preserve" overflow="hidden"><g transform="translate(-243 -1101)"><path d="M1751.5 2173C1515.95 2173 1325 2363.95 1325 2599.5 1325 2835.05 1515.95 3026 1751.5 3026 1987.05 3026 2178 2835.05 2178 2599.5 2178 2363.95 1987.05 2173 1751.5 2173Z" fill="#0049B0" fill-rule="evenodd"/><text fill="#FFFFFF" font-family="Calibri,Calibri_MSFontService,sans-serif" font-weight="700" font-size="738" transform="matrix(1 0 0 1 1548.14 2864)">X</text><path d="M955 2599.5C955 2250.18 1312.95 1967 1754.5 1967 2196.05 1967 2554 2250.18 2554 2599.5 2554 2948.82 2196.05 3232 1754.5 3232 1312.95 3232 955 2948.82 955 2599.5Z" stroke="#000000" stroke-width="123.75" stroke-linejoin="round" stroke-miterlimit="10" fill="none" fill-rule="evenodd"/><text font-family="Calibri,Calibri_MSFontService,sans-serif" font-weight="700" font-size="633" transform="matrix(0.828078 -0.560612 0.560612 0.828078 1367.86 2056)">I</text><text font-family="Calibri,Calibri_MSFontService,sans-serif" font-weight="700" font-size="633" transform="matrix(1 0 0 1 1643.98 1952)">I</text><text font-family="Calibri,Calibri_MSFontService,sans-serif" font-weight="700" font-size="633" transform="matrix(0.784012 0.620745 -0.620745 0.784012 2021.98 1953)">I</text><text font-family="Calibri,Calibri_MSFontService,sans-serif" font-weight="700" font-size="633" transform="matrix(0.586853 -0.809694 0.809694 0.586853 1099.12 2239)">I</text><text font-family="Calibri,Calibri_MSFontService,sans-serif" font-weight="700" font-size="633" transform="matrix(0.544129 0.839001 -0.839001 0.544129 2359.73 2165)">I</text></g></svg>