<svg width="570" height="678" xmlns="http://www.w3.org/2000/svg" xmlns:xlink="http://www.w3.org/1999/xlink" xml:space="preserve" overflow="hidden"><defs><clipPath id="clip0"><rect x="557" y="273" width="570" height="678"/></clipPath></defs><g clip-path="url(#clip0)" transform="translate(-557 -273)"><path d="M605 878.823 605 345.177C605 326.034 612.599 307.676 626.125 294.141 639.653 280.604 657.998 273 677.128 273L1054.87 273C1074 273 1092.35 280.604 1105.87 294.141 1119.4 307.676 1127 326.034 1127 345.177L1127 878.823C1127 897.966 1119.4 916.324 1105.87 929.861 1092.35 943.396 1074 951 1054.87 951L677.128 951C657.998 951 639.653 943.396 626.125 929.861 612.599 916.324 605 897.966 605 878.823Z" fill="#FFFFFF" fill-rule="evenodd"/><path d="M867 309C766.484 309 685 390.26 685 490.5 685 590.74 766.484 672 867 672 967.516 672 1049 590.74 1049 490.5 1049 390.26 967.516 309 867 309Z" fill="#4C80C5" fill-rule="evenodd"/><path d="M867.5 645 867.5 645C887.106 645 903 660.915 903 680.548L903 888.452C903 908.085 887.106 924 867.5 924L867.5 924C847.894 924 832 908.085 832 888.452L832 680.548C832 660.915 847.894 645 867.5 645Z" fill="#4C80C5" fill-rule="evenodd"/><path d="M867.5 335C781.619 335 712 404.62 712 490.5 712 576.38 781.619 646 867.5 646 953.38 646 1023 576.38 1023 490.5 1023 404.62 953.38 335 867.5 335Z" fill="#FFFFFF" fill-rule="evenodd"/><path d="M694.094 461.761 694.094 461.761C696.93 458.925 700.776 457.332 704.786 457.332 708.796 457.332 712.642 458.925 715.478 461.76L895.455 641.737C898.29 644.573 899.883 648.419 899.883 652.429 899.883 656.439 898.29 660.286 895.454 663.121L895.454 663.121C892.619 665.957 888.773 667.55 884.763 667.55 880.753 667.55 876.907 665.957 874.071 663.121L694.094 483.144C691.258 480.308 689.665 476.463 689.665 472.452 689.665 468.442 691.258 464.596 694.094 461.761Z" fill="#4C80C5" fill-rule="evenodd"/><path d="M723.414 396.947 723.414 396.947C726.468 393.893 730.609 392.178 734.928 392.178 739.247 392.178 743.388 393.893 746.442 396.947L960.649 611.154C963.702 614.208 965.418 618.349 965.418 622.668 965.418 626.986 963.702 631.128 960.649 634.182L960.649 634.182C957.595 637.236 953.453 638.951 949.135 638.951 944.816 638.951 940.674 637.236 937.621 634.182L723.414 419.975C720.36 416.922 718.645 412.78 718.645 408.461 718.645 404.143 720.36 400.001 723.414 396.947Z" fill="#4C80C5" fill-rule="evenodd"/><path d="M769.738 349.907 769.738 349.907C772.77 346.876 776.882 345.172 781.17 345.173 785.457 345.172 789.569 346.876 792.601 349.908L1007.33 564.637C1013.64 570.95 1013.64 581.186 1007.33 587.499L1007.33 587.499C1001.02 593.813 990.781 593.812 984.468 587.499L769.738 372.77C763.425 366.456 763.425 356.221 769.738 349.907Z" fill="#4C80C5" fill-rule="evenodd"/><path d="M833.493 322.362 833.493 322.362C838.621 317.234 846.935 317.233 852.064 322.362L1034.85 505.152C1037.32 507.615 1038.7 510.955 1038.7 514.437 1038.7 517.919 1037.32 521.259 1034.85 523.722L1034.85 523.722C1032.39 526.185 1029.05 527.568 1025.57 527.569 1022.09 527.568 1018.75 526.185 1016.28 523.722L833.493 340.932C831.03 338.47 829.647 335.129 829.647 331.647 829.647 328.165 831.03 324.825 833.493 322.362Z" fill="#4C80C5" fill-rule="evenodd"/><path d="M848 769.5 848 769.5C848 761.41 851.188 753.653 856.863 747.933 862.537 742.214 870.233 739 878.259 739L979.741 739C996.453 739 1010 752.655 1010 769.5L1010 769.5C1010 786.345 996.453 800 979.741 800L878.259 800C861.547 800 848 786.345 848 769.5Z" fill="#4C80C5" fill-rule="evenodd"/><path d="M848 849.5 848 849.5C848 841.41 851.188 833.653 856.863 827.933 862.537 822.214 870.233 819 878.259 819L979.741 819C996.453 819 1010 832.655 1010 849.5L1010 849.5C1010 866.345 996.453 880 979.741 880L878.259 880C861.547 880 848 866.345 848 849.5Z" fill="#4C80C5" fill-rule="evenodd"/></g></svg>