<svg width="3072" height="2402" xmlns="http://www.w3.org/2000/svg" xmlns:xlink="http://www.w3.org/1999/xlink" xml:space="preserve" overflow="hidden"><g transform="translate(-3173 -332)"><path d="M4681.5 1405C4445.95 1405 4255 1595.73 4255 1831 4255 2066.27 4445.95 2257 4681.5 2257 4917.05 2257 5108 2066.27 5108 1831 5108 1595.73 4917.05 1405 4681.5 1405Z" fill="#4C80C5" fill-rule="evenodd"/><text fill="#FFFFFF" font-family="Calibri,Calibri_MSFontService,sans-serif" font-weight="700" font-size="738" transform="matrix(1 0 0 1 4505.25 2096)">Z</text><path d="M3886 1830.5C3886 1481.18 4243.72 1198 4685 1198 5126.28 1198 5484 1481.18 5484 1830.5 5484 2179.82 5126.28 2463 4685 2463 4243.72 2463 3886 2179.82 3886 1830.5Z" stroke="#000000" stroke-width="123.75" stroke-linejoin="round" stroke-miterlimit="10" fill="none" fill-rule="evenodd"/><text font-family="Calibri,Calibri_MSFontService,sans-serif" font-weight="700" font-size="633" transform="matrix(0.828078 -0.560612 0.560612 0.828078 4298.33 1287)">I</text><text font-family="Calibri,Calibri_MSFontService,sans-serif" font-weight="700" font-size="633" transform="matrix(1 0 0 1 4574.45 1183)">I</text><text font-family="Calibri,Calibri_MSFontService,sans-serif" font-weight="700" font-size="633" transform="matrix(0.784012 0.620745 -0.620745 0.784012 4952.45 1185)">I</text><text font-family="Calibri,Calibri_MSFontService,sans-serif" font-weight="700" font-size="633" transform="matrix(0.586853 -0.809694 0.809694 0.586853 4029.59 1470)">I</text><text font-family="Calibri,Calibri_MSFontService,sans-serif" font-weight="700" font-size="633" transform="matrix(0.544129 0.839001 -0.839001 0.544129 5290.19 1396)">I</text></g></svg>