<svg width="570" height="678" xmlns="http://www.w3.org/2000/svg" xmlns:xlink="http://www.w3.org/1999/xlink" xml:space="preserve" overflow="hidden"><defs><clipPath id="clip0"><rect x="1080" y="273" width="570" height="678"/></clipPath></defs><g clip-path="url(#clip0)" transform="translate(-1080 -273)"><path d="M1127 878.823 1127 345.177C1127 326.034 1134.61 307.676 1148.17 294.141 1161.72 280.604 1180.1 273 1199.27 273L1577.73 273C1596.9 273 1615.28 280.604 1628.83 294.141 1642.39 307.676 1650 326.034 1650 345.177L1650 878.823C1650 897.966 1642.39 916.324 1628.83 929.861 1615.28 943.396 1596.9 951 1577.73 951L1199.27 951C1180.1 951 1161.72 943.396 1148.17 929.861 1134.61 916.324 1127 897.966 1127 878.823Z" fill="#FFFFFF" fill-rule="evenodd"/><path d="M1388.5 304C1288.26 304 1207 385.484 1207 486 1207 586.516 1288.26 668 1388.5 668 1488.74 668 1570 586.516 1570 486 1570 385.484 1488.74 304 1388.5 304Z" fill="#4C80C5" fill-rule="evenodd"/><path d="M1388.5 641 1388.5 641C1408.11 641 1424 656.915 1424 676.548L1424 884.452C1424 904.085 1408.11 920 1388.5 920L1388.5 920C1368.89 920 1353 904.085 1353 884.452L1353 676.548C1353 656.915 1368.89 641 1388.5 641Z" fill="#4C80C5" fill-rule="evenodd"/><path d="M1388.5 331C1302.62 331 1233 400.396 1233 486 1233 571.604 1302.62 641 1388.5 641 1474.38 641 1544 571.604 1544 486 1544 400.396 1474.38 331 1388.5 331Z" fill="#FFFFFF" fill-rule="evenodd"/><path d="M1288 347 1288 347C1291.98 347 1295.79 348.589 1298.61 351.417 1301.42 354.245 1303 358.08 1303 362.079L1303 615.921C1303 619.92 1301.42 623.755 1298.61 626.583 1295.79 629.411 1291.98 631 1288 631L1288 631C1284.02 631 1280.21 629.411 1277.39 626.583 1274.58 623.755 1273 619.92 1273 615.921L1273 362.079C1273 358.08 1274.58 354.245 1277.39 351.417 1280.21 348.589 1284.02 347 1288 347Z" fill="#4C80C5" fill-rule="evenodd"/><path d="M1354.5 321 1354.5 321C1358.88 321 1363.07 322.718 1366.17 325.776 1369.26 328.835 1371 332.983 1371 337.308L1371 640.692C1371 645.017 1369.26 649.165 1366.17 652.224 1363.07 655.282 1358.88 657 1354.5 657L1354.5 657C1350.12 657 1345.93 655.282 1342.83 652.224 1339.74 649.165 1338 645.017 1338 640.692L1338 337.308C1338 332.983 1339.74 328.835 1342.83 325.776 1345.93 322.718 1350.12 321 1354.5 321Z" fill="#4C80C5" fill-rule="evenodd"/><path d="M1420.5 321 1420.5 321C1424.88 321 1429.07 322.703 1432.17 325.735 1435.26 328.767 1437 332.879 1437 337.166L1437 640.834C1437 649.762 1429.61 657 1420.5 657L1420.5 657C1411.39 657 1404 649.762 1404 640.834L1404 337.166C1404 328.237 1411.39 321 1420.5 321Z" fill="#4C80C5" fill-rule="evenodd"/><path d="M1485 347 1485 347C1492.18 347 1498 352.863 1498 360.096L1498 617.904C1498 621.378 1496.63 624.708 1494.19 627.165 1491.75 629.62 1488.45 631 1485 631L1485 631C1481.55 631 1478.25 629.62 1475.81 627.165 1473.37 624.708 1472 621.378 1472 617.904L1472 360.096C1472 356.622 1473.37 353.292 1475.81 350.835 1478.25 348.38 1481.55 347 1485 347Z" fill="#4C80C5" fill-rule="evenodd"/><path d="M1370 765 1370 765C1370 757.043 1373.17 749.412 1378.81 743.787 1384.45 738.161 1392.1 735 1400.07 735L1500.93 735C1517.54 735 1531 748.431 1531 765L1531 765C1531 781.569 1517.54 795 1500.93 795L1400.07 795C1383.46 795 1370 781.569 1370 765Z" fill="#4C80C5" fill-rule="evenodd"/><path d="M1370 845 1370 845C1370 837.043 1373.17 829.412 1378.81 823.787 1384.45 818.161 1392.1 815 1400.07 815L1500.93 815C1517.54 815 1531 828.431 1531 845L1531 845C1531 861.569 1517.54 875 1500.93 875L1400.07 875C1383.46 875 1370 861.569 1370 845Z" fill="#4C80C5" fill-rule="evenodd"/></g></svg>