<svg width="570" height="678" xmlns="http://www.w3.org/2000/svg" xmlns:xlink="http://www.w3.org/1999/xlink" xml:space="preserve" overflow="hidden"><defs><clipPath id="clip0"><rect x="1809" y="273" width="570" height="678"/></clipPath></defs><g clip-path="url(#clip0)" transform="translate(-1809 -273)"><path d="M1857 878.823 1857 345.177C1857 326.034 1864.6 307.676 1878.13 294.141 1891.65 280.604 1910 273 1929.13 273L2306.87 273C2326 273 2344.35 280.604 2357.87 294.141 2371.4 307.676 2379 326.034 2379 345.177L2379 878.823C2379 897.966 2371.4 916.324 2357.87 929.861 2344.35 943.396 2326 951 2306.87 951L1929.13 951C1910 951 1891.65 943.396 1878.13 929.861 1864.6 916.324 1857 897.966 1857 878.823Z" fill="#FFFFFF" fill-rule="evenodd"/><path d="M2119 309C2018.48 309 1937 390.26 1937 490.5 1937 590.74 2018.48 672 2119 672 2219.52 672 2301 590.74 2301 490.5 2301 390.26 2219.52 309 2119 309Z" fill="#478CEA" fill-rule="evenodd"/><path d="M2119.5 645 2119.5 645C2139.11 645 2155 660.915 2155 680.548L2155 888.452C2155 908.085 2139.11 924 2119.5 924L2119.5 924C2099.89 924 2084 908.085 2084 888.452L2084 680.548C2084 660.915 2099.89 645 2119.5 645Z" fill="#478CEA" fill-rule="evenodd"/><path d="M2119 335C2033.4 335 1964 404.62 1964 490.5 1964 576.38 2033.4 646 2119 646 2204.6 646 2274 576.38 2274 490.5 2274 404.62 2204.6 335 2119 335Z" fill="#FFFFFF" fill-rule="evenodd"/><path d="M1946.03 461.761 1946.03 461.761C1948.87 458.925 1952.71 457.332 1956.72 457.332 1960.73 457.332 1964.58 458.925 1967.42 461.76L2147.39 641.737C2150.23 644.573 2151.82 648.419 2151.82 652.429 2151.82 656.439 2150.23 660.286 2147.39 663.121L2147.39 663.121C2144.56 665.957 2140.71 667.55 2136.7 667.55 2132.69 667.55 2128.84 665.957 2126.01 663.121L1946.03 483.144C1943.2 480.308 1941.6 476.463 1941.6 472.452 1941.6 468.442 1943.2 464.596 1946.03 461.761Z" fill="#478CEA" fill-rule="evenodd"/><path d="M1975.35 396.947 1975.35 396.947C1978.41 393.893 1982.55 392.178 1986.87 392.178 1991.18 392.178 1995.33 393.893 1998.38 396.947L2212.59 611.154C2215.64 614.208 2217.36 618.349 2217.36 622.668 2217.36 626.986 2215.64 631.128 2212.59 634.182L2212.59 634.182C2209.53 637.236 2205.39 638.951 2201.07 638.951 2196.75 638.951 2192.61 637.236 2189.56 634.182L1975.35 419.975C1972.3 416.922 1970.58 412.78 1970.58 408.461 1970.58 404.143 1972.3 400.001 1975.35 396.947Z" fill="#478CEA" fill-rule="evenodd"/><path d="M2021.68 349.907 2021.68 349.907C2024.71 346.876 2028.82 345.172 2033.11 345.173 2037.39 345.172 2041.51 346.876 2044.54 349.908L2259.27 564.637C2265.58 570.95 2265.58 581.186 2259.27 587.499L2259.27 587.499C2252.95 593.813 2242.72 593.812 2236.41 587.499L2021.68 372.77C2015.36 366.456 2015.36 356.221 2021.68 349.907Z" fill="#478CEA" fill-rule="evenodd"/><path d="M2085.43 322.362 2085.43 322.362C2090.56 317.234 2098.87 317.233 2104 322.362L2286.79 505.152C2289.25 507.615 2290.64 510.955 2290.64 514.437 2290.64 517.919 2289.25 521.259 2286.79 523.722L2286.79 523.722C2284.33 526.185 2280.99 527.568 2277.51 527.569 2274.02 527.568 2270.68 526.185 2268.22 523.722L2085.43 340.932C2082.97 338.47 2081.58 335.129 2081.58 331.647 2081.58 328.165 2082.97 324.825 2085.43 322.362Z" fill="#478CEA" fill-rule="evenodd"/><path d="M2100 769.5 2100 769.5C2100 761.41 2103.19 753.653 2108.86 747.933 2114.54 742.214 2122.23 739 2130.26 739L2231.74 739C2248.45 739 2262 752.655 2262 769.5L2262 769.5C2262 786.345 2248.45 800 2231.74 800L2130.26 800C2113.55 800 2100 786.345 2100 769.5Z" fill="#478CEA" fill-rule="evenodd"/><path d="M2100 849.5 2100 849.5C2100 841.41 2103.19 833.653 2108.86 827.933 2114.54 822.214 2122.23 819 2130.26 819L2231.74 819C2248.45 819 2262 832.655 2262 849.5L2262 849.5C2262 866.345 2248.45 880 2231.74 880L2130.26 880C2113.55 880 2100 866.345 2100 849.5Z" fill="#478CEA" fill-rule="evenodd"/></g></svg>