<svg width="3071" height="2402" xmlns="http://www.w3.org/2000/svg" xmlns:xlink="http://www.w3.org/1999/xlink" xml:space="preserve" overflow="hidden"><g transform="translate(-216 -3979)"><path d="M1724 5052C1488.73 5052 1298 5242.95 1298 5478.5 1298 5714.05 1488.73 5905 1724 5905 1959.27 5905 2150 5714.05 2150 5478.5 2150 5242.95 1959.27 5052 1724 5052Z" fill="#478CEA" fill-rule="evenodd"/><text fill="#FFFFFF" font-family="Calibri,Calibri_MSFontService,sans-serif" font-weight="700" font-size="738" transform="matrix(1 0 0 1 1547.5 5743)">Z</text><path d="M928 5478.5C928 5129.18 1285.95 4846 1727.5 4846 2169.05 4846 2527 5129.18 2527 5478.5 2527 5827.82 2169.05 6111 1727.5 6111 1285.95 6111 928 5827.82 928 5478.5Z" stroke="#000000" stroke-width="123.75" stroke-linejoin="round" stroke-miterlimit="10" fill="none" fill-rule="evenodd"/><text font-family="Calibri,Calibri_MSFontService,sans-serif" font-weight="700" font-size="633" transform="matrix(0.828078 -0.560612 0.560612 0.828078 1340.57 4934)">I</text><text font-family="Calibri,Calibri_MSFontService,sans-serif" font-weight="700" font-size="633" transform="matrix(1 0 0 1 1616.7 4831)">I</text><text font-family="Calibri,Calibri_MSFontService,sans-serif" font-weight="700" font-size="633" transform="matrix(0.784012 0.620745 -0.620745 0.784012 1994.7 4832)">I</text><text font-family="Calibri,Calibri_MSFontService,sans-serif" font-weight="700" font-size="633" transform="matrix(0.586853 -0.809694 0.809694 0.586853 1071.83 5117)">I</text><text font-family="Calibri,Calibri_MSFontService,sans-serif" font-weight="700" font-size="633" transform="matrix(0.544129 0.839001 -0.839001 0.544129 2332.44 5044)">I</text></g></svg>