<svg width="570" height="678" xmlns="http://www.w3.org/2000/svg" xmlns:xlink="http://www.w3.org/1999/xlink" xml:space="preserve" overflow="hidden"><defs><clipPath id="clip0"><rect x="2332" y="273" width="570" height="678"/></clipPath></defs><g clip-path="url(#clip0)" transform="translate(-2332 -273)"><path d="M2379 878.823 2379 345.177C2379 326.034 2386.61 307.676 2400.17 294.141 2413.72 280.604 2432.1 273 2451.27 273L2829.73 273C2848.9 273 2867.28 280.604 2880.83 294.141 2894.39 307.676 2902 326.034 2902 345.177L2902 878.823C2902 897.966 2894.39 916.324 2880.83 929.861 2867.28 943.396 2848.9 951 2829.73 951L2451.27 951C2432.1 951 2413.72 943.396 2400.17 929.861 2386.61 916.324 2379 897.966 2379 878.823Z" fill="#FFFFFF" fill-rule="evenodd"/><path d="M2640.5 304C2540.26 304 2459 385.484 2459 486 2459 586.516 2540.26 668 2640.5 668 2740.74 668 2822 586.516 2822 486 2822 385.484 2740.74 304 2640.5 304Z" fill="#478CEA" fill-rule="evenodd"/><path d="M2640.5 641 2640.5 641C2660.11 641 2676 656.915 2676 676.548L2676 884.452C2676 904.085 2660.11 920 2640.5 920L2640.5 920C2620.89 920 2605 904.085 2605 884.452L2605 676.548C2605 656.915 2620.89 641 2640.5 641Z" fill="#478CEA" fill-rule="evenodd"/><path d="M2640.5 331C2554.62 331 2485 400.396 2485 486 2485 571.604 2554.62 641 2640.5 641 2726.38 641 2796 571.604 2796 486 2796 400.396 2726.38 331 2640.5 331Z" fill="#FFFFFF" fill-rule="evenodd"/><path d="M2540 347 2540 347C2543.98 347 2547.79 348.589 2550.61 351.417 2553.42 354.245 2555 358.08 2555 362.079L2555 615.921C2555 619.92 2553.42 623.755 2550.61 626.583 2547.79 629.411 2543.98 631 2540 631L2540 631C2536.02 631 2532.21 629.411 2529.39 626.583 2526.58 623.755 2525 619.92 2525 615.921L2525 362.079C2525 358.08 2526.58 354.245 2529.39 351.417 2532.21 348.589 2536.02 347 2540 347Z" fill="#478CEA" fill-rule="evenodd"/><path d="M2606.5 321 2606.5 321C2610.88 321 2615.07 322.718 2618.17 325.776 2621.26 328.835 2623 332.983 2623 337.308L2623 640.692C2623 645.017 2621.26 649.165 2618.17 652.224 2615.07 655.282 2610.88 657 2606.5 657L2606.5 657C2602.12 657 2597.93 655.282 2594.83 652.224 2591.74 649.165 2590 645.017 2590 640.692L2590 337.308C2590 332.983 2591.74 328.835 2594.83 325.776 2597.93 322.718 2602.12 321 2606.5 321Z" fill="#478CEA" fill-rule="evenodd"/><path d="M2672.5 321 2672.5 321C2676.88 321 2681.07 322.703 2684.17 325.735 2687.26 328.767 2689 332.879 2689 337.166L2689 640.834C2689 649.762 2681.61 657 2672.5 657L2672.5 657C2663.39 657 2656 649.762 2656 640.834L2656 337.166C2656 328.237 2663.39 321 2672.5 321Z" fill="#478CEA" fill-rule="evenodd"/><path d="M2737 347 2737 347C2744.18 347 2750 352.863 2750 360.096L2750 617.904C2750 621.378 2748.63 624.708 2746.19 627.165 2743.75 629.62 2740.45 631 2737 631L2737 631C2733.55 631 2730.25 629.62 2727.81 627.165 2725.37 624.708 2724 621.378 2724 617.904L2724 360.096C2724 356.622 2725.37 353.292 2727.81 350.835 2730.25 348.38 2733.55 347 2737 347Z" fill="#478CEA" fill-rule="evenodd"/><path d="M2622 765 2622 765C2622 757.043 2625.17 749.412 2630.81 743.787 2636.45 738.161 2644.1 735 2652.07 735L2752.93 735C2769.54 735 2783 748.431 2783 765L2783 765C2783 781.569 2769.54 795 2752.93 795L2652.07 795C2635.46 795 2622 781.569 2622 765Z" fill="#478CEA" fill-rule="evenodd"/><path d="M2622 845 2622 845C2622 837.043 2625.17 829.412 2630.81 823.787 2636.45 818.161 2644.1 815 2652.07 815L2752.93 815C2769.54 815 2783 828.431 2783 845L2783 845C2783 861.569 2769.54 875 2752.93 875L2652.07 875C2635.46 875 2622 861.569 2622 845Z" fill="#478CEA" fill-rule="evenodd"/></g></svg>