<svg width="550" height="433" xmlns="http://www.w3.org/2000/svg" xmlns:xlink="http://www.w3.org/1999/xlink" overflow="hidden"><defs><clipPath id="clip0"><rect x="2558" y="1885" width="550" height="433"/></clipPath></defs><g clip-path="url(#clip0)" transform="translate(-2558 -1885)"><path d="M218.304 30.8713 226.723 31.2722 233.138 33.2768 239.553 36.4842C251.1 44.4493 261.591 53.4701 271.026 63.5467 270.839 64.1615 271.039 64.3619 271.627 64.1481L281.45 73.9708 281.45 74.5722 282.653 75.1736 290.471 83.7935 302.899 79.3833 311.319 77.3787 314.125 76.1759 324.549 74.1713 329.761 72.5676 339.384 71.3648 347.001 69.7611 353.015 69.3602 353.416 68.9592 357.826 68.9592 358.227 68.5583 362.236 68.5583 362.637 68.1574 370.656 68.1574 371.057 67.7564 384.287 67.7564 384.688 68.1574 392.707 68.1574 393.108 68.5583 405.536 69.3602 405.937 69.7611 408.744 69.7611 411.149 70.5629 413.555 70.5629 415.96 71.3648 425.583 72.5676 430.795 74.1713 441.219 76.1759 465.475 83.7935 468.682 79.5838 483.717 64.1481C484.332 64.3619 484.532 64.1615 484.318 63.5467L491.134 57.1319C490.947 56.5439 491.147 56.3434 491.735 56.5305 499.353 48.6457 507.906 41.6963 517.395 35.6824L522.206 33.2768 528.621 31.2722 537.04 30.8713 541.851 32.0741 547.063 34.4796 551.674 38.2884 555.282 42.6986 559.291 50.3162 563.702 65.1504 564.904 73.1689 567.31 83.593 568.513 94.418 570.116 102.437 570.918 112.059 571.72 115.667 571.72 119.275 572.121 119.676 572.923 128.497 573.324 128.898 574.527 144.935 575.328 148.944 575.328 152.953 576.13 156.161 577.734 172.198 578.135 174.202 579.739 176.608 585.753 190.239 588.559 197.456 588.559 198.659 589.762 200.262 594.573 214.295 594.573 215.498 595.375 216.7 599.785 233.138 600.587 239.152 602.19 245.166 602.992 253.986 603.393 254.387 603.794 263.609 604.195 264.01 604.195 280.047 603.794 280.448 603.794 285.259 603.393 285.66 602.992 292.475 601.389 300.895 596.978 316.531 592.969 326.554 588.96 334.573 582.946 344.596 570.116 361.234 568.513 362.236 562.699 368.451 561.296 369.453C561.51 370.068 561.309 370.268 560.695 370.054L547.865 380.879 529.823 392.506 510.579 402.129 494.141 408.543 488.127 410.147 482.113 412.553 458.859 418.566 440.016 422.175 434.403 422.576 431.196 423.378 427.988 423.378 421.974 424.58 409.546 425.382 409.145 425.783 393.91 426.184 393.509 426.585 362.236 426.585 361.835 426.184 353.416 426.184 353.015 425.783 346.199 425.783 345.798 425.382 341.789 425.382 341.388 424.981 336.978 424.981 336.577 424.58 330.162 424.179 329.761 423.779 324.148 423.378 318.135 422.175 315.328 422.175 312.923 421.373 310.918 421.373 304.503 419.769 298.489 418.967 283.254 415.359 282.051 414.557 280.448 414.557 276.037 412.953 273.231 412.553 267.217 410.147 261.203 408.543 239.553 399.723 220.71 389.7 205.474 379.276 190.44 366.246C190.654 365.658 190.453 365.457 189.838 365.644 176.661 352.895 166.438 337.192 159.168 318.535L155.559 307.31 152.753 294.48 152.753 292.074 151.951 288.867 151.951 284.858 151.55 284.457 151.55 279.646 151.149 279.245 151.149 265.212 151.55 264.811 151.55 259.599 151.951 259.198 151.951 254.788 152.352 254.387 152.753 248.373 156.361 229.931 157.965 225.521 159.168 219.507 163.177 207.078 165.181 202.668 165.181 201.465 166.785 198.659 166.785 197.456 172.398 183.824 177.209 174.202 178.011 170.193 178.813 160.17 179.214 159.769 179.214 156.561 180.016 155.359 179.615 153.354 180.016 152.953 180.016 149.345 180.818 145.736 180.818 141.326 181.619 137.317 182.421 126.091 183.223 124.487 183.223 120.077 183.624 119.676 185.228 102.837 186.831 95.2199 186.831 92.4134 187.232 92.0125 188.836 79.5838 191.242 69.1597 191.242 67.1551 192.845 62.344 194.048 55.9291 196.454 49.5143 198.859 44.7032 204.472 37.2861 210.686 33.2768 218.304 30.8713ZM219.707 46.9083 216.901 48.1111 212.491 52.9222 210.085 58.5352C210.62 59.8716 210.352 60.4061 209.283 60.1389L205.675 76.1759 204.472 85.3972 202.868 92.2129 202.467 97.4249 202.067 97.8259 202.067 101.033 201.265 103.84 200.062 115.066 199.661 115.467 199.26 122.683 198.458 126.292 198.458 130.301 197.656 133.909 197.656 137.518 196.855 140.725 196.454 147.541 196.053 147.942 196.053 152.352 195.652 152.753 194.85 163.979 194.449 164.38 194.449 167.186 194.048 167.587 194.048 169.993 192.444 179.214 186.43 191.643 179.615 208.882C179.882 209.951 179.615 210.352 178.813 210.085L178.813 211.689 174.002 225.721 171.997 234.942 170.794 238.15 168.79 249.376 168.79 251.781 168.389 252.182 168.389 255.791 167.587 258.998 167.587 262.606 167.186 263.007 167.186 268.219 166.785 268.62 167.587 288.266 169.993 300.694 176.407 319.137 183.223 332.367 184.426 332.768 184.827 334.773 188.034 339.584 195.652 349.206C205.274 359.898 216.634 368.985 229.73 376.469 231.067 375.935 231.601 376.202 231.334 377.271L236.947 380.479 252.583 388.096 268.219 394.11 273.03 395.313 274.233 396.115 276.238 396.115 279.445 397.718 286.662 399.322 290.671 400.926 296.284 401.728 307.109 404.534 318.736 406.138 323.547 407.341 329.561 407.741 329.962 408.142 341.589 408.944 345.598 409.746 355.621 410.147 356.022 410.548 371.257 410.548 371.658 410.949 376.87 410.949 377.271 410.548 378.875 410.949 380.078 410.548 381.28 410.949C382.884 411.483 383.953 411.35 384.488 410.548L399.723 410.548 400.124 410.147 410.147 409.746 414.156 408.944 418.566 408.944 422.175 408.142 425.783 408.142 426.184 407.741 435.004 406.94C439.014 405.603 443.558 404.801 448.636 404.534L461.466 401.327 465.074 400.926 475.097 397.718 477.903 397.317 483.516 394.912 487.526 394.11 503.162 388.096 516.793 381.681 525.614 376.469C526.148 376.737 526.282 376.469 526.015 375.667L528.019 375.266 533.632 371.658 549.268 359.63C555.683 354.017 561.43 347.736 566.508 340.787L572.121 332.768 572.121 331.566C574.794 328.091 576.932 324.349 578.536 320.34L582.144 311.118 585.352 299.892 586.554 293.879 586.554 291.473 587.356 290.27 587.757 283.454 588.158 283.054 588.158 275.035 588.559 274.634 588.158 261.003C587.356 260.468 587.223 259.399 587.757 257.795L586.955 256.592 587.356 255.39 584.55 237.749 579.338 218.905 571.72 198.057 562.9 178.813 561.697 171.997 561.697 169.191 560.895 166.785 559.692 151.951 559.291 151.55 559.291 147.541 558.89 147.14 558.89 143.531 558.089 140.324 558.49 138.72 557.688 137.117 556.485 121.881 556.084 121.48 555.683 115.066 554.079 106.245 553.278 97.8259 552.877 97.4249 552.877 94.6185 549.268 73.7703 545.259 58.1342 542.453 52.1203 540.448 49.7148C539.379 48.1111 537.909 47.1756 536.038 46.9083L532.429 46.9083 528.019 48.1111 521.203 52.1203C512.383 58.8024 504.097 66.1527 496.346 74.1713 496.613 74.9731 496.346 75.2404 495.544 74.9731 487.526 82.1898 480.175 90.0746 473.493 98.6277L471.088 100.231 463.47 100.231 455.452 97.024 442.622 93.0148 431.797 90.2083 427.387 89.8074 425.783 89.0055 420.571 88.2037 419.769 88.2037 416.963 87.0009 410.949 86.6 407.741 85.7981 401.728 85.3972 401.327 84.9963 397.718 84.9963 394.912 84.1944 388.898 84.1944 388.497 83.7935 367.248 83.7935 366.847 84.1944 360.833 84.1944 358.027 84.9963 354.418 84.9963 351.211 85.7981 341.99 86.6 340.386 87.4018 339.183 87.0009 337.179 87.8027 331.966 88.6046 330.363 89.4064 323.948 90.2083 316.33 92.6138 310.316 93.8166 306.708 95.4203 300.293 97.024 289.468 101.434 287.464 101.434 283.855 99.8305 261.404 76.1759C260.602 76.4432 260.334 76.3095 260.602 75.775 252.583 67.2219 243.896 59.337 234.542 52.1203L227.726 48.1111 223.316 46.9083 219.707 46.9083Z" stroke="#000000" stroke-width="20.619" transform="matrix(1.00028 0 0 1 2448.01 1885)"/><path d="M2679.5 2106.33C2679.5 2094.83 2688.83 2085.5 2700.33 2085.5L2947.67 2085.5C2959.17 2085.5 2968.5 2094.83 2968.5 2106.33L2968.5 2189.67C2968.5 2201.17 2959.17 2210.5 2947.67 2210.5L2700.33 2210.5C2688.83 2210.5 2679.5 2201.17 2679.5 2189.67Z" stroke="#0049B0" stroke-width="9.16667" stroke-linejoin="round" stroke-miterlimit="10" fill="#0049B0" fill-rule="evenodd"/><text fill="#FFFFFF" font-family="Arial,Arial_MSFontService,sans-serif" font-weight="700" font-size="87" transform="matrix(1 0 0 1 2748.57 2173)">Bob</text></g></svg>