<svg width="570" height="678" xmlns="http://www.w3.org/2000/svg" xmlns:xlink="http://www.w3.org/1999/xlink" xml:space="preserve" overflow="hidden"><defs><clipPath id="clip0"><rect x="897" y="3253" width="570" height="678"/></clipPath></defs><g clip-path="url(#clip0)" transform="translate(-897 -3253)"><path d="M945 3858.82 945 3325.18C945 3306.03 952.599 3287.68 966.125 3274.14 979.653 3260.6 997.998 3253 1017.13 3253L1394.87 3253C1414 3253 1432.35 3260.6 1445.87 3274.14 1459.4 3287.68 1467 3306.03 1467 3325.18L1467 3858.82C1467 3877.97 1459.4 3896.32 1445.87 3909.86 1432.35 3923.4 1414 3931 1394.87 3931L1017.13 3931C997.998 3931 979.653 3923.4 966.125 3909.86 952.599 3896.32 945 3877.97 945 3858.82Z" fill="#FFFFFF" fill-rule="evenodd"/><path d="M1207.5 3289C1107.26 3289 1026 3370.26 1026 3470.5 1026 3570.74 1107.26 3652 1207.5 3652 1307.74 3652 1389 3570.74 1389 3470.5 1389 3370.26 1307.74 3289 1207.5 3289Z" fill="#FB7C94" fill-rule="evenodd"/><path d="M1207.5 3625 1207.5 3625C1227.11 3625 1243 3640.92 1243 3660.55L1243 3868.45C1243 3888.08 1227.11 3904 1207.5 3904L1207.5 3904C1187.89 3904 1172 3888.08 1172 3868.45L1172 3660.55C1172 3640.92 1187.89 3625 1207.5 3625Z" fill="#FB7C94" fill-rule="evenodd"/><path d="M1207.5 3315C1121.62 3315 1052 3384.62 1052 3470.5 1052 3556.38 1121.62 3626 1207.5 3626 1293.38 3626 1363 3556.38 1363 3470.5 1363 3384.62 1293.38 3315 1207.5 3315Z" fill="#FFFFFF" fill-rule="evenodd"/><path d="M1034.12 3441.45 1034.12 3441.45C1036.95 3438.62 1040.8 3437.02 1044.81 3437.02 1048.82 3437.02 1052.67 3438.61 1055.5 3441.45L1235.48 3621.43C1238.31 3624.26 1239.91 3628.11 1239.91 3632.12 1239.91 3636.13 1238.31 3639.98 1235.48 3642.81L1235.48 3642.81C1232.64 3645.65 1228.8 3647.24 1224.79 3647.24 1220.78 3647.24 1216.93 3645.65 1214.09 3642.81L1034.12 3462.83C1031.28 3460 1029.69 3456.15 1029.69 3452.14 1029.69 3448.13 1031.28 3444.29 1034.12 3441.45Z" fill="#FB7C94" fill-rule="evenodd"/><path d="M1063.44 3376.64 1063.44 3376.64C1066.49 3373.58 1070.63 3371.87 1074.95 3371.87 1079.27 3371.87 1083.41 3373.58 1086.47 3376.64L1300.67 3590.84C1303.73 3593.9 1305.44 3598.04 1305.44 3602.36 1305.44 3606.68 1303.73 3610.82 1300.67 3613.87L1300.67 3613.87C1297.62 3616.93 1293.48 3618.64 1289.16 3618.64 1284.84 3618.64 1280.7 3616.93 1277.64 3613.87L1063.44 3399.67C1060.38 3396.61 1058.67 3392.47 1058.67 3388.15 1058.67 3383.83 1060.38 3379.69 1063.44 3376.64Z" fill="#FB7C94" fill-rule="evenodd"/><path d="M1109.76 3329.6 1109.76 3329.6C1112.79 3326.57 1116.91 3324.86 1121.19 3324.86 1125.48 3324.86 1129.59 3326.57 1132.62 3329.6L1347.35 3544.33C1353.67 3550.64 1353.67 3560.88 1347.35 3567.19L1347.35 3567.19C1341.04 3573.5 1330.8 3573.5 1324.49 3567.19L1109.76 3352.46C1103.45 3346.15 1103.45 3335.91 1109.76 3329.6Z" fill="#FB7C94" fill-rule="evenodd"/><path d="M1173.52 3302.05 1173.52 3302.05C1178.64 3296.92 1186.96 3296.92 1192.09 3302.05L1374.88 3484.84C1377.34 3487.3 1378.72 3490.65 1378.72 3494.13 1378.72 3497.61 1377.34 3500.95 1374.88 3503.41L1374.88 3503.41C1372.41 3505.88 1369.07 3507.26 1365.59 3507.26 1362.11 3507.26 1358.77 3505.88 1356.31 3503.41L1173.52 3320.62C1171.05 3318.16 1169.67 3314.82 1169.67 3311.34 1169.67 3307.85 1171.05 3304.51 1173.52 3302.05Z" fill="#FB7C94" fill-rule="evenodd"/><path d="M1188 3749 1188 3749C1188 3741.04 1191.19 3733.41 1196.86 3727.79 1202.54 3722.16 1210.23 3719 1218.26 3719L1319.74 3719C1336.45 3719 1350 3732.43 1350 3749L1350 3749C1350 3765.57 1336.45 3779 1319.74 3779L1218.26 3779C1201.55 3779 1188 3765.57 1188 3749Z" fill="#FB7C94" fill-rule="evenodd"/><path d="M1188 3829 1188 3829C1188 3821.04 1191.19 3813.41 1196.86 3807.79 1202.54 3802.16 1210.23 3799 1218.26 3799L1319.74 3799C1336.45 3799 1350 3812.43 1350 3829L1350 3829C1350 3845.57 1336.45 3859 1319.74 3859L1218.26 3859C1201.55 3859 1188 3845.57 1188 3829Z" fill="#FB7C94" fill-rule="evenodd"/></g></svg>