<svg width="570" height="679" xmlns="http://www.w3.org/2000/svg" xmlns:xlink="http://www.w3.org/1999/xlink" xml:space="preserve" overflow="hidden"><defs><clipPath id="clip0"><rect x="3048" y="260" width="570" height="679"/></clipPath></defs><g clip-path="url(#clip0)" transform="translate(-3048 -260)"><path d="M3095 866.716 3095 332.283C3095 313.112 3102.61 294.727 3116.17 281.172 3129.72 267.615 3148.1 260 3167.27 260L3545.73 260C3564.9 260 3583.28 267.615 3596.83 281.172 3610.39 294.727 3618 313.112 3618 332.283L3618 866.716C3618 885.888 3610.39 904.272 3596.83 917.829 3583.28 931.385 3564.9 939 3545.73 939L3167.27 939C3148.1 939 3129.72 931.385 3116.17 917.829 3102.61 904.272 3095 885.888 3095 866.716Z" fill="#FFFFFF" fill-rule="evenodd"/><path d="M3358 296C3257.48 296 3176 377.26 3176 477.5 3176 577.74 3257.48 659 3358 659 3458.52 659 3540 577.74 3540 477.5 3540 377.26 3458.52 296 3358 296Z" fill="#5BA4CF" fill-rule="evenodd"/><path d="M3357.5 633 3357.5 633C3377.11 633 3393 648.858 3393 668.42L3393 875.58C3393 895.142 3377.11 911 3357.5 911L3357.5 911C3337.89 911 3322 895.142 3322 875.58L3322 668.42C3322 648.858 3337.89 633 3357.5 633Z" fill="#5BA4CF" fill-rule="evenodd"/><path d="M3357.5 322C3271.62 322 3202 391.62 3202 477.5 3202 563.38 3271.62 633 3357.5 633 3443.38 633 3513 563.38 3513 477.5 3513 391.62 3443.38 322 3357.5 322Z" fill="#FFFFFF" fill-rule="evenodd"/><path d="M3184.81 448.898 3184.81 448.898C3187.65 446.062 3191.49 444.469 3195.5 444.469 3199.51 444.469 3203.36 446.062 3206.19 448.897L3386.17 628.874C3389.01 631.71 3390.6 635.556 3390.6 639.566 3390.6 643.576 3389.01 647.423 3386.17 650.258L3386.17 650.258C3383.33 653.094 3379.49 654.687 3375.48 654.687 3371.47 654.687 3367.62 653.094 3364.79 650.258L3184.81 470.281C3181.97 467.445 3180.38 463.6 3180.38 459.589 3180.38 455.579 3181.97 451.734 3184.81 448.898Z" fill="#5BA4CF" fill-rule="evenodd"/><path d="M3214.13 384.084 3214.13 384.084C3217.18 381.031 3221.32 379.315 3225.64 379.315 3229.96 379.315 3234.1 381.031 3237.16 384.084L3451.36 598.291C3454.42 601.345 3456.13 605.486 3456.13 609.805 3456.13 614.124 3454.42 618.265 3451.36 621.319L3451.36 621.319C3448.31 624.373 3444.17 626.088 3439.85 626.088 3435.53 626.088 3431.39 624.373 3428.34 621.319L3214.13 407.112C3211.08 404.059 3209.36 399.917 3209.36 395.598 3209.36 391.28 3211.08 387.138 3214.13 384.084Z" fill="#5BA4CF" fill-rule="evenodd"/><path d="M3260.45 337.045 3260.45 337.045C3263.49 334.013 3267.6 332.309 3271.89 332.31 3276.17 332.309 3280.28 334.013 3283.32 337.045L3498.05 551.774C3504.36 558.087 3504.36 568.323 3498.05 574.636L3498.05 574.636C3491.73 580.95 3481.5 580.949 3475.18 574.636L3260.45 359.907C3254.14 353.593 3254.14 343.358 3260.45 337.045Z" fill="#5BA4CF" fill-rule="evenodd"/><path d="M3324.21 309.499 3324.21 309.499C3329.34 304.371 3337.65 304.371 3342.78 309.499L3525.57 492.289C3528.03 494.752 3529.41 498.092 3529.42 501.574 3529.41 505.056 3528.03 508.397 3525.57 510.859L3525.57 510.859C3523.11 513.322 3519.77 514.705 3516.28 514.706 3512.8 514.705 3509.46 513.322 3507 510.859L3324.21 328.069C3321.75 325.607 3320.36 322.266 3320.36 318.784 3320.36 315.302 3321.75 311.962 3324.21 309.499Z" fill="#5BA4CF" fill-rule="evenodd"/><path d="M3339 756.5 3339 756.5C3339 748.41 3342.19 740.653 3347.86 734.933 3353.54 729.214 3361.23 726 3369.26 726L3470.74 726C3487.45 726 3501 739.655 3501 756.5L3501 756.5C3501 773.345 3487.45 787 3470.74 787L3369.26 787C3352.55 787 3339 773.345 3339 756.5Z" fill="#5BA4CF" fill-rule="evenodd"/><path d="M3339 836.5 3339 836.5C3339 828.41 3342.19 820.653 3347.86 814.933 3353.54 809.214 3361.23 806 3369.26 806L3470.74 806C3487.45 806 3501 819.655 3501 836.5L3501 836.5C3501 853.345 3487.45 867 3470.74 867L3369.26 867C3352.55 867 3339 853.345 3339 836.5Z" fill="#5BA4CF" fill-rule="evenodd"/></g></svg>