<svg width="3072" height="2402" xmlns="http://www.w3.org/2000/svg" xmlns:xlink="http://www.w3.org/1999/xlink" xml:space="preserve" overflow="hidden"><g transform="translate(-3173 -441)"><path d="M4681.5 1514C4445.95 1514 4255 1704.73 4255 1940 4255 2175.27 4445.95 2366 4681.5 2366 4917.05 2366 5108 2175.27 5108 1940 5108 1704.73 4917.05 1514 4681.5 1514Z" fill="#C00000" fill-rule="evenodd"/><text fill="#FFFFFF" font-family="Calibri,Calibri_MSFontService,sans-serif" font-weight="700" font-size="738" transform="matrix(1 0 0 1 4505.25 2205)">Z</text><path d="M3886 1940.5C3886 1591.18 4243.72 1308 4685 1308 5126.28 1308 5484 1591.18 5484 1940.5 5484 2289.82 5126.28 2573 4685 2573 4243.72 2573 3886 2289.82 3886 1940.5Z" stroke="#000000" stroke-width="123.75" stroke-linejoin="round" stroke-miterlimit="10" fill="none" fill-rule="evenodd"/><text font-family="Calibri,Calibri_MSFontService,sans-serif" font-weight="700" font-size="633" transform="matrix(0.828078 -0.560612 0.560612 0.828078 4298.33 1396)">I</text><text font-family="Calibri,Calibri_MSFontService,sans-serif" font-weight="700" font-size="633" transform="matrix(1 0 0 1 4574.45 1292)">I</text><text font-family="Calibri,Calibri_MSFontService,sans-serif" font-weight="700" font-size="633" transform="matrix(0.784012 0.620745 -0.620745 0.784012 4952.45 1294)">I</text><text font-family="Calibri,Calibri_MSFontService,sans-serif" font-weight="700" font-size="633" transform="matrix(0.586853 -0.809694 0.809694 0.586853 4029.59 1579)">I</text><text font-family="Calibri,Calibri_MSFontService,sans-serif" font-weight="700" font-size="633" transform="matrix(0.544129 0.839001 -0.839001 0.544129 5290.19 1506)">I</text></g></svg>