<svg width="3071" height="2402" xmlns="http://www.w3.org/2000/svg" xmlns:xlink="http://www.w3.org/1999/xlink" xml:space="preserve" overflow="hidden"><g transform="translate(-166 -380)"><path d="M1674 1452C1438.73 1452 1248 1642.95 1248 1878.5 1248 2114.05 1438.73 2305 1674 2305 1909.27 2305 2100 2114.05 2100 1878.5 2100 1642.95 1909.27 1452 1674 1452Z" fill="#C00000" fill-rule="evenodd"/><text fill="#FFFFFF" font-family="Calibri,Calibri_MSFontService,sans-serif" font-weight="700" font-size="738" transform="matrix(1 0 0 1 1470.86 2143)">X</text><path d="M878 1878.5C878 1529.18 1235.95 1246 1677.5 1246 2119.05 1246 2477 1529.18 2477 1878.5 2477 2227.82 2119.05 2511 1677.5 2511 1235.95 2511 878 2227.82 878 1878.5Z" stroke="#000000" stroke-width="123.75" stroke-linejoin="round" stroke-miterlimit="10" fill="none" fill-rule="evenodd"/><text font-family="Calibri,Calibri_MSFontService,sans-serif" font-weight="700" font-size="633" transform="matrix(0.828078 -0.560612 0.560612 0.828078 1290.58 1335)">I</text><text font-family="Calibri,Calibri_MSFontService,sans-serif" font-weight="700" font-size="633" transform="matrix(1 0 0 1 1566.7 1231)">I</text><text font-family="Calibri,Calibri_MSFontService,sans-serif" font-weight="700" font-size="633" transform="matrix(0.784012 0.620745 -0.620745 0.784012 1944.7 1232)">I</text><text font-family="Calibri,Calibri_MSFontService,sans-serif" font-weight="700" font-size="633" transform="matrix(0.586853 -0.809694 0.809694 0.586853 1021.84 1517)">I</text><text font-family="Calibri,Calibri_MSFontService,sans-serif" font-weight="700" font-size="633" transform="matrix(0.544129 0.839001 -0.839001 0.544129 2282.44 1444)">I</text></g></svg>