<svg width="570" height="678" xmlns="http://www.w3.org/2000/svg" xmlns:xlink="http://www.w3.org/1999/xlink" overflow="hidden"><defs><clipPath id="clip0"><rect x="3443" y="1622" width="570" height="678"/></clipPath></defs><g clip-path="url(#clip0)" transform="translate(-3443 -1622)"><path d="M3490 2227.82 3490 1694.18C3490 1675.03 3497.61 1656.68 3511.17 1643.14 3524.72 1629.6 3543.1 1622 3562.27 1622L3940.73 1622C3959.9 1622 3978.28 1629.6 3991.83 1643.14 4005.39 1656.68 4013 1675.03 4013 1694.18L4013 2227.82C4013 2246.97 4005.39 2265.32 3991.83 2278.86 3978.28 2292.4 3959.9 2300 3940.73 2300L3562.27 2300C3543.1 2300 3524.72 2292.4 3511.17 2278.86 3497.61 2265.32 3490 2246.97 3490 2227.82Z" fill="#FFFFFF" fill-rule="evenodd"/><path d="M3752.5 1653C3652.26 1653 3571 1734.26 3571 1834.5 3571 1934.74 3652.26 2016 3752.5 2016 3852.74 2016 3934 1934.74 3934 1834.5 3934 1734.26 3852.74 1653 3752.5 1653Z" fill="#B4B4B4" fill-rule="evenodd"/><path d="M3752.5 1990 3752.5 1990C3772.11 1990 3788 2005.92 3788 2025.55L3788 2233.45C3788 2253.08 3772.11 2269 3752.5 2269L3752.5 2269C3732.89 2269 3717 2253.08 3717 2233.45L3717 2025.55C3717 2005.92 3732.89 1990 3752.5 1990Z" fill="#B4B4B4" fill-rule="evenodd"/><path d="M3752.5 1679C3666.62 1679 3597 1748.62 3597 1834.5 3597 1920.38 3666.62 1990 3752.5 1990 3838.38 1990 3908 1920.38 3908 1834.5 3908 1748.62 3838.38 1679 3752.5 1679Z" fill="#FFFFFF" fill-rule="evenodd"/><path d="M3579.46 1806.01 3579.46 1806.01C3582.3 1803.17 3586.14 1801.58 3590.15 1801.58 3594.16 1801.58 3598.01 1803.17 3600.85 1806.01L3780.82 1985.98C3783.66 1988.82 3785.25 1992.67 3785.25 1996.68 3785.25 2000.69 3783.66 2004.53 3780.82 2007.37L3780.82 2007.37C3777.99 2010.2 3774.14 2011.8 3770.13 2011.8 3766.12 2011.8 3762.27 2010.2 3759.44 2007.37L3579.46 1827.39C3576.63 1824.56 3575.03 1820.71 3575.03 1816.7 3575.03 1812.69 3576.63 1808.84 3579.46 1806.01Z" fill="#B4B4B4" fill-rule="evenodd"/><path d="M3608.78 1741.19 3608.78 1741.19C3611.84 1738.14 3615.98 1736.42 3620.3 1736.42 3624.61 1736.42 3628.76 1738.14 3631.81 1741.19L3846.02 1955.4C3849.07 1958.45 3850.79 1962.6 3850.79 1966.91 3850.79 1971.23 3849.07 1975.38 3846.02 1978.43L3846.02 1978.43C3842.96 1981.48 3838.82 1983.2 3834.5 1983.2 3830.18 1983.2 3826.04 1981.48 3822.99 1978.43L3608.78 1764.22C3605.73 1761.17 3604.01 1757.03 3604.01 1752.71 3604.01 1748.39 3605.73 1744.25 3608.78 1741.19Z" fill="#B4B4B4" fill-rule="evenodd"/><path d="M3655.11 1694.15 3655.11 1694.15C3658.14 1691.12 3662.25 1689.42 3666.54 1689.42 3670.83 1689.42 3674.94 1691.12 3677.97 1694.15L3892.7 1908.88C3899.01 1915.2 3899.01 1925.43 3892.7 1931.75L3892.7 1931.75C3886.38 1938.06 3876.15 1938.06 3869.84 1931.75L3655.11 1717.02C3648.79 1710.7 3648.79 1700.47 3655.11 1694.15Z" fill="#B4B4B4" fill-rule="evenodd"/><path d="M3718.86 1666.61 3718.86 1666.61C3723.99 1661.48 3732.3 1661.48 3737.43 1666.61L3920.22 1849.4C3922.68 1851.86 3924.07 1855.2 3924.07 1858.68 3924.07 1862.17 3922.68 1865.51 3920.22 1867.97L3920.22 1867.97C3917.76 1870.43 3914.42 1871.81 3910.94 1871.82 3907.45 1871.81 3904.11 1870.43 3901.65 1867.97L3718.86 1685.18C3716.4 1682.72 3715.02 1679.38 3715.01 1675.89 3715.02 1672.41 3716.4 1669.07 3718.86 1666.61Z" fill="#B4B4B4" fill-rule="evenodd"/><path d="M3733 2113.5 3733 2113.5C3733 2105.41 3736.19 2097.65 3741.86 2091.93 3747.54 2086.21 3755.23 2083 3763.26 2083L3864.74 2083C3881.45 2083 3895 2096.66 3895 2113.5L3895 2113.5C3895 2130.35 3881.45 2144 3864.74 2144L3763.26 2144C3746.55 2144 3733 2130.35 3733 2113.5Z" fill="#B4B4B4" fill-rule="evenodd"/><path d="M3733 2194 3733 2194C3733 2186.04 3736.19 2178.41 3741.86 2172.79 3747.54 2167.16 3755.23 2164 3763.26 2164L3864.74 2164C3881.45 2164 3895 2177.43 3895 2194L3895 2194C3895 2210.57 3881.45 2224 3864.74 2224L3763.26 2224C3746.55 2224 3733 2210.57 3733 2194Z" fill="#B4B4B4" fill-rule="evenodd"/></g></svg>