<svg width="571" height="678" xmlns="http://www.w3.org/2000/svg" xmlns:xlink="http://www.w3.org/1999/xlink" overflow="hidden"><defs><clipPath id="clip0"><rect x="2300" y="1622" width="571" height="678"/></clipPath></defs><g clip-path="url(#clip0)" transform="translate(-2300 -1622)"><path d="M2348 2227.82 2348 1694.18C2348 1675.03 2355.61 1656.68 2369.17 1643.14 2382.72 1629.6 2401.1 1622 2420.27 1622L2798.73 1622C2817.9 1622 2836.28 1629.6 2849.83 1643.14 2863.39 1656.68 2871 1675.03 2871 1694.18L2871 2227.82C2871 2246.97 2863.39 2265.32 2849.83 2278.86 2836.28 2292.4 2817.9 2300 2798.73 2300L2420.27 2300C2401.1 2300 2382.72 2292.4 2369.17 2278.86 2355.61 2265.32 2348 2246.97 2348 2227.82Z" fill="#FFFFFF" fill-rule="evenodd"/><path d="M2609.5 1653C2509.26 1653 2428 1734.26 2428 1834.5 2428 1934.74 2509.26 2016 2609.5 2016 2709.74 2016 2791 1934.74 2791 1834.5 2791 1734.26 2709.74 1653 2609.5 1653Z" fill="#B4B4B4" fill-rule="evenodd"/><path d="M2609.5 1990 2609.5 1990C2629.11 1990 2645 2005.92 2645 2025.55L2645 2233.45C2645 2253.08 2629.11 2269 2609.5 2269L2609.5 2269C2589.89 2269 2574 2253.08 2574 2233.45L2574 2025.55C2574 2005.92 2589.89 1990 2609.5 1990Z" fill="#B4B4B4" fill-rule="evenodd"/><path d="M2609.5 1679C2523.62 1679 2454 1748.62 2454 1834.5 2454 1920.38 2523.62 1990 2609.5 1990 2695.38 1990 2765 1920.38 2765 1834.5 2765 1748.62 2695.38 1679 2609.5 1679Z" fill="#FFFFFF" fill-rule="evenodd"/><path d="M2508 1695 2508 1695C2511.98 1695 2515.79 1696.59 2518.61 1699.43 2521.42 1702.27 2523 1706.12 2523 1710.13L2523 1964.87C2523 1968.88 2521.42 1972.73 2518.61 1975.57 2515.79 1978.41 2511.98 1980 2508 1980L2508 1980C2504.02 1980 2500.21 1978.41 2497.39 1975.57 2494.58 1972.73 2493 1968.88 2493 1964.87L2493 1710.13C2493 1706.12 2494.58 1702.27 2497.39 1699.43 2500.21 1696.59 2504.02 1695 2508 1695Z" fill="#B4B4B4" fill-rule="evenodd"/><path d="M2575 1670 2575 1670C2579.24 1670 2583.31 1671.72 2586.31 1674.78 2589.31 1677.83 2591 1681.98 2591 1686.31L2591 1989.69C2591 1994.02 2589.31 1998.17 2586.31 2001.22 2583.31 2004.28 2579.24 2006 2575 2006L2575 2006C2570.76 2006 2566.69 2004.28 2563.69 2001.22 2560.69 1998.17 2559 1994.02 2559 1989.69L2559 1686.31C2559 1681.98 2560.69 1677.83 2563.69 1674.78 2566.69 1671.72 2570.76 1670 2575 1670Z" fill="#B4B4B4" fill-rule="evenodd"/><path d="M2641 1670 2641 1670C2645.24 1670 2649.31 1671.7 2652.31 1674.74 2655.31 1677.77 2657 1681.88 2657 1686.17L2657 1989.83C2657 1998.76 2649.84 2006 2641 2006L2641 2006C2632.16 2006 2625 1998.76 2625 1989.83L2625 1686.17C2625 1677.24 2632.16 1670 2641 1670Z" fill="#B4B4B4" fill-rule="evenodd"/><path d="M2705.5 1695 2705.5 1695C2712.96 1695 2719 1700.88 2719 1708.14L2719 1966.86C2719 1970.34 2717.58 1973.69 2715.05 1976.15 2712.51 1978.61 2709.08 1980 2705.5 1980L2705.5 1980C2701.92 1980 2698.49 1978.61 2695.95 1976.15 2693.42 1973.69 2692 1970.34 2692 1966.86L2692 1708.14C2692 1704.66 2693.42 1701.31 2695.95 1698.85 2698.49 1696.39 2701.92 1695 2705.5 1695Z" fill="#B4B4B4" fill-rule="evenodd"/><path d="M2590 2113.5 2590 2113.5C2590 2105.41 2593.19 2097.65 2598.86 2091.93 2604.54 2086.21 2612.23 2083 2620.26 2083L2721.74 2083C2738.45 2083 2752 2096.66 2752 2113.5L2752 2113.5C2752 2130.35 2738.45 2144 2721.74 2144L2620.26 2144C2603.55 2144 2590 2130.35 2590 2113.5Z" fill="#B4B4B4" fill-rule="evenodd"/><path d="M2590 2194 2590 2194C2590 2186.04 2593.19 2178.41 2598.86 2172.79 2604.54 2167.16 2612.23 2164 2620.26 2164L2721.74 2164C2738.45 2164 2752 2177.43 2752 2194L2752 2194C2752 2210.57 2738.45 2224 2721.74 2224L2620.26 2224C2603.55 2224 2590 2210.57 2590 2194Z" fill="#B4B4B4" fill-rule="evenodd"/></g></svg>