<?xml version="1.0" standalone="no"?>
<!DOCTYPE svg PUBLIC "-//W3C//DTD SVG 20010904//EN"
 "http://www.w3.org/TR/2001/REC-SVG-20010904/DTD/svg10.dtd">
<svg version="1.0" xmlns="http://www.w3.org/2000/svg"
 width="389.000000pt" height="341.000000pt" viewBox="0 0 389.000000 341.000000"
 preserveAspectRatio="xMidYMid meet">
<metadata>
Created by potrace 1.16, written by Peter Selinger 2001-2019
</metadata>
<g transform="translate(0.000000,341.000000) scale(0.100000,-0.100000)"
fill="#000000" stroke="none">
<path d="M1752 3095 c-85 -26 -149 -88 -187 -177 -13 -32 -15 -107 -15 -518 0
-378 -3 -480 -12 -479 -7 0 -72 30 -145 67 l-132 67 39 58 c126 187 99 425
-65 575 -138 126 -325 154 -493 75 -75 -35 -170 -131 -206 -208 -76 -160 -49
-356 65 -479 23 -26 40 -48 38 -50 -2 -1 -25 -17 -51 -34 -109 -74 -204 -219
-233 -357 -21 -98 -21 -442 0 -512 21 -71 66 -128 130 -164 l55 -31 0 -269 c0
-296 3 -316 58 -338 20 -8 121 -11 356 -9 l328 3 24 28 24 28 0 540 c0 330 4
539 9 539 6 0 85 -37 177 -82 160 -79 170 -83 233 -82 88 1 164 40 206 107
l17 27 164 0 c130 0 164 -3 164 -13 0 -8 -79 -230 -175 -494 -96 -265 -175
-494 -175 -511 0 -86 117 -121 164 -49 9 12 101 257 205 542 l189 520 31 3
c26 3 33 -1 42 -25 6 -15 66 -179 134 -363 274 -746 255 -702 311 -716 38 -10
88 18 104 57 16 38 31 -7 -204 631 -80 218 -146 401 -146 407 0 6 97 11 278
13 261 3 279 4 317 25 55 29 114 90 139 143 21 44 21 54 21 675 l0 630 -27 50
c-31 60 -77 104 -138 136 l-45 24 -765 2 c-623 2 -773 -1 -808 -12z m1543
-187 c56 -25 55 -17 55 -650 0 -523 -2 -586 -16 -607 -36 -51 -37 -51 -709
-51 -413 0 -625 3 -625 10 0 6 52 114 115 240 122 244 132 276 95 322 -24 32
-65 40 -107 23 -28 -12 -45 -38 -138 -224 -58 -116 -107 -211 -110 -211 -3 0
-32 14 -65 30 l-60 30 0 506 c0 428 2 509 15 534 33 63 -12 60 792 60 546 0
739 -3 758 -12z m-2272 -304 c51 -17 117 -75 143 -126 26 -50 30 -149 9 -204
-84 -221 -404 -218 -480 5 -28 83 -17 161 34 232 66 94 183 131 294 93z m77
-694 c25 -6 193 -83 373 -172 349 -173 354 -177 329 -233 -24 -53 -49 -46
-299 78 -254 127 -281 135 -330 93 l-28 -24 -3 -576 -3 -576 -204 0 -204 0 -3
275 c-3 314 -2 309 -94 326 -35 6 -57 18 -77 40 l-28 31 3 222 3 222 33 67
c56 113 148 189 270 222 56 16 200 18 262 5z"/>
<path d="M2004 2700 c-59 -24 -72 -104 -25 -151 l29 -29 526 0 c386 0 532 3
551 12 27 12 55 54 55 83 0 29 -28 71 -55 83 -31 14 -1046 16 -1081 2z"/>
<path d="M2503 2346 c-61 -27 -72 -98 -24 -147 l29 -29 282 0 c174 0 289 4
301 10 22 12 49 61 49 89 0 12 -13 35 -29 53 l-29 33 -274 2 c-216 2 -280 0
-305 -11z"/>
<path d="M2515 2000 c-68 -21 -87 -100 -36 -151 l29 -29 286 0 285 0 28 24
c39 34 39 95 0 133 l-27 28 -268 2 c-147 1 -280 -2 -297 -7z"/>
</g>
</svg>
