<svg width="570" height="678" xmlns="http://www.w3.org/2000/svg" xmlns:xlink="http://www.w3.org/1999/xlink" xml:space="preserve" overflow="hidden"><defs><clipPath id="clip0"><rect x="636" y="1658" width="570" height="678"/></clipPath></defs><g clip-path="url(#clip0)" transform="translate(-636 -1658)"><path d="M683 2263.82 683 1730.18C683 1711.03 690.614 1692.68 704.166 1679.14 717.719 1665.6 736.1 1658 755.267 1658L1133.73 1658C1152.9 1658 1171.28 1665.6 1184.83 1679.14 1198.39 1692.68 1206 1711.03 1206 1730.18L1206 2263.82C1206 2282.97 1198.39 2301.32 1184.83 2314.86 1171.28 2328.4 1152.9 2336 1133.73 2336L755.267 2336C736.1 2336 717.719 2328.4 704.166 2314.86 690.614 2301.32 683 2282.97 683 2263.82Z" fill="#FFFFFF" fill-rule="evenodd"/><path d="M945.5 1694C845.26 1694 764 1775.26 764 1875.5 764 1975.74 845.26 2057 945.5 2057 1045.74 2057 1127 1975.74 1127 1875.5 1127 1775.26 1045.74 1694 945.5 1694Z" fill="#FF4D4D" fill-rule="evenodd"/><path d="M945.5 2030 945.5 2030C965.106 2030 981 2045.92 981 2065.55L981 2273.45C981 2293.08 965.106 2309 945.5 2309L945.5 2309C925.894 2309 910 2293.08 910 2273.45L910 2065.55C910 2045.92 925.894 2030 945.5 2030Z" fill="#FF4D4D" fill-rule="evenodd"/><path d="M945.5 1720C859.62 1720 790 1789.62 790 1875.5 790 1961.38 859.62 2031 945.5 2031 1031.38 2031 1101 1961.38 1101 1875.5 1101 1789.62 1031.38 1720 945.5 1720Z" fill="#FFFFFF" fill-rule="evenodd"/><path d="M772.757 1846.45 772.757 1846.45C775.593 1843.62 779.439 1842.02 783.449 1842.02 787.459 1842.02 791.305 1843.61 794.141 1846.45L974.118 2026.43C976.953 2029.26 978.546 2033.11 978.546 2037.12 978.546 2041.13 976.953 2044.98 974.117 2047.81L974.117 2047.81C971.282 2050.65 967.436 2052.24 963.426 2052.24 959.416 2052.24 955.57 2050.65 952.734 2047.81L772.757 1867.83C769.921 1865 768.328 1861.15 768.328 1857.14 768.328 1853.13 769.921 1849.29 772.757 1846.45Z" fill="#FF4D4D" fill-rule="evenodd"/><path d="M802.077 1781.64 802.077 1781.64C805.131 1778.58 809.273 1776.87 813.591 1776.87 817.91 1776.87 822.051 1778.58 825.105 1781.64L1039.31 1995.84C1042.37 1998.9 1044.08 2003.04 1044.08 2007.36 1044.08 2011.68 1042.37 2015.82 1039.31 2018.87L1039.31 2018.87C1036.26 2021.93 1032.12 2023.64 1027.8 2023.64 1023.48 2023.64 1019.34 2021.93 1016.28 2018.87L802.077 1804.67C799.023 1801.61 797.308 1797.47 797.308 1793.15 797.308 1788.83 799.023 1784.69 802.077 1781.64Z" fill="#FF4D4D" fill-rule="evenodd"/><path d="M848.401 1734.6 848.401 1734.6C851.433 1731.57 855.545 1729.86 859.833 1729.86 864.12 1729.86 868.232 1731.57 871.264 1734.6L1085.99 1949.33C1092.31 1955.64 1092.31 1965.88 1085.99 1972.19L1085.99 1972.19C1079.68 1978.5 1069.44 1978.5 1063.13 1972.19L848.401 1757.46C842.088 1751.15 842.088 1740.91 848.401 1734.6Z" fill="#FF4D4D" fill-rule="evenodd"/><path d="M912.156 1707.05 912.156 1707.05C917.284 1701.92 925.598 1701.92 930.727 1707.05L1113.52 1889.84C1115.98 1892.3 1117.36 1895.64 1117.36 1899.13 1117.36 1902.61 1115.98 1905.95 1113.52 1908.41L1113.52 1908.41C1111.05 1910.87 1107.71 1912.26 1104.23 1912.26 1100.75 1912.26 1097.41 1910.87 1094.95 1908.41L912.156 1725.62C909.693 1723.16 908.31 1719.82 908.31 1716.34 908.31 1712.85 909.693 1709.51 912.156 1707.05Z" fill="#FF4D4D" fill-rule="evenodd"/><path d="M927 2154 927 2154C927 2146.04 930.169 2138.41 935.808 2132.79 941.447 2127.16 949.096 2124 957.073 2124L1057.93 2124C1074.54 2124 1088 2137.43 1088 2154L1088 2154C1088 2170.57 1074.54 2184 1057.93 2184L957.073 2184C940.464 2184 927 2170.57 927 2154Z" fill="#FF4D4D" fill-rule="evenodd"/><path d="M927 2234 927 2234C927 2226.04 930.169 2218.41 935.808 2212.79 941.447 2207.16 949.096 2204 957.073 2204L1057.93 2204C1074.54 2204 1088 2217.43 1088 2234L1088 2234C1088 2250.57 1074.54 2264 1057.93 2264L957.073 2264C940.464 2264 927 2250.57 927 2234Z" fill="#FF4D4D" fill-rule="evenodd"/></g></svg>