<svg width="571" height="679" xmlns="http://www.w3.org/2000/svg" xmlns:xlink="http://www.w3.org/1999/xlink" xml:space="preserve" overflow="hidden"><defs><clipPath id="clip0"><rect x="3072" y="3037" width="571" height="679"/></clipPath></defs><g clip-path="url(#clip0)" transform="translate(-3072 -3037)"><path d="M3120 3643.72 3120 3109.28C3120 3090.11 3127.61 3071.73 3141.17 3058.17 3154.72 3044.62 3173.1 3037 3192.27 3037L3570.73 3037C3589.9 3037 3608.28 3044.62 3621.83 3058.17 3635.39 3071.73 3643 3090.11 3643 3109.28L3643 3643.72C3643 3662.89 3635.39 3681.27 3621.83 3694.83 3608.28 3708.38 3589.9 3716 3570.73 3716L3192.27 3716C3173.1 3716 3154.72 3708.38 3141.17 3694.83 3127.61 3681.27 3120 3662.89 3120 3643.72Z" fill="#FFFFFF" fill-rule="evenodd"/><path d="M3381.5 3069C3281.26 3069 3200 3150.26 3200 3250.5 3200 3350.74 3281.26 3432 3381.5 3432 3481.74 3432 3563 3350.74 3563 3250.5 3563 3150.26 3481.74 3069 3381.5 3069Z" fill="#D32F2F" fill-rule="evenodd"/><path d="M3381.5 3405 3381.5 3405C3401.11 3405 3417 3420.92 3417 3440.55L3417 3648.45C3417 3668.08 3401.11 3684 3381.5 3684L3381.5 3684C3361.89 3684 3346 3668.08 3346 3648.45L3346 3440.55C3346 3420.92 3361.89 3405 3381.5 3405Z" fill="#D32F2F" fill-rule="evenodd"/><path d="M3381.5 3095C3295.62 3095 3226 3164.62 3226 3250.5 3226 3336.38 3295.62 3406 3381.5 3406 3467.38 3406 3537 3336.38 3537 3250.5 3537 3164.62 3467.38 3095 3381.5 3095Z" fill="#FFFFFF" fill-rule="evenodd"/><path d="M3280.5 3111 3280.5 3111C3284.61 3111 3288.55 3112.59 3291.46 3115.43 3294.37 3118.27 3296 3122.12 3296 3126.13L3296 3380.87C3296 3384.88 3294.37 3388.73 3291.46 3391.57 3288.55 3394.41 3284.61 3396 3280.5 3396L3280.5 3396C3276.39 3396 3272.45 3394.41 3269.54 3391.57 3266.63 3388.73 3265 3384.88 3265 3380.87L3265 3126.13C3265 3122.12 3266.63 3118.27 3269.54 3115.43 3272.45 3112.59 3276.39 3111 3280.5 3111Z" fill="#D32F2F" fill-rule="evenodd"/><path d="M3347 3086 3347 3086C3351.24 3086 3355.31 3087.71 3358.31 3090.76 3361.31 3093.81 3363 3097.95 3363 3102.26L3363 3404.74C3363 3409.05 3361.31 3413.19 3358.31 3416.24 3355.31 3419.29 3351.24 3421 3347 3421L3347 3421C3342.76 3421 3338.69 3419.29 3335.69 3416.24 3332.69 3413.19 3331 3409.05 3331 3404.74L3331 3102.26C3331 3097.95 3332.69 3093.81 3335.69 3090.76 3338.69 3087.71 3342.76 3086 3347 3086Z" fill="#D32F2F" fill-rule="evenodd"/><path d="M3413 3085 3413 3085C3417.24 3085 3421.31 3086.7 3424.31 3089.74 3427.31 3092.77 3429 3096.88 3429 3101.17L3429 3404.83C3429 3413.76 3421.84 3421 3413 3421L3413 3421C3404.16 3421 3397 3413.76 3397 3404.83L3397 3101.17C3397 3092.24 3404.16 3085 3413 3085Z" fill="#D32F2F" fill-rule="evenodd"/><path d="M3477.5 3111 3477.5 3111C3484.96 3111 3491 3116.88 3491 3124.14L3491 3382.86C3491 3386.34 3489.58 3389.69 3487.05 3392.15 3484.51 3394.61 3481.08 3396 3477.5 3396L3477.5 3396C3473.92 3396 3470.49 3394.61 3467.95 3392.15 3465.42 3389.69 3464 3386.34 3464 3382.86L3464 3124.14C3464 3120.66 3465.42 3117.31 3467.95 3114.85 3470.49 3112.39 3473.92 3111 3477.5 3111Z" fill="#D32F2F" fill-rule="evenodd"/><path d="M3362 3529.5 3362 3529.5C3362 3521.41 3365.19 3513.65 3370.86 3507.93 3376.54 3502.21 3384.23 3499 3392.26 3499L3493.74 3499C3510.45 3499 3524 3512.66 3524 3529.5L3524 3529.5C3524 3546.35 3510.45 3560 3493.74 3560L3392.26 3560C3375.55 3560 3362 3546.35 3362 3529.5Z" fill="#D32F2F" fill-rule="evenodd"/><path d="M3362 3609.5 3362 3609.5C3362 3601.41 3365.19 3593.65 3370.86 3587.93 3376.54 3582.21 3384.23 3579 3392.26 3579L3493.74 3579C3510.45 3579 3524 3592.66 3524 3609.5L3524 3609.5C3524 3626.35 3510.45 3640 3493.74 3640L3392.26 3640C3375.55 3640 3362 3626.35 3362 3609.5Z" fill="#D32F2F" fill-rule="evenodd"/></g></svg>