<svg width="570" height="678" xmlns="http://www.w3.org/2000/svg" xmlns:xlink="http://www.w3.org/1999/xlink" xml:space="preserve" overflow="hidden"><defs><clipPath id="clip0"><rect x="1159" y="1658" width="570" height="678"/></clipPath></defs><g clip-path="url(#clip0)" transform="translate(-1159 -1658)"><path d="M1206 2263.82 1206 1730.18C1206 1711.03 1213.61 1692.68 1227.17 1679.14 1240.72 1665.6 1259.1 1658 1278.27 1658L1656.73 1658C1675.9 1658 1694.28 1665.6 1707.83 1679.14 1721.39 1692.68 1729 1711.03 1729 1730.18L1729 2263.82C1729 2282.97 1721.39 2301.32 1707.83 2314.86 1694.28 2328.4 1675.9 2336 1656.73 2336L1278.27 2336C1259.1 2336 1240.72 2328.4 1227.17 2314.86 1213.61 2301.32 1206 2282.97 1206 2263.82Z" fill="#FFFFFF" fill-rule="evenodd"/><path d="M1467.5 1689C1367.26 1689 1286 1770.26 1286 1870.5 1286 1970.74 1367.26 2052 1467.5 2052 1567.74 2052 1649 1970.74 1649 1870.5 1649 1770.26 1567.74 1689 1467.5 1689Z" fill="#FF4D4D" fill-rule="evenodd"/><path d="M1467.5 2026 1467.5 2026C1487.11 2026 1503 2041.92 1503 2061.55L1503 2269.45C1503 2289.08 1487.11 2305 1467.5 2305L1467.5 2305C1447.89 2305 1432 2289.08 1432 2269.45L1432 2061.55C1432 2041.92 1447.89 2026 1467.5 2026Z" fill="#FF4D4D" fill-rule="evenodd"/><path d="M1467.5 1715C1381.62 1715 1312 1784.62 1312 1870.5 1312 1956.38 1381.62 2026 1467.5 2026 1553.38 2026 1623 1956.38 1623 1870.5 1623 1784.62 1553.38 1715 1467.5 1715Z" fill="#FFFFFF" fill-rule="evenodd"/><path d="M1366.5 1731 1366.5 1731C1370.61 1731 1374.55 1732.59 1377.46 1735.43 1380.37 1738.27 1382 1742.12 1382 1746.13L1382 2000.87C1382 2004.88 1380.37 2008.73 1377.46 2011.57 1374.55 2014.41 1370.61 2016 1366.5 2016L1366.5 2016C1362.39 2016 1358.45 2014.41 1355.54 2011.57 1352.63 2008.73 1351 2004.88 1351 2000.87L1351 1746.13C1351 1742.12 1352.63 1738.27 1355.54 1735.43 1358.45 1732.59 1362.39 1731 1366.5 1731Z" fill="#FF4D4D" fill-rule="evenodd"/><path d="M1433 1706 1433 1706C1437.24 1706 1441.31 1707.72 1444.31 1710.78 1447.31 1713.83 1449 1717.98 1449 1722.31L1449 2025.69C1449 2030.02 1447.31 2034.17 1444.31 2037.22 1441.31 2040.28 1437.24 2042 1433 2042L1433 2042C1428.76 2042 1424.69 2040.28 1421.69 2037.22 1418.69 2034.17 1417 2030.02 1417 2025.69L1417 1722.31C1417 1717.98 1418.69 1713.83 1421.69 1710.78 1424.69 1707.72 1428.76 1706 1433 1706Z" fill="#FF4D4D" fill-rule="evenodd"/><path d="M1499 1706 1499 1706C1503.24 1706 1507.31 1707.7 1510.31 1710.74 1513.31 1713.77 1515 1717.88 1515 1722.17L1515 2025.83C1515 2034.76 1507.84 2042 1499 2042L1499 2042C1490.16 2042 1483 2034.76 1483 2025.83L1483 1722.17C1483 1713.24 1490.16 1706 1499 1706Z" fill="#FF4D4D" fill-rule="evenodd"/><path d="M1564 1731 1564 1731C1571.18 1731 1577 1736.88 1577 1744.14L1577 2002.86C1577 2006.34 1575.63 2009.69 1573.19 2012.15 1570.75 2014.62 1567.45 2016 1564 2016L1564 2016C1560.55 2016 1557.25 2014.62 1554.81 2012.15 1552.37 2009.69 1551 2006.34 1551 2002.86L1551 1744.14C1551 1740.66 1552.37 1737.31 1554.81 1734.85 1557.25 1732.39 1560.55 1731 1564 1731Z" fill="#FF4D4D" fill-rule="evenodd"/><path d="M1448 2149.5 1448 2149.5C1448 2141.41 1451.19 2133.65 1456.86 2127.93 1462.54 2122.21 1470.23 2119 1478.26 2119L1579.74 2119C1596.45 2119 1610 2132.65 1610 2149.5L1610 2149.5C1610 2166.35 1596.45 2180 1579.74 2180L1478.26 2180C1461.55 2180 1448 2166.35 1448 2149.5Z" fill="#FF4D4D" fill-rule="evenodd"/><path d="M1448 2229.5 1448 2229.5C1448 2221.41 1451.19 2213.65 1456.86 2207.93 1462.54 2202.21 1470.23 2199 1478.26 2199L1579.74 2199C1596.45 2199 1610 2212.65 1610 2229.5L1610 2229.5C1610 2246.35 1596.45 2260 1579.74 2260L1478.26 2260C1461.55 2260 1448 2246.35 1448 2229.5Z" fill="#FF4D4D" fill-rule="evenodd"/></g></svg>