<svg width="570" height="679" xmlns="http://www.w3.org/2000/svg" xmlns:xlink="http://www.w3.org/1999/xlink" xml:space="preserve" overflow="hidden"><g transform="translate(-2550 -3037)"><path d="M2597 3643.72 2597 3109.28C2597 3090.11 2604.61 3071.73 2618.17 3058.17 2631.72 3044.62 2650.1 3037 2669.27 3037L3047.73 3037C3066.9 3037 3085.28 3044.62 3098.83 3058.17 3112.39 3071.73 3120 3090.11 3120 3109.28L3120 3643.72C3120 3662.89 3112.39 3681.27 3098.83 3694.83 3085.28 3708.38 3066.9 3716 3047.73 3716L2669.27 3716C2650.1 3716 2631.72 3708.38 2618.17 3694.83 2604.61 3681.27 2597 3662.89 2597 3643.72Z" fill="#FFFFFF" fill-rule="evenodd"/><path d="M2859.5 3073C2759.26 3073 2678 3154.26 2678 3254.5 2678 3354.74 2759.26 3436 2859.5 3436 2959.74 3436 3041 3354.74 3041 3254.5 3041 3154.26 2959.74 3073 2859.5 3073Z" fill="#D32F2F" fill-rule="evenodd"/><path d="M2859.5 3410 2859.5 3410C2879.11 3410 2895 3425.92 2895 3445.55L2895 3653.45C2895 3673.08 2879.11 3689 2859.5 3689L2859.5 3689C2839.89 3689 2824 3673.08 2824 3653.45L2824 3445.55C2824 3425.92 2839.89 3410 2859.5 3410Z" fill="#D32F2F" fill-rule="evenodd"/><path d="M2859.5 3099C2773.62 3099 2704 3168.62 2704 3254.5 2704 3340.38 2773.62 3410 2859.5 3410 2945.38 3410 3015 3340.38 3015 3254.5 3015 3168.62 2945.38 3099 2859.5 3099Z" fill="#FFFFFF" fill-rule="evenodd"/><path d="M2686.62 3226.03 2686.62 3226.03C2689.45 3223.2 2693.3 3221.6 2697.31 3221.6 2701.32 3221.6 2705.17 3223.2 2708 3226.03L2887.98 3406.01C2890.81 3408.85 2892.41 3412.69 2892.41 3416.7 2892.41 3420.71 2890.81 3424.56 2887.98 3427.39L2887.98 3427.39C2885.14 3430.23 2881.3 3431.82 2877.29 3431.82 2873.28 3431.82 2869.43 3430.23 2866.6 3427.39L2686.62 3247.42C2683.78 3244.58 2682.19 3240.74 2682.19 3236.73 2682.19 3232.72 2683.78 3228.87 2686.62 3226.03Z" fill="#D32F2F" fill-rule="evenodd"/><path d="M2715.94 3161.22 2715.94 3161.22C2718.99 3158.17 2723.13 3156.45 2727.45 3156.45 2731.77 3156.45 2735.91 3158.17 2738.97 3161.22L2953.17 3375.43C2956.23 3378.48 2957.94 3382.62 2957.94 3386.94 2957.94 3391.26 2956.23 3395.4 2953.17 3398.46L2953.17 3398.46C2950.12 3401.51 2945.98 3403.22 2941.66 3403.22 2937.34 3403.22 2933.2 3401.51 2930.14 3398.46L2715.94 3184.25C2712.88 3181.19 2711.17 3177.05 2711.17 3172.73 2711.17 3168.42 2712.88 3164.27 2715.94 3161.22Z" fill="#D32F2F" fill-rule="evenodd"/><path d="M2762.26 3114.18 2762.26 3114.18C2765.29 3111.15 2769.41 3109.45 2773.69 3109.45 2777.98 3109.45 2782.09 3111.15 2785.12 3114.18L2999.85 3328.91C3006.17 3335.22 3006.17 3345.46 2999.85 3351.77L2999.85 3351.77C2993.54 3358.09 2983.3 3358.09 2976.99 3351.77L2762.26 3137.04C2755.95 3130.73 2755.95 3120.49 2762.26 3114.18Z" fill="#D32F2F" fill-rule="evenodd"/><path d="M2826.02 3086.64 2826.02 3086.64C2831.15 3081.51 2839.46 3081.51 2844.59 3086.64L3027.38 3269.43C3029.84 3271.89 3031.22 3275.23 3031.22 3278.71 3031.22 3282.19 3029.84 3285.53 3027.38 3288L3027.38 3288C3024.92 3290.46 3021.57 3291.84 3018.09 3291.84 3014.61 3291.84 3011.27 3290.46 3008.81 3288L2826.02 3105.21C2823.55 3102.74 2822.17 3099.4 2822.17 3095.92 2822.17 3092.44 2823.55 3089.1 2826.02 3086.64Z" fill="#D32F2F" fill-rule="evenodd"/><path d="M2840 3534 2840 3534C2840 3526.04 2843.19 3518.41 2848.86 3512.79 2854.54 3507.16 2862.23 3504 2870.26 3504L2971.74 3504C2988.45 3504 3002 3517.43 3002 3534L3002 3534C3002 3550.57 2988.45 3564 2971.74 3564L2870.26 3564C2853.55 3564 2840 3550.57 2840 3534Z" fill="#D32F2F" fill-rule="evenodd"/><path d="M2840 3614 2840 3614C2840 3606.04 2843.19 3598.41 2848.86 3592.79 2854.54 3587.16 2862.23 3584 2870.26 3584L2971.74 3584C2988.45 3584 3002 3597.43 3002 3614L3002 3614C3002 3630.57 2988.45 3644 2971.74 3644L2870.26 3644C2853.55 3644 2840 3630.57 2840 3614Z" fill="#D32F2F" fill-rule="evenodd"/></g></svg>