<svg width="570" height="678" xmlns="http://www.w3.org/2000/svg" xmlns:xlink="http://www.w3.org/1999/xlink" xml:space="preserve" overflow="hidden"><defs><clipPath id="clip0"><rect x="1420" y="3253" width="570" height="678"/></clipPath></defs><g clip-path="url(#clip0)" transform="translate(-1420 -3253)"><path d="M1467 3858.82 1467 3325.18C1467 3306.03 1474.61 3287.68 1488.17 3274.14 1501.72 3260.6 1520.1 3253 1539.27 3253L1917.73 3253C1936.9 3253 1955.28 3260.6 1968.83 3274.14 1982.39 3287.68 1990 3306.03 1990 3325.18L1990 3858.82C1990 3877.97 1982.39 3896.32 1968.83 3909.86 1955.28 3923.4 1936.9 3931 1917.73 3931L1539.27 3931C1520.1 3931 1501.72 3923.4 1488.17 3909.86 1474.61 3896.32 1467 3877.97 1467 3858.82Z" fill="#FFFFFF" fill-rule="evenodd"/><path d="M1728.5 3284C1628.26 3284 1547 3365.26 1547 3465.5 1547 3565.74 1628.26 3647 1728.5 3647 1828.74 3647 1910 3565.74 1910 3465.5 1910 3365.26 1828.74 3284 1728.5 3284Z" fill="#5DADE2" fill-rule="evenodd"/><path d="M1728.5 3621 1728.5 3621C1748.11 3621 1764 3636.92 1764 3656.55L1764 3864.45C1764 3884.08 1748.11 3900 1728.5 3900L1728.5 3900C1708.89 3900 1693 3884.08 1693 3864.45L1693 3656.55C1693 3636.92 1708.89 3621 1728.5 3621Z" fill="#5DADE2" fill-rule="evenodd"/><path d="M1728.5 3310C1642.62 3310 1573 3379.62 1573 3465.5 1573 3551.38 1642.62 3621 1728.5 3621 1814.38 3621 1884 3551.38 1884 3465.5 1884 3379.62 1814.38 3310 1728.5 3310Z" fill="#FFFFFF" fill-rule="evenodd"/><path d="M1628 3326 1628 3326C1631.98 3326 1635.79 3327.59 1638.61 3330.43 1641.42 3333.27 1643 3337.12 1643 3341.13L1643 3595.87C1643 3599.88 1641.42 3603.73 1638.61 3606.57 1635.79 3609.41 1631.98 3611 1628 3611L1628 3611C1624.02 3611 1620.21 3609.41 1617.39 3606.57 1614.58 3603.73 1613 3599.88 1613 3595.87L1613 3341.13C1613 3337.12 1614.58 3333.27 1617.39 3330.43 1620.21 3327.59 1624.02 3326 1628 3326Z" fill="#5DADE2" fill-rule="evenodd"/><path d="M1694.5 3301 1694.5 3301C1698.88 3301 1703.07 3302.72 1706.17 3305.78 1709.26 3308.83 1711 3312.98 1711 3317.31L1711 3620.69C1711 3625.02 1709.26 3629.17 1706.17 3632.22 1703.07 3635.28 1698.88 3637 1694.5 3637L1694.5 3637C1690.12 3637 1685.93 3635.28 1682.83 3632.22 1679.74 3629.17 1678 3625.02 1678 3620.69L1678 3317.31C1678 3312.98 1679.74 3308.83 1682.83 3305.78 1685.93 3302.72 1690.12 3301 1694.5 3301Z" fill="#5DADE2" fill-rule="evenodd"/><path d="M1760.5 3301 1760.5 3301C1764.88 3301 1769.07 3302.7 1772.17 3305.74 1775.26 3308.77 1777 3312.88 1777 3317.17L1777 3620.83C1777 3629.76 1769.61 3637 1760.5 3637L1760.5 3637C1751.39 3637 1744 3629.76 1744 3620.83L1744 3317.17C1744 3308.24 1751.39 3301 1760.5 3301Z" fill="#5DADE2" fill-rule="evenodd"/><path d="M1825 3326 1825 3326C1832.18 3326 1838 3331.88 1838 3339.14L1838 3597.86C1838 3601.34 1836.63 3604.69 1834.19 3607.15 1831.75 3609.62 1828.45 3611 1825 3611L1825 3611C1821.55 3611 1818.25 3609.62 1815.81 3607.15 1813.37 3604.69 1812 3601.34 1812 3597.86L1812 3339.14C1812 3335.66 1813.37 3332.31 1815.81 3329.85 1818.25 3327.39 1821.55 3326 1825 3326Z" fill="#5DADE2" fill-rule="evenodd"/><path d="M1710 3744.5 1710 3744.5C1710 3736.41 1713.19 3728.65 1718.86 3722.93 1724.54 3717.21 1732.23 3714 1740.26 3714L1841.74 3714C1858.45 3714 1872 3727.65 1872 3744.5L1872 3744.5C1872 3761.35 1858.45 3775 1841.74 3775L1740.26 3775C1723.55 3775 1710 3761.35 1710 3744.5Z" fill="#5DADE2" fill-rule="evenodd"/><path d="M1710 3824.5 1710 3824.5C1710 3816.41 1713.19 3808.65 1718.86 3802.93 1724.54 3797.21 1732.23 3794 1740.26 3794L1841.74 3794C1858.45 3794 1872 3807.65 1872 3824.5L1872 3824.5C1872 3841.35 1858.45 3855 1841.74 3855L1740.26 3855C1723.55 3855 1710 3841.35 1710 3824.5Z" fill="#5DADE2" fill-rule="evenodd"/></g></svg>