<svg width="570" height="679" xmlns="http://www.w3.org/2000/svg" xmlns:xlink="http://www.w3.org/1999/xlink" xml:space="preserve" overflow="hidden"><defs><clipPath id="clip0"><rect x="3571" y="260" width="570" height="679"/></clipPath></defs><g clip-path="url(#clip0)" transform="translate(-3571 -260)"><path d="M3618 866.717 3618 332.283C3618 313.112 3625.61 294.727 3639.17 281.172 3652.72 267.615 3671.1 260 3690.27 260L4068.73 260C4087.9 260 4106.28 267.615 4119.83 281.172 4133.39 294.727 4141 313.112 4141 332.283L4141 866.717C4141 885.888 4133.39 904.273 4119.83 917.829 4106.28 931.385 4087.9 939 4068.73 939L3690.27 939C3671.1 939 3652.72 931.385 3639.17 917.829 3625.61 904.273 3618 885.888 3618 866.717Z" fill="#FFFFFF" fill-rule="evenodd"/><path d="M3879.5 292C3779.26 292 3698 373.26 3698 473.5 3698 573.74 3779.26 655 3879.5 655 3979.74 655 4061 573.74 4061 473.5 4061 373.26 3979.74 292 3879.5 292Z" fill="#5BA4CF" fill-rule="evenodd"/><path d="M3879.5 628 3879.5 628C3899.11 628 3915 643.915 3915 663.548L3915 871.453C3915 891.085 3899.11 907 3879.5 907L3879.5 907C3859.89 907 3844 891.085 3844 871.453L3844 663.548C3844 643.915 3859.89 628 3879.5 628Z" fill="#5BA4CF" fill-rule="evenodd"/><path d="M3879.5 318C3793.62 318 3724 387.62 3724 473.5 3724 559.38 3793.62 629 3879.5 629 3965.38 629 4035 559.38 4035 473.5 4035 387.62 3965.38 318 3879.5 318Z" fill="#FFFFFF" fill-rule="evenodd"/><path d="M3778.5 334 3778.5 334C3782.61 334 3786.55 335.589 3789.46 338.417 3792.37 341.245 3794 345.08 3794 349.08L3794 602.92C3794 606.92 3792.37 610.755 3789.46 613.583 3786.55 616.411 3782.61 618 3778.5 618L3778.5 618C3774.39 618 3770.45 616.411 3767.54 613.583 3764.63 610.755 3763 606.92 3763 602.92L3763 349.08C3763 345.08 3764.63 341.245 3767.54 338.417 3770.45 335.589 3774.39 334 3778.5 334Z" fill="#5BA4CF" fill-rule="evenodd"/><path d="M3845 309 3845 309C3849.24 309 3853.31 310.713 3856.31 313.762 3859.31 316.811 3861 320.947 3861 325.259L3861 627.741C3861 632.053 3859.31 636.189 3856.31 639.238 3853.31 642.287 3849.24 644 3845 644L3845 644C3840.76 644 3836.69 642.287 3833.69 639.238 3830.69 636.189 3829 632.053 3829 627.741L3829 325.259C3829 320.947 3830.69 316.811 3833.69 313.762 3836.69 310.713 3840.76 309 3845 309Z" fill="#5BA4CF" fill-rule="evenodd"/><path d="M3911 308 3911 308C3915.24 308 3919.31 309.703 3922.31 312.735 3925.31 315.767 3927 319.879 3927 324.166L3927 627.834C3927 636.762 3919.84 644 3911 644L3911 644C3902.16 644 3895 636.762 3895 627.834L3895 324.166C3895 315.237 3902.16 308 3911 308Z" fill="#5BA4CF" fill-rule="evenodd"/><path d="M3976 334 3976 334C3983.18 334 3989 339.863 3989 347.096L3989 604.904C3989 608.378 3987.63 611.708 3985.19 614.165 3982.75 616.62 3979.45 618 3976 618L3976 618C3972.55 618 3969.25 616.62 3966.81 614.165 3964.37 611.708 3963 608.378 3963 604.904L3963 347.096C3963 343.623 3964.37 340.292 3966.81 337.836 3969.25 335.38 3972.55 334 3976 334Z" fill="#5BA4CF" fill-rule="evenodd"/><path d="M3860 752 3860 752C3860 744.043 3863.19 736.412 3868.86 730.787 3874.54 725.161 3882.23 722 3890.26 722L3991.74 722C4008.45 722 4022 735.431 4022 752L4022 752C4022 768.569 4008.45 782 3991.74 782L3890.26 782C3873.55 782 3860 768.569 3860 752Z" fill="#5BA4CF" fill-rule="evenodd"/><path d="M3860 832 3860 832C3860 824.043 3863.19 816.412 3868.86 810.787 3874.54 805.161 3882.23 802 3890.26 802L3991.74 802C4008.45 802 4022 815.431 4022 832L4022 832C4022 848.569 4008.45 862 3991.74 862L3890.26 862C3873.55 862 3860 848.569 3860 832Z" fill="#5BA4CF" fill-rule="evenodd"/></g></svg>