<svg width="1401" height="878" xmlns="http://www.w3.org/2000/svg" xmlns:xlink="http://www.w3.org/1999/xlink" xml:space="preserve" overflow="hidden"><g transform="translate(-552 -5098)"><path d="M644.5 5243.5C644.5 5190.48 687.481 5147.5 740.5 5147.5L742.5 5147.5C795.519 5147.5 838.5 5190.48 838.5 5243.5L838.5 5243.5C838.5 5296.52 795.519 5339.5 742.5 5339.5L740.5 5339.5C687.481 5339.5 644.5 5296.52 644.5 5243.5Z" stroke="#0049B0" stroke-width="9.16667" stroke-linejoin="round" stroke-miterlimit="10" fill="#0049B0" fill-rule="evenodd"/><text fill="#FFFFFF" font-family="Arial Rounded MT Bold,Arial Rounded MT Bold_MSFontService,sans-serif" font-weight="700" font-size="128" transform="matrix(1 0 0 1 702.888 5292)">1</text><text font-family="Arial Rounded MT Bold,Arial Rounded MT Bold_MSFontService,sans-serif" font-weight="700" font-size="110" transform="matrix(1 0 0 1 984.198 5286)">PREPARE</text><g><g><g><path d="M153.266 21.6741 159.177 21.9555 163.681 23.3629 168.185 25.6148C176.292 31.207 183.657 37.5403 190.281 44.6148 190.15 45.0463 190.291 45.187 190.703 45.037L197.6 51.9333 197.6 52.3555 198.445 52.7777 203.933 58.8296 212.659 55.7333 218.57 54.3259 220.54 53.4814 227.859 52.0741 231.518 50.9481 238.274 50.1037 243.622 48.9777 247.844 48.6963 248.126 48.4148 251.222 48.4148 251.503 48.1333 254.318 48.1333 254.6 47.8518 260.23 47.8518 260.511 47.5703 269.8 47.5703 270.081 47.8518 275.711 47.8518 275.993 48.1333 284.718 48.6963 285 48.9777 286.97 48.9777 288.659 49.5407 290.348 49.5407 292.036 50.1037 298.793 50.9481 302.452 52.0741 309.77 53.4814 326.8 58.8296 329.051 55.8741 339.607 45.037C340.038 45.187 340.179 45.0463 340.029 44.6148L344.814 40.1111C344.682 39.6982 344.823 39.5574 345.236 39.6888 350.585 34.1529 356.589 29.2741 363.252 25.0518L366.629 23.3629 371.133 21.9555 377.044 21.6741 380.422 22.5185 384.081 24.2074 387.318 26.8815 389.851 29.9778 392.666 35.3259 395.763 45.7407 396.607 51.3703 398.296 58.6888 399.141 66.2888 400.266 71.9188 400.829 78.6742 401.392 81.2073 401.392 83.7404 401.674 84.0219 402.237 90.2149 402.518 90.4965 403.363 101.756 403.925 104.57 403.925 107.385 404.488 109.637 405.614 120.896 405.896 122.303 407.022 123.993 411.244 133.563 413.214 138.63 413.214 139.474 414.059 140.6 417.437 150.452 417.437 151.296 418 152.14 421.096 163.681 421.659 167.903 422.784 172.126 423.348 178.318 423.629 178.6 423.911 185.074 424.192 185.356 424.192 196.615 423.911 196.896 423.911 200.274 423.629 200.556 423.348 205.34 422.222 211.252 419.125 222.23 416.311 229.266 413.496 234.896 409.274 241.933 400.266 253.615 399.141 254.318 395.059 258.681 394.074 259.385C394.223 259.817 394.082 259.957 393.652 259.807L384.644 267.407 371.977 275.57 358.466 282.326 346.926 286.829 342.703 287.955 338.481 289.644 322.155 293.866 308.926 296.4 304.985 296.681 302.733 297.244 300.481 297.244 296.259 298.088 287.533 298.651 287.252 298.933 276.556 299.215 276.274 299.496 254.318 299.496 254.036 299.215 248.126 299.215 247.844 298.933 243.059 298.933 242.777 298.651 239.963 298.651 239.681 298.37 236.585 298.37 236.303 298.088 231.8 297.807 231.518 297.526 227.577 297.244 223.356 296.4 221.385 296.4 219.696 295.837 218.289 295.837 213.785 294.711 209.563 294.148 198.866 291.615 198.022 291.051 196.896 291.051 193.8 289.925 191.83 289.644 187.607 287.955 183.385 286.829 168.185 280.637 154.956 273.6 144.259 266.281 133.704 257.133C133.853 256.721 133.713 256.579 133.281 256.711 124.03 247.76 116.853 236.735 111.748 223.636L109.215 215.756 107.245 206.748 107.245 205.059 106.681 202.807 106.681 199.993 106.4 199.711 106.4 196.333 106.118 196.052 106.118 186.2 106.4 185.918 106.4 182.259 106.681 181.977 106.681 178.881 106.963 178.6 107.245 174.377 109.778 161.43 110.904 158.333 111.748 154.111 114.563 145.385 115.97 142.289 115.97 141.444 117.096 139.474 117.096 138.63 121.037 129.059 124.415 122.303 124.978 119.489 125.541 112.452 125.822 112.17 125.822 109.918 126.385 109.074 126.104 107.667 126.385 107.385 126.385 104.852 126.948 102.318 126.948 99.2219 127.511 96.4073 128.074 88.5257 128.637 87.3996 128.637 84.3035 128.918 84.0219 130.045 72.1996 131.17 66.8518 131.17 64.8814 131.452 64.6 132.578 55.8741 134.267 48.5555 134.267 47.1481 135.392 43.7704 136.237 39.2666 137.926 34.7629 139.615 31.3851 143.555 26.1778 147.918 23.3629 153.266 21.6741ZM154.251 32.9333 152.281 33.7778 149.185 37.1555 147.496 41.0963C147.872 42.0344 147.684 42.4099 146.933 42.2222L144.4 53.4814 143.555 59.9555 142.429 64.7407 142.148 68.3999 141.867 68.6814 141.867 70.9331 141.304 72.9038 140.459 80.7853 140.178 81.0669 139.896 86.1331 139.333 88.6669 139.333 91.4815 138.77 94.0146 138.77 96.5484 138.208 98.8 137.926 103.585 137.645 103.867 137.645 106.963 137.363 107.245 136.8 115.126 136.518 115.408 136.518 117.378 136.237 117.659 136.237 119.348 135.111 125.822 130.888 134.548 126.104 146.652C126.291 147.403 126.104 147.684 125.541 147.496L125.541 148.622 122.163 158.474 120.755 164.948 119.911 167.2 118.504 175.081 118.504 176.77 118.222 177.051 118.222 179.585 117.659 181.837 117.659 184.37 117.378 184.651 117.378 188.311 117.096 188.592 117.659 202.385 119.348 211.111 123.852 224.059 128.637 233.348 129.481 233.629 129.763 235.037 132.015 238.415 137.363 245.17C144.118 252.677 152.093 259.056 161.288 264.311 162.227 263.936 162.603 264.123 162.415 264.874L166.355 267.126 177.333 272.474 188.311 276.696 191.688 277.541 192.533 278.104 193.941 278.104 196.192 279.229 201.259 280.355 204.074 281.481 208.015 282.044 215.615 284.014 223.778 285.141 227.155 285.985 231.378 286.266 231.659 286.548 239.822 287.111 242.637 287.674 249.674 287.955 249.955 288.237 260.651 288.237 260.933 288.518 264.592 288.518 264.874 288.237 266 288.518 266.844 288.237 267.688 288.518C268.815 288.893 269.565 288.8 269.941 288.237L280.637 288.237 280.918 287.955 287.955 287.674 290.77 287.111 293.866 287.111 296.4 286.548 298.933 286.548 299.215 286.266 305.407 285.704C308.222 284.766 311.411 284.203 314.978 284.014L323.985 281.763 326.518 281.481 333.555 279.229 335.525 278.948 339.466 277.259 342.281 276.696 353.259 272.474 362.829 267.97 369.022 264.311C369.396 264.499 369.492 264.311 369.304 263.748L370.711 263.466 374.651 260.933 385.629 252.488C390.133 248.548 394.166 244.138 397.733 239.259L401.674 233.629 401.674 232.785C403.551 230.346 405.051 227.718 406.178 224.904L408.711 218.429 410.963 210.548 411.807 206.326 411.807 204.637 412.37 203.792 412.651 199.007 412.933 198.726 412.933 193.096 413.214 192.815 412.933 183.245C412.37 182.869 412.277 182.118 412.651 180.992L412.088 180.148 412.37 179.304 410.4 166.918 406.741 153.688 401.392 139.052 395.2 125.541 394.355 120.755 394.355 118.785 393.792 117.096 392.948 106.681 392.666 106.4 392.666 103.585 392.385 103.304 392.385 100.77 391.822 98.5184 392.104 97.3923 391.541 96.2669 390.696 85.57 390.414 85.2885 390.133 80.7853 389.007 74.5923 388.444 68.6814 388.163 68.3999 388.163 66.4296 385.629 51.7925 382.814 40.8148 380.844 36.5925 379.437 34.9037C378.685 33.7778 377.655 33.121 376.341 32.9333L373.807 32.9333 370.711 33.7778 365.925 36.5925C359.733 41.284 353.915 46.4444 348.474 52.0741 348.663 52.637 348.474 52.8247 347.911 52.637 342.281 57.7037 337.122 63.2396 332.429 69.2444L330.741 70.37 325.392 70.37 319.763 68.1184 310.755 65.3037 303.155 63.3333 300.059 63.0518 298.933 62.4888 295.274 61.9259 294.711 61.9259 292.741 61.0814 288.518 60.8 286.266 60.237 282.044 59.9555 281.763 59.674 279.229 59.674 277.259 59.1111 273.037 59.1111 272.755 58.8296 257.837 58.8296 257.555 59.1111 253.333 59.1111 251.363 59.674 248.829 59.674 246.578 60.237 240.104 60.8 238.978 61.3629 238.133 61.0814 236.726 61.6444 233.066 62.2074 231.941 62.7703 227.437 63.3333 222.088 65.0221 217.866 65.8666 215.333 66.9925 210.829 68.1184 203.229 71.2146 201.822 71.2146 199.288 70.0888 183.526 53.4814C182.963 53.6692 182.775 53.5752 182.963 53.2 177.333 47.1951 171.234 41.6592 164.667 36.5925L159.881 33.7778 156.785 32.9333 154.251 32.9333Z" stroke="#000000" stroke-width="14.4762" transform="matrix(1.0025 0 0 1 1488.61 5098)"/><path d="M1881.22 1478.81C1881.22 1470.73 1887.77 1464.18 1895.84 1464.18L2069.49 1464.18C2077.57 1464.18 2084.12 1470.73 2084.12 1478.81L2084.12 1537.32C2084.12 1545.39 2077.57 1551.94 2069.49 1551.94L1895.84 1551.94C1887.77 1551.94 1881.22 1545.39 1881.22 1537.32Z" stroke="#4C80C5" stroke-width="6.43572" stroke-linejoin="round" stroke-miterlimit="10" fill="#4C80C5" fill-rule="evenodd" transform="matrix(1.00222 0 0 1 -233.9 3774.58)"/><text fill="#FFFFFF" font-family="Arial,Arial_MSFontService,sans-serif" font-weight="700" font-size="87" transform="matrix(0.703636 0 0 0.702078 1700.09 5300)">Bob</text></g></g></g><path d="M559 5551.5C559 5505.94 595.937 5469 641.501 5469L1136.5 5469C1182.06 5469 1219 5505.94 1219 5551.5L1219 5881.5C1219 5927.06 1182.06 5964 1136.5 5964L641.501 5964C595.937 5964 559 5927.06 559 5881.5Z" stroke="#4C80C5" stroke-width="13.75" stroke-linejoin="round" stroke-miterlimit="10" fill="#F2F2F2" fill-rule="evenodd"/><text font-family="Arial Rounded MT Bold,Arial Rounded MT Bold_MSFontService,sans-serif" font-weight="700" font-size="92" transform="matrix(1 0 0 1 725.268 5600)">Z Basis</text><path d="M1251 5556.5C1251 5510.94 1287.94 5474 1333.5 5474L1828.5 5474C1874.06 5474 1911 5510.94 1911 5556.5L1911 5886.5C1911 5932.06 1874.06 5969 1828.5 5969L1333.5 5969C1287.94 5969 1251 5932.06 1251 5886.5Z" stroke="#4C80C5" stroke-width="13.75" stroke-linejoin="round" stroke-miterlimit="10" fill="#F2F2F2" fill-rule="evenodd"/><text font-family="Arial Rounded MT Bold,Arial Rounded MT Bold_MSFontService,sans-serif" font-weight="700" font-size="92" transform="matrix(1 0 0 1 1419.33 5604)">X Basis</text><path d="M743 5672C688.323 5672 644 5716.77 644 5772 644 5827.23 688.323 5872 743 5872 797.676 5872 842 5827.23 842 5772 842 5716.77 797.676 5672 743 5672Z" stroke="#B9CDE5" stroke-width="10.3125" stroke-linejoin="round" stroke-miterlimit="10" fill="#DCE6F2" fill-rule="evenodd"/><path d="M1017 5672C962.324 5672 918 5716.77 918 5772 918 5827.23 962.324 5872 1017 5872 1071.68 5872 1116 5827.23 1116 5772 1116 5716.77 1071.68 5672 1017 5672Z" stroke="#B9CDE5" stroke-width="10.3125" stroke-linejoin="round" stroke-miterlimit="10" fill="#DCE6F2" fill-rule="evenodd"/><path d="M1446 5672C1391.32 5672 1347 5716.77 1347 5772 1347 5827.23 1391.32 5872 1446 5872 1500.68 5872 1545 5827.23 1545 5772 1545 5716.77 1500.68 5672 1446 5672Z" stroke="#B9CDE5" stroke-width="10.3125" stroke-linejoin="round" stroke-miterlimit="10" fill="#DCE6F2" fill-rule="evenodd"/><path d="M1721 5672C1666.32 5672 1622 5716.77 1622 5772 1622 5827.23 1666.32 5872 1721 5872 1775.68 5872 1820 5827.23 1820 5772 1820 5716.77 1775.68 5672 1721 5672Z" stroke="#B9CDE5" stroke-width="10.3125" stroke-linejoin="round" stroke-miterlimit="10" fill="#DCE6F2" fill-rule="evenodd"/><path d="M689.265 5727.01 697.536 5727.01 697.536 5826.96 689.265 5826.96Z" fill-rule="evenodd"/><text fill="#000000" fill-opacity="0" font-family="Arial,Arial_MSFontService,sans-serif" font-size="99.9561" x="689.265" y="5814.47">ȁ</text><path d="M741.262 5738.8C738.792 5738.8 736.724 5739.53 735.059 5741 733.394 5742.47 732.051 5744.58 731.031 5747.34 730.01 5750.09 729.285 5753.45 728.855 5757.41 728.426 5761.36 728.211 5765.83 728.211 5770.81 728.211 5782.48 729.294 5791.05 731.46 5796.51 733.627 5801.97 736.983 5804.7 741.531 5804.7 745.864 5804.7 749.077 5802.13 751.172 5796.99 753.267 5791.85 754.314 5783.9 754.314 5773.12 754.314 5764.88 753.777 5758.21 752.703 5753.11 751.629 5748.01 750.134 5744.35 748.218 5742.13 746.302 5739.91 743.984 5738.8 741.262 5738.8ZM741.531 5734.23C749.373 5734.23 755.209 5737.26 759.041 5743.31 762.872 5749.36 764.788 5758.51 764.788 5770.75 764.788 5783.43 762.738 5793.02 758.638 5799.52 754.538 5806.02 748.549 5809.26 740.672 5809.26 732.937 5809.26 727.181 5806.22 723.404 5800.13 719.626 5794.05 717.737 5784.81 717.737 5772.42 717.737 5765.83 718.319 5760.14 719.483 5755.34 720.646 5750.54 722.276 5746.58 724.37 5743.44 726.465 5740.31 728.981 5737.99 731.917 5736.49 734.853 5734.98 738.058 5734.23 741.531 5734.23Z" fill-rule="evenodd"/><text fill="#000000" fill-opacity="0" font-family="Arial,Arial_MSFontService,sans-serif" font-size="75.0342" x="717.737" y="5799.89">0</text><path d="M782.978 5726.76 804.409 5774.99 804.409 5778.97 782.978 5827.25 777.231 5825.21 794.472 5776.98 777.231 5728.7Z" fill-rule="evenodd"/><text fill="#000000" fill-opacity="0" font-family="Arial,Arial_MSFontService,sans-serif" font-size="100.493" x="777.231" y="5814.69">ۧ</text><path d="M967.931 5727.01 976.203 5727.01 976.203 5826.96 967.931 5826.96Z" fill-rule="evenodd"/><text fill="#000000" fill-opacity="0" font-family="Arial,Arial_MSFontService,sans-serif" font-size="99.9561" x="967.931" y="5814.47">ȁ</text><path d="M1024.17 5734.23 1027.13 5734.23C1026.91 5737.67 1026.8 5742.43 1026.8 5748.52L1026.8 5794.39C1026.8 5796.46 1026.92 5798.03 1027.15 5799.09 1027.39 5800.14 1027.8 5801 1028.39 5801.66 1028.98 5802.33 1029.83 5802.85 1030.94 5803.22 1032.05 5803.6 1033.45 5803.88 1035.13 5804.08 1036.81 5804.28 1039.03 5804.41 1041.79 5804.48L1041.79 5808.41 1002.1 5808.41 1002.1 5804.48C1006.07 5804.31 1008.91 5804.06 1010.61 5803.76 1012.31 5803.46 1013.61 5803 1014.5 5802.39 1015.4 5801.78 1016.05 5800.92 1016.46 5799.81 1016.88 5798.7 1017.08 5796.89 1017.08 5794.39L1017.08 5750.83C1017.08 5749.4 1016.83 5748.35 1016.33 5747.69 1015.83 5747.02 1015.1 5746.69 1014.13 5746.69 1012.98 5746.69 1011.35 5747.28 1009.24 5748.46 1007.13 5749.65 1004.51 5751.27 1001.4 5753.35L999.036 5749.22Z" fill-rule="evenodd"/><text fill="#000000" fill-opacity="0" font-family="Arial,Arial_MSFontService,sans-serif" font-size="74.1748" x="999.036" y="5799.13">1</text><path d="M1061.64 5726.76 1083.08 5774.99 1083.08 5778.97 1061.64 5827.25 1055.9 5825.21 1073.14 5776.98 1055.9 5728.7Z" fill-rule="evenodd"/><text fill="#000000" fill-opacity="0" font-family="Arial,Arial_MSFontService,sans-serif" font-size="100.493" x="1055.9" y="5814.69">ۧ</text><path d="M1371.26 5727.01 1379.54 5727.01 1379.54 5826.96 1371.26 5826.96Z" fill-rule="evenodd"/><text fill="#000000" fill-opacity="0" font-family="Arial,Arial_MSFontService,sans-serif" font-size="99.9561" x="1371.26" y="5814.47">ȁ</text><path d="M1445.98 5738.26 1449.42 5738.26 1449.42 5773.49 1484.65 5773.49 1484.65 5776.93 1449.42 5776.93 1449.42 5812.17 1445.98 5812.17 1445.98 5776.93 1410.75 5776.93 1410.75 5773.49 1445.98 5773.49Z" fill-rule="evenodd"/><text fill="#000000" fill-opacity="0" font-family="Arial,Arial_MSFontService,sans-serif" font-size="73.9062" x="1410.75" y="5802.93">＋</text><path d="M1514.25 5726.76 1535.68 5774.99 1535.68 5778.97 1514.25 5827.25 1508.5 5825.21 1525.74 5776.98 1508.5 5728.7Z" fill-rule="evenodd"/><text fill="#000000" fill-opacity="0" font-family="Arial,Arial_MSFontService,sans-serif" font-size="100.493" x="1508.5" y="5814.69">ۧ</text><path d="M1651.26 5727.01 1659.53 5727.01 1659.53 5826.96 1651.26 5826.96Z" fill-rule="evenodd"/><text fill="#000000" fill-opacity="0" font-family="Arial,Arial_MSFontService,sans-serif" font-size="99.9561" x="1651.26" y="5814.47">ȁ</text><path d="M1689.46 5773.49 1765.51 5773.49 1765.51 5776.93 1689.46 5776.93Z" fill-rule="evenodd"/><text fill="#000000" fill-opacity="0" font-family="Arial,Arial_MSFontService,sans-serif" font-size="3.4375" x="1689.46" y="5776.5">－</text><path d="M1794.25 5726.76 1815.68 5774.99 1815.68 5778.97 1794.25 5827.25 1788.5 5825.21 1805.74 5776.98 1788.5 5728.7Z" fill-rule="evenodd"/><text fill="#000000" fill-opacity="0" font-family="Arial,Arial_MSFontService,sans-serif" font-size="100.493" x="1788.5" y="5814.69">ۧ</text></g></svg>