<svg width="1463" height="1267" xmlns="http://www.w3.org/2000/svg" xmlns:xlink="http://www.w3.org/1999/xlink" xml:space="preserve" overflow="hidden"><g transform="translate(-3706 -5092)"><path d="M3787.5 5242.5C3787.5 5189.48 3830.48 5146.5 3883.5 5146.5L3886.5 5146.5C3939.52 5146.5 3982.5 5189.48 3982.5 5242.5L3982.5 5242.5C3982.5 5295.52 3939.52 5338.5 3886.5 5338.5L3883.5 5338.5C3830.48 5338.5 3787.5 5295.52 3787.5 5242.5Z" stroke="#0049B0" stroke-width="9.16667" stroke-linejoin="round" stroke-miterlimit="10" fill="#0049B0" fill-rule="evenodd"/><text fill="#FFFFFF" font-family="Arial Rounded MT Bold,Arial Rounded MT Bold_MSFontService,sans-serif" font-weight="700" font-size="128" transform="matrix(1 0 0 1 3846.42 5291)">3</text><text font-family="Arial Rounded MT Bold,Arial Rounded MT Bold_MSFontService,sans-serif" font-weight="700" font-size="110" transform="matrix(1 0 0 1 4150.43 5284)">ENCODE</text><g><g><g><g><path d="M153.252 21.6721 159.163 21.9535 163.666 23.3608 168.17 25.6124C176.276 31.204 183.641 37.5368 190.264 44.6107 190.133 45.0423 190.273 45.183 190.686 45.0329L197.582 51.9285 197.582 52.3507 198.426 52.7729 203.915 58.8242 212.639 55.7282 218.55 54.3209 220.52 53.4766 227.838 52.0693 231.497 50.9435 238.252 50.0991 243.6 48.9733 247.822 48.6918 248.103 48.4103 251.199 48.4103 251.48 48.1289 254.295 48.1289 254.576 47.8475 260.206 47.8475 260.487 47.5659 269.775 47.5659 270.056 47.8475 275.686 47.8475 275.967 48.1289 284.692 48.6918 284.974 48.9733 286.944 48.9733 288.632 49.5361 290.321 49.5361 292.01 50.0991 298.765 50.9435 302.424 52.0693 309.742 53.4766 326.77 58.8242 329.021 55.8689 339.576 45.0329C340.008 45.183 340.148 45.0423 339.998 44.6107L344.783 40.1074C344.652 39.6946 344.792 39.5539 345.205 39.6852 350.553 34.15 356.557 29.2714 363.219 25.0495L366.596 23.3608 371.099 21.9535 377.01 21.6721 380.387 22.5165 384.046 24.2052 387.283 26.879 389.816 29.975 392.63 35.3227 395.727 45.7365 396.571 51.3656 398.26 58.6835 399.104 66.2828 400.229 71.9122 400.793 78.667 401.355 81.1999 401.355 83.7327 401.637 84.0142 402.2 90.2067 402.482 90.4882 403.326 101.746 403.888 104.561 403.888 107.375 404.451 109.627 405.577 120.885 405.859 122.292 406.985 123.981 411.207 133.55 413.177 138.617 413.177 139.461 414.021 140.587 417.399 150.438 417.399 151.283 417.962 152.126 421.057 163.666 421.621 167.888 422.746 172.11 423.309 178.302 423.59 178.583 423.872 185.057 424.153 185.339 424.153 196.597 423.872 196.878 423.872 200.256 423.59 200.537 423.309 205.322 422.184 211.233 419.087 222.209 416.273 229.245 413.458 234.875 409.236 241.911 400.229 253.591 399.104 254.295 395.023 258.658 394.038 259.361C394.188 259.793 394.047 259.933 393.616 259.783L384.609 267.382 371.943 275.545 358.434 282.3 346.894 286.803 342.672 287.929 338.45 289.618 322.125 293.839 308.897 296.373 304.957 296.654 302.706 297.217 300.454 297.217 296.232 298.061 287.507 298.624 287.226 298.906 276.53 299.187 276.249 299.469 254.295 299.469 254.013 299.187 248.103 299.187 247.822 298.906 243.037 298.906 242.755 298.624 239.941 298.624 239.659 298.343 236.563 298.343 236.282 298.061 231.778 297.78 231.497 297.499 227.556 297.217 223.335 296.373 221.365 296.373 219.676 295.81 218.269 295.81 213.765 294.684 209.543 294.121 198.848 291.588 198.004 291.025 196.878 291.025 193.782 289.899 191.812 289.618 187.59 287.929 183.368 286.803 168.17 280.611 154.942 273.575 144.246 266.257 133.692 257.11C133.842 256.697 133.701 256.556 133.269 256.687 124.019 247.737 116.842 236.714 111.738 223.616L109.205 215.736 107.235 206.729 107.235 205.04 106.672 202.789 106.672 199.974 106.39 199.693 106.39 196.315 106.109 196.034 106.109 186.183 106.39 185.901 106.39 182.242 106.672 181.961 106.672 178.865 106.953 178.583 107.235 174.361 109.768 161.415 110.894 158.319 111.738 154.097 114.553 145.372 115.959 142.276 115.959 141.431 117.085 139.461 117.085 138.617 121.026 129.047 124.403 122.292 124.966 119.478 125.529 112.442 125.811 112.16 125.811 109.908 126.374 109.064 126.092 107.657 126.374 107.375 126.374 104.842 126.937 102.309 126.937 99.2128 127.499 96.3985 128.062 88.5177 128.625 87.3916 128.625 84.2957 128.907 84.0142 130.033 72.193 131.158 66.8457 131.158 64.8755 131.439 64.5941 132.566 55.8689 134.255 48.5511 134.255 47.1438 135.38 43.7664 136.224 39.263 137.913 34.7597 139.602 31.3823 143.542 26.1754 147.905 23.3608 153.252 21.6721ZM154.237 32.9303 152.268 33.7747 149.172 37.1521 147.483 41.0925C147.858 42.0307 147.67 42.4059 146.92 42.2184L144.387 53.4766 143.542 59.95 142.416 64.7348 142.135 68.3936 141.854 68.6752 141.854 70.9266 141.291 72.8971 140.446 80.778 140.165 81.0595 139.883 86.1252 139.32 88.6588 139.32 91.4731 138.757 94.006 138.757 96.5396 138.195 98.7909 137.913 103.576 137.632 103.857 137.632 106.953 137.35 107.235 136.787 115.116 136.506 115.397 136.506 117.367 136.224 117.648 136.224 119.337 135.098 125.811 130.876 134.536 126.092 146.638C126.28 147.389 126.092 147.67 125.529 147.483L125.529 148.609 122.152 158.459 120.744 164.933 119.9 167.185 118.493 175.065 118.493 176.754 118.211 177.035 118.211 179.569 117.648 181.82 117.648 184.353 117.367 184.635 117.367 188.294 117.085 188.575 117.648 202.367 119.337 211.091 123.84 224.039 128.625 233.326 129.47 233.608 129.751 235.015 132.003 238.393 137.35 245.148C144.105 252.653 152.08 259.033 161.274 264.287 162.212 263.912 162.587 264.099 162.4 264.85L166.34 267.102 177.317 272.449 188.294 276.671 191.671 277.515 192.515 278.078 193.923 278.078 196.174 279.204 201.241 280.33 204.055 281.456 207.996 282.019 215.595 283.989 223.757 285.115 227.135 285.959 231.356 286.24 231.638 286.521 239.8 287.084 242.615 287.647 249.651 287.929 249.932 288.21 260.628 288.21 260.909 288.492 264.568 288.492 264.85 288.21 265.976 288.492 266.82 288.21 267.664 288.492C268.79 288.867 269.54 288.773 269.916 288.21L280.611 288.21 280.893 287.929 287.929 287.647 290.743 287.084 293.839 287.084 296.373 286.521 298.906 286.521 299.187 286.24 305.379 285.678C308.194 284.739 311.384 284.176 314.949 283.989L323.956 281.737 326.488 281.456 333.525 279.204 335.495 278.922 339.435 277.234 342.25 276.671 353.227 272.449 362.796 267.945 368.988 264.287C369.363 264.475 369.457 264.287 369.27 263.724L370.677 263.442 374.617 260.909 385.594 252.465C390.097 248.525 394.132 244.116 397.697 239.237L401.637 233.608 401.637 232.764C403.513 230.325 405.014 227.698 406.14 224.883L408.673 218.409 410.925 210.528 411.769 206.307 411.769 204.618 412.332 203.774 412.614 198.989 412.895 198.708 412.895 193.078 413.177 192.797 412.895 183.228C412.332 182.852 412.239 182.102 412.614 180.976L412.051 180.131 412.332 179.287 410.362 166.903 406.703 153.674 401.355 139.039 395.164 125.529 394.319 120.744 394.319 118.774 393.756 117.085 392.912 106.672 392.63 106.39 392.63 103.576 392.349 103.294 392.349 100.761 391.786 98.5094 392.068 97.3834 391.505 96.2581 390.66 85.5622 390.379 85.2807 390.097 80.778 388.971 74.5855 388.409 68.6752 388.127 68.3936 388.127 66.4235 385.594 51.7878 382.779 40.811 380.81 36.5892 379.402 34.9005C378.652 33.7747 377.62 33.1179 376.306 32.9303L373.773 32.9303 370.677 33.7747 365.892 36.5892C359.7 41.2801 353.883 46.4401 348.442 52.0693 348.629 52.6322 348.442 52.8198 347.879 52.6322 342.25 57.6984 337.09 63.2336 332.399 69.238L330.71 70.3636 325.362 70.3636 319.734 68.1122 310.727 65.2977 303.128 63.3275 300.032 63.0461 298.906 62.4831 295.247 61.9202 294.684 61.9202 292.714 61.0759 288.492 60.7944 286.24 60.2315 282.019 59.95 281.737 59.6686 279.204 59.6686 277.234 59.1057 273.012 59.1057 272.73 58.8242 257.813 58.8242 257.532 59.1057 253.31 59.1057 251.34 59.6686 248.806 59.6686 246.555 60.2315 240.082 60.7944 238.956 61.3573 238.111 61.0759 236.704 61.6387 233.045 62.2017 231.919 62.7646 227.416 63.3275 222.068 65.0162 217.846 65.8606 215.313 66.9864 210.81 68.1122 203.211 71.2081 201.804 71.2081 199.27 70.0824 183.509 53.4766C182.946 53.6642 182.758 53.5703 182.946 53.1951 177.317 47.1907 171.218 41.6554 164.652 36.5892L159.867 33.7747 156.771 32.9303 154.237 32.9303Z" stroke="#000000" stroke-width="14.4748" transform="matrix(1 0 0 1.00009 4646.81 5092)"/><path d="M1359.77 1477.56C1359.77 1469.49 1366.32 1462.94 1374.39 1462.94L1547.98 1462.94C1556.05 1462.94 1562.6 1469.49 1562.6 1477.56L1562.6 1536.05C1562.6 1544.12 1556.05 1550.67 1547.98 1550.67L1374.39 1550.67C1366.32 1550.67 1359.77 1544.12 1359.77 1536.05Z" stroke="#0049B0" stroke-width="6.43333" stroke-linejoin="round" stroke-miterlimit="10" fill="#0049B0" fill-rule="evenodd" transform="matrix(1 0 0 1.00037 3450.2 3769.28)"/><text fill="#FFFFFF" font-family="Arial,Arial_MSFontService,sans-serif" font-weight="700" font-size="87" transform="matrix(0.701818 0 0 0.702078 4841.91 5295)">Alice</text></g></g></g></g><text font-family="Arial Rounded MT Bold,Arial Rounded MT Bold_MSFontService,sans-serif" font-weight="700" font-size="110" transform="matrix(1 0 0 1 3788.84 6136)">Alice </text><text fill="#0049B0" font-family="Arial Rounded MT Bold,Arial Rounded MT Bold_MSFontService,sans-serif" font-weight="700" font-size="110" transform="matrix(1 0 0 1 4085.61 6136)">encodes secret</text><text fill="#0049B0" font-family="Arial Rounded MT Bold,Arial Rounded MT Bold_MSFontService,sans-serif" font-weight="700" font-size="110" transform="matrix(1 0 0 1 4937.65 6136)">bit </text><text font-family="Arial Rounded MT Bold,Arial Rounded MT Bold_MSFontService,sans-serif" font-weight="700" font-size="110" transform="matrix(1 0 0 1 3772.32 6268)">using unitary operations.</text><path d="M3930 5545.17C3930 5502 3965 5467 4008.17 5467L4320.83 5467C4364 5467 4399 5502 4399 5545.17L4399 5883.83C4399 5927 4364 5962 4320.83 5962L4008.17 5962C3965 5962 3930 5927 3930 5883.83Z" stroke="#0049B0" stroke-width="13.75" stroke-linejoin="round" stroke-miterlimit="10" fill="#F2F2F2" fill-rule="evenodd"/><text font-family="Arial Rounded MT Bold,Arial Rounded MT Bold_MSFontService,sans-serif" font-weight="700" font-size="73" transform="matrix(1 0 0 1 3985.77 5611)">Message0</text><path d="M3998.11 5766.89 4013.15 5766.89 4013.15 5768.64C4012.1 5768.9 4011.35 5769.16 4010.88 5769.42 4010.42 5769.69 4010.05 5770.01 4009.78 5770.4 4009.51 5770.8 4009.3 5771.38 4009.17 5772.17 4009.04 5772.95 4008.98 5774.16 4008.98 5775.8L4008.98 5806.64C4008.98 5808.23 4009.03 5809.39 4009.14 5810.13 4009.24 5810.87 4009.42 5811.45 4009.67 5811.88 4009.92 5812.3 4010.29 5812.66 4010.78 5812.95 4011.26 5813.23 4012.05 5813.52 4013.15 5813.8L4013.15 5815.55 3998.11 5815.55 3998.11 5813.8C3999.58 5813.42 4000.57 5813 4001.06 5812.54 4001.56 5812.07 4001.89 5811.41 4002.04 5810.56 4002.2 5809.7 4002.28 5808.4 4002.28 5806.64L4002.28 5775.8C4002.28 5774.16 4002.22 5772.97 4002.1 5772.22 4001.98 5771.47 4001.78 5770.89 4001.51 5770.48 4001.24 5770.06 4000.87 5769.73 4000.42 5769.48 3999.97 5769.23 3999.2 5768.95 3998.11 5768.64Z" fill-rule="evenodd"/><text fill="#000000" fill-opacity="0" font-family="Arial,Arial_MSFontService,sans-serif" font-size="48.6548" x="3998.11" y="5809.47">I</text><path d="M4043.54 5799.72 4087.45 5799.72 4087.45 5804.46 4043.54 5804.46ZM4043.54 5784.93 4087.45 5784.93 4087.45 5789.67 4043.54 5789.67Z" fill-rule="evenodd"/><text fill="#000000" fill-opacity="0" font-family="Arial,Arial_MSFontService,sans-serif" font-size="19.5332" x="4043.54" y="5802.02">=</text><path d="M4296.68 5734.82 4313.65 5734.82 4313.65 5854.59 4296.68 5854.59 4296.68 5851.49 4307.05 5851.49 4307.05 5737.92 4296.68 5737.92ZM4121.69 5734.82 4138.66 5734.82 4138.66 5737.92 4128.29 5737.92 4128.29 5851.49 4138.66 5851.49 4138.66 5854.59 4121.69 5854.59Z" fill-rule="evenodd"/><path d="M4163.42 5726.84 4165.38 5726.84C4165.24 5729.12 4165.16 5732.28 4165.16 5736.32L4165.16 5766.76C4165.16 5768.14 4165.24 5769.18 4165.4 5769.88 4165.55 5770.58 4165.82 5771.15 4166.22 5771.59 4166.61 5772.03 4167.17 5772.37 4167.91 5772.62 4168.65 5772.87 4169.57 5773.06 4170.69 5773.19 4171.81 5773.32 4173.28 5773.41 4175.11 5773.46L4175.11 5776.06 4148.77 5776.06 4148.77 5773.46C4151.41 5773.34 4153.29 5773.18 4154.42 5772.98 4155.55 5772.78 4156.41 5772.47 4157 5772.07 4157.6 5771.67 4158.03 5771.1 4158.3 5770.36 4158.58 5769.62 4158.71 5768.42 4158.71 5766.76L4158.71 5737.85C4158.71 5736.9 4158.55 5736.21 4158.21 5735.77 4157.88 5735.33 4157.39 5735.11 4156.75 5735.11 4155.99 5735.11 4154.91 5735.5 4153.51 5736.28 4152.11 5737.07 4150.37 5738.15 4148.3 5739.53L4146.74 5736.78Z" fill-rule="evenodd"/><text fill="#000000" fill-opacity="0" font-family="Arial,Arial_MSFontService,sans-serif" font-size="49.2251" x="4146.74" y="5769.91">1</text><path d="M4274.61 5729.87C4272.97 5729.87 4271.6 5730.35 4270.49 5731.33 4269.39 5732.3 4268.5 5733.71 4267.82 5735.53 4267.14 5737.36 4266.66 5739.59 4266.38 5742.22 4266.09 5744.84 4265.95 5747.81 4265.95 5751.11 4265.95 5758.86 4266.67 5764.54 4268.11 5768.17 4269.54 5771.79 4271.77 5773.6 4274.79 5773.6 4277.67 5773.6 4279.8 5771.9 4281.19 5768.49 4282.58 5765.08 4283.27 5759.8 4283.27 5752.64 4283.27 5747.18 4282.92 5742.75 4282.2 5739.37 4281.49 5735.98 4280.5 5733.55 4279.23 5732.08 4277.96 5730.6 4276.42 5729.87 4274.61 5729.87ZM4274.79 5726.84C4279.99 5726.84 4283.87 5728.85 4286.41 5732.86 4288.95 5736.88 4290.22 5742.95 4290.22 5751.08 4290.22 5759.49 4288.86 5765.85 4286.14 5770.16 4283.42 5774.48 4279.45 5776.63 4274.22 5776.63 4269.09 5776.63 4265.27 5774.61 4262.76 5770.57 4260.25 5766.53 4259 5760.4 4259 5752.18 4259 5747.81 4259.39 5744.03 4260.16 5740.85 4260.93 5737.66 4262.01 5735.03 4263.4 5732.95 4264.79 5730.87 4266.46 5729.33 4268.41 5728.33 4270.36 5727.34 4272.48 5726.84 4274.79 5726.84Z" fill-rule="evenodd"/><text fill="#000000" fill-opacity="0" font-family="Arial,Arial_MSFontService,sans-serif" font-size="49.7954" x="4259" y="5770.41">0</text><path d="M4160.6 5815.85C4158.96 5815.85 4157.59 5816.34 4156.48 5817.31 4155.38 5818.29 4154.49 5819.69 4153.81 5821.52 4153.13 5823.35 4152.65 5825.58 4152.37 5828.2 4152.08 5830.83 4151.94 5833.79 4151.94 5837.09 4151.94 5844.84 4152.66 5850.53 4154.1 5854.15 4155.53 5857.77 4157.76 5859.59 4160.78 5859.59 4163.66 5859.59 4165.79 5857.88 4167.18 5854.47 4168.57 5851.06 4169.26 5845.78 4169.26 5838.63 4169.26 5833.16 4168.91 5828.74 4168.19 5825.35 4167.48 5821.96 4166.49 5819.53 4165.22 5818.06 4163.95 5816.59 4162.41 5815.85 4160.6 5815.85ZM4160.78 5812.82C4165.98 5812.82 4169.86 5814.83 4172.4 5818.84 4174.94 5822.86 4176.21 5828.93 4176.21 5837.06 4176.21 5845.47 4174.85 5851.83 4172.13 5856.15 4169.41 5860.46 4165.44 5862.62 4160.21 5862.62 4155.08 5862.62 4151.26 5860.6 4148.75 5856.56 4146.24 5852.52 4144.99 5846.39 4144.99 5838.16 4144.99 5833.79 4145.38 5830.01 4146.15 5826.83 4146.92 5823.65 4148 5821.01 4149.39 5818.93 4150.78 5816.85 4152.45 5815.32 4154.4 5814.32 4156.35 5813.32 4158.47 5812.82 4160.78 5812.82Z" fill-rule="evenodd"/><text fill="#000000" fill-opacity="0" font-family="Arial,Arial_MSFontService,sans-serif" font-size="49.7954" x="4144.99" y="5856.39">0</text><path d="M4277.43 5812.82 4279.39 5812.82C4279.25 5815.1 4279.17 5818.26 4279.17 5822.3L4279.17 5852.74C4279.17 5854.12 4279.25 5855.16 4279.41 5855.86 4279.56 5856.56 4279.83 5857.13 4280.23 5857.57 4280.62 5858.01 4281.18 5858.36 4281.92 5858.61 4282.66 5858.86 4283.58 5859.05 4284.7 5859.18 4285.82 5859.31 4287.29 5859.4 4289.12 5859.44L4289.12 5862.05 4262.78 5862.05 4262.78 5859.44C4265.42 5859.33 4267.3 5859.16 4268.43 5858.96 4269.56 5858.76 4270.42 5858.46 4271.01 5858.05 4271.61 5857.65 4272.04 5857.08 4272.31 5856.34 4272.59 5855.61 4272.72 5854.41 4272.72 5852.74L4272.72 5823.83C4272.72 5822.88 4272.56 5822.19 4272.22 5821.75 4271.89 5821.31 4271.4 5821.09 4270.76 5821.09 4270 5821.09 4268.92 5821.48 4267.52 5822.27 4266.12 5823.05 4264.38 5824.13 4262.31 5825.51L4260.75 5822.77Z" fill-rule="evenodd"/><text fill="#000000" fill-opacity="0" font-family="Arial,Arial_MSFontService,sans-serif" font-size="49.2251" x="4260.75" y="5855.89">1</text><path d="M4444 5545.17C4444 5502 4479 5467 4522.17 5467L4834.83 5467C4878 5467 4913 5502 4913 5545.17L4913 5883.83C4913 5927 4878 5962 4834.83 5962L4522.17 5962C4479 5962 4444 5927 4444 5883.83Z" stroke="#0049B0" stroke-width="13.75" stroke-linejoin="round" stroke-miterlimit="10" fill="#F2F2F2" fill-rule="evenodd"/><text font-family="Arial Rounded MT Bold,Arial Rounded MT Bold_MSFontService,sans-serif" font-weight="700" font-size="73" transform="matrix(1 0 0 1 4499.49 5611)">Message1</text><path d="M4475.35 5770.65 4490.32 5770.65 4490.32 5772.39C4488.99 5772.73 4488.06 5773.1 4487.54 5773.52 4487.02 5773.93 4486.66 5774.56 4486.47 5775.39 4486.28 5776.22 4486.18 5777.61 4486.18 5779.56L4486.18 5804.8C4486.18 5807.1 4486.43 5809.04 4486.91 5810.61 4487.4 5812.17 4488.08 5813.39 4488.96 5814.26 4489.84 5815.13 4490.89 5815.76 4492.1 5816.15 4493.31 5816.54 4494.82 5816.74 4496.63 5816.74 4498.29 5816.74 4499.75 5816.45 4501.01 5815.86 4502.27 5815.28 4503.32 5814.4 4504.17 5813.21 4505.01 5812.02 4505.59 5810.56 4505.9 5808.82 4506.2 5807.09 4506.36 5804.76 4506.36 5801.84L4506.36 5779.56C4506.36 5777.49 4506.26 5776.08 4506.06 5775.32 4505.85 5774.56 4505.52 5773.97 4505.06 5773.57 4504.59 5773.17 4503.64 5772.77 4502.19 5772.39L4502.19 5770.65 4516.41 5770.65 4516.41 5772.39C4515.03 5772.75 4514.09 5773.14 4513.58 5773.57 4513.07 5774 4512.71 5774.62 4512.52 5775.42 4512.33 5776.23 4512.24 5777.61 4512.24 5779.56L4512.24 5802.48C4512.24 5805.07 4512 5807.3 4511.53 5809.18 4511.08 5810.96 4510.4 5812.54 4509.5 5813.92 4508.66 5815.16 4507.63 5816.21 4506.39 5817.08 4505.16 5817.94 4503.66 5818.63 4501.9 5819.12 4500.14 5819.62 4498.08 5819.87 4495.7 5819.87 4492.83 5819.87 4490.36 5819.55 4488.3 5818.91 4486.25 5818.27 4484.55 5817.22 4483.21 5815.76 4481.86 5814.29 4480.9 5812.57 4480.3 5810.59 4479.71 5808.6 4479.41 5806.08 4479.41 5803.01L4479.41 5779.56C4479.41 5777.71 4479.35 5776.45 4479.23 5775.8 4479.11 5775.15 4478.94 5774.63 4478.72 5774.25 4478.49 5773.87 4478.16 5773.54 4477.74 5773.27 4477.31 5772.99 4476.51 5772.7 4475.35 5772.39Z" fill-rule="evenodd"/><text fill="#000000" fill-opacity="0" font-family="Arial,Arial_MSFontService,sans-serif" font-size="49.2251" x="4475.35" y="5813.72">U</text><path d="M4545.38 5803.48 4589.29 5803.48 4589.29 5808.22 4545.38 5808.22ZM4545.38 5788.68 4589.29 5788.68 4589.29 5793.42 4545.38 5793.42Z" fill-rule="evenodd"/><text fill="#000000" fill-opacity="0" font-family="Arial,Arial_MSFontService,sans-serif" font-size="19.5332" x="4545.38" y="5805.78">=</text><path d="M4853.52 5738.58 4870.49 5738.58 4870.49 5858.34 4853.52 5858.34 4853.52 5855.24 4863.89 5855.24 4863.89 5741.68 4853.52 5741.68ZM4623.53 5738.58 4640.5 5738.58 4640.5 5741.68 4630.12 5741.68 4630.12 5855.24 4640.5 5855.24 4640.5 5858.34 4623.53 5858.34Z" fill-rule="evenodd"/><path d="M4689.94 5733.62C4688.3 5733.62 4686.93 5734.11 4685.82 5735.08 4684.72 5736.06 4683.82 5737.46 4683.15 5739.29 4682.47 5741.12 4681.99 5743.35 4681.7 5745.97 4681.42 5748.6 4681.28 5751.56 4681.28 5754.87 4681.28 5762.61 4681.99 5768.3 4683.43 5771.92 4684.87 5775.55 4687.1 5777.36 4690.12 5777.36 4692.99 5777.36 4695.12 5775.65 4696.51 5772.24 4697.9 5768.83 4698.6 5763.55 4698.6 5756.4 4698.6 5750.93 4698.24 5746.51 4697.53 5743.12 4696.82 5739.74 4695.82 5737.31 4694.55 5735.83 4693.28 5734.36 4691.74 5733.62 4689.94 5733.62ZM4690.12 5730.59C4695.32 5730.59 4699.19 5732.6 4701.74 5736.62 4704.28 5740.63 4705.55 5746.7 4705.55 5754.83 4705.55 5763.24 4704.19 5769.61 4701.47 5773.92 4698.75 5778.23 4694.77 5780.39 4689.55 5780.39 4684.41 5780.39 4680.59 5778.37 4678.09 5774.33 4675.58 5770.29 4674.33 5764.16 4674.33 5755.94 4674.33 5751.56 4674.71 5747.78 4675.48 5744.6 4676.26 5741.42 4677.34 5738.78 4678.73 5736.71 4680.12 5734.63 4681.79 5733.09 4683.74 5732.09 4685.68 5731.09 4687.81 5730.59 4690.12 5730.59Z" fill-rule="evenodd"/><text fill="#000000" fill-opacity="0" font-family="Arial,Arial_MSFontService,sans-serif" font-size="49.7954" x="4674.33" y="5774.16">0</text><path d="M4834.26 5730.59 4836.22 5730.59C4836.08 5732.87 4836.01 5736.03 4836.01 5740.07L4836.01 5770.51C4836.01 5771.89 4836.09 5772.93 4836.24 5773.63 4836.4 5774.33 4836.67 5774.9 4837.06 5775.34 4837.45 5775.78 4838.02 5776.13 4838.76 5776.38 4839.49 5776.63 4840.42 5776.82 4841.54 5776.95 4842.65 5777.08 4844.13 5777.17 4845.96 5777.22L4845.96 5779.82 4819.61 5779.82 4819.61 5777.22C4822.25 5777.1 4824.14 5776.94 4825.26 5776.73 4826.39 5776.53 4827.25 5776.23 4827.85 5775.83 4828.44 5775.42 4828.88 5774.85 4829.15 5774.11 4829.42 5773.38 4829.56 5772.18 4829.56 5770.51L4829.56 5741.61C4829.56 5740.66 4829.39 5739.96 4829.06 5739.52 4828.73 5739.08 4828.24 5738.86 4827.6 5738.86 4826.84 5738.86 4825.76 5739.25 4824.35 5740.04 4822.95 5740.82 4821.22 5741.9 4819.15 5743.28L4817.58 5740.54Z" fill-rule="evenodd"/><text fill="#000000" fill-opacity="0" font-family="Arial,Arial_MSFontService,sans-serif" font-size="49.2251" x="4817.58" y="5773.66">1</text><path d="M4647.54 5842.56 4691.45 5842.56 4691.45 5847.3 4647.54 5847.3Z" fill-rule="evenodd"/><text fill="#000000" fill-opacity="0" font-family="Arial,Arial_MSFontService,sans-serif" font-size="4.74072" x="4647.54" y="5846.71">−</text><path d="M4720.25 5816.58 4722.21 5816.58C4722.07 5818.86 4722 5822.02 4722 5826.06L4722 5856.5C4722 5857.88 4722.08 5858.92 4722.23 5859.62 4722.39 5860.32 4722.66 5860.89 4723.05 5861.33 4723.44 5861.77 4724.01 5862.11 4724.74 5862.36 4725.48 5862.61 4726.41 5862.8 4727.52 5862.93 4728.64 5863.06 4730.12 5863.15 4731.94 5863.2L4731.94 5865.8 4705.6 5865.8 4705.6 5863.2C4708.24 5863.08 4710.12 5862.92 4711.25 5862.72 4712.38 5862.52 4713.24 5862.21 4713.84 5861.81 4714.43 5861.4 4714.87 5860.83 4715.14 5860.1 4715.41 5859.36 4715.55 5858.16 4715.55 5856.5L4715.55 5827.59C4715.55 5826.64 4715.38 5825.94 4715.05 5825.5 4714.72 5825.06 4714.23 5824.85 4713.59 5824.85 4712.83 5824.85 4711.75 5825.24 4710.34 5826.02 4708.94 5826.81 4707.21 5827.89 4705.14 5829.27L4703.57 5826.52Z" fill-rule="evenodd"/><text fill="#000000" fill-opacity="0" font-family="Arial,Arial_MSFontService,sans-serif" font-size="49.2251" x="4703.57" y="5859.65">1</text><path d="M4831.45 5819.61C4829.81 5819.61 4828.44 5820.09 4827.33 5821.07 4826.23 5822.04 4825.33 5823.44 4824.66 5825.27 4823.98 5827.1 4823.5 5829.33 4823.21 5831.96 4822.93 5834.58 4822.79 5837.55 4822.79 5840.85 4822.79 5848.6 4823.51 5854.28 4824.94 5857.91 4826.38 5861.53 4828.61 5863.34 4831.63 5863.34 4834.5 5863.34 4836.63 5861.64 4838.02 5858.23 4839.41 5854.82 4840.11 5849.54 4840.11 5842.38 4840.11 5836.92 4839.75 5832.49 4839.04 5829.1 4838.33 5825.72 4837.34 5823.29 4836.06 5821.82 4834.79 5820.34 4833.25 5819.61 4831.45 5819.61ZM4831.63 5816.58C4836.83 5816.58 4840.7 5818.58 4843.25 5822.6 4845.79 5826.62 4847.06 5832.69 4847.06 5840.81 4847.06 5849.23 4845.7 5855.59 4842.98 5859.9 4840.26 5864.21 4836.28 5866.37 4831.06 5866.37 4825.92 5866.37 4822.1 5864.35 4819.6 5860.31 4817.09 5856.27 4815.84 5850.14 4815.84 5841.92 4815.84 5837.55 4816.22 5833.77 4816.99 5830.58 4817.77 5827.4 4818.85 5824.77 4820.24 5822.69 4821.63 5820.61 4823.3 5819.07 4825.25 5818.07 4827.19 5817.07 4829.32 5816.58 4831.63 5816.58Z" fill-rule="evenodd"/><text fill="#000000" fill-opacity="0" font-family="Arial,Arial_MSFontService,sans-serif" font-size="49.7954" x="4815.84" y="5860.15">0</text></g></svg>