<svg width="1512" height="1397" xmlns="http://www.w3.org/2000/svg" xmlns:xlink="http://www.w3.org/1999/xlink" xml:space="preserve" overflow="hidden"><g transform="translate(-2086 -5094)"><path d="M2226.5 5243.5C2226.5 5190.48 2269.48 5147.5 2322.5 5147.5L2324.5 5147.5C2377.52 5147.5 2420.5 5190.48 2420.5 5243.5L2420.5 5243.5C2420.5 5296.52 2377.52 5339.5 2324.5 5339.5L2322.5 5339.5C2269.48 5339.5 2226.5 5296.52 2226.5 5243.5Z" stroke="#0049B0" stroke-width="9.16667" stroke-linejoin="round" stroke-miterlimit="10" fill="#0049B0" fill-rule="evenodd"/><text fill="#FFFFFF" font-family="Arial Rounded MT Bold,Arial Rounded MT Bold_MSFontService,sans-serif" font-weight="700" font-size="128" transform="matrix(1 0 0 1 2284.82 5292)">2</text><text font-family="Arial Rounded MT Bold,Arial Rounded MT Bold_MSFontService,sans-serif" font-weight="700" font-size="110" transform="matrix(1 0 0 1 2588.83 5286)">TRANSMIT</text><text font-family="Arial Rounded MT Bold,Arial Rounded MT Bold_MSFontService,sans-serif" font-weight="700" font-size="110" transform="matrix(1 0 0 1 2461.82 6136)">Charlie applies </text><text font-family="Arial Rounded MT Bold,Arial Rounded MT Bold_MSFontService,sans-serif" font-weight="700" font-size="110" transform="matrix(1 0 0 1 2260.88 6268)">unitary operations and </text><text font-family="Arial Rounded MT Bold,Arial Rounded MT Bold_MSFontService,sans-serif" font-weight="700" font-size="110" transform="matrix(1 0 0 1 2323.88 6400)">sends them to Alice.</text><path d="M2093 5532.33C2093 5489.07 2128.07 5454 2171.33 5454L2484.67 5454C2527.93 5454 2563 5489.07 2563 5532.33L2563 5870.67C2563 5913.93 2527.93 5949 2484.67 5949L2171.33 5949C2128.07 5949 2093 5913.93 2093 5870.67Z" stroke="#478CEA" stroke-width="13.75" stroke-linejoin="round" stroke-miterlimit="10" fill="#F2F2F2" fill-rule="evenodd"/><text font-family="Arial Rounded MT Bold,Arial Rounded MT Bold_MSFontService,sans-serif" font-weight="700" font-size="73" transform="matrix(1 0 0 1 2316.48 5599)">I</text><path d="M2400.15 5722.22 2417.12 5722.22 2417.12 5841.99 2400.15 5841.99 2400.15 5838.89 2410.53 5838.89 2410.53 5725.32 2400.15 5725.32ZM2225.16 5722.22 2242.13 5722.22 2242.13 5725.32 2231.76 5725.32 2231.76 5838.89 2242.13 5838.89 2242.13 5841.99 2225.16 5841.99Z" fill-rule="evenodd"/><path d="M2266.89 5714.24 2268.85 5714.24C2268.71 5716.52 2268.63 5719.68 2268.63 5723.72L2268.63 5754.16C2268.63 5755.54 2268.71 5756.58 2268.87 5757.28 2269.02 5757.98 2269.29 5758.55 2269.69 5758.99 2270.08 5759.43 2270.64 5759.77 2271.38 5760.02 2272.12 5760.27 2273.04 5760.46 2274.16 5760.59 2275.28 5760.72 2276.75 5760.81 2278.58 5760.86L2278.58 5763.46 2252.24 5763.46 2252.24 5760.86C2254.88 5760.74 2256.76 5760.58 2257.89 5760.38 2259.02 5760.18 2259.88 5759.87 2260.47 5759.47 2261.07 5759.07 2261.5 5758.5 2261.77 5757.76 2262.05 5757.02 2262.18 5755.82 2262.18 5754.16L2262.18 5725.25C2262.18 5724.3 2262.02 5723.6 2261.68 5723.17 2261.35 5722.73 2260.86 5722.51 2260.22 5722.51 2259.46 5722.51 2258.38 5722.9 2256.98 5723.68 2255.58 5724.47 2253.84 5725.55 2251.77 5726.93L2250.21 5724.18Z" fill-rule="evenodd"/><text fill="#000000" fill-opacity="0" font-family="Arial,Arial_MSFontService,sans-serif" font-size="49.2251" x="2250.21" y="5757.31">1</text><path d="M2378.08 5717.27C2376.44 5717.27 2375.07 5717.75 2373.97 5718.73 2372.86 5719.7 2371.97 5721.1 2371.29 5722.93 2370.62 5724.76 2370.13 5726.99 2369.85 5729.62 2369.56 5732.24 2369.42 5735.21 2369.42 5738.51 2369.42 5746.26 2370.14 5751.94 2371.58 5755.57 2373.02 5759.19 2375.24 5761 2378.26 5761 2381.14 5761 2383.27 5759.3 2384.66 5755.89 2386.05 5752.48 2386.74 5747.2 2386.74 5740.04 2386.74 5734.58 2386.39 5730.15 2385.68 5726.77 2384.96 5723.38 2383.97 5720.95 2382.7 5719.48 2381.43 5718 2379.89 5717.27 2378.08 5717.27ZM2378.26 5714.24C2383.47 5714.24 2387.34 5716.24 2389.88 5720.26 2392.42 5724.28 2393.7 5730.35 2393.7 5738.47 2393.7 5746.89 2392.33 5753.25 2389.61 5757.56 2386.89 5761.88 2382.92 5764.03 2377.69 5764.03 2372.56 5764.03 2368.74 5762.01 2366.23 5757.97 2363.72 5753.93 2362.47 5747.8 2362.47 5739.58 2362.47 5735.21 2362.86 5731.43 2363.63 5728.24 2364.4 5725.06 2365.48 5722.43 2366.87 5720.35 2368.26 5718.27 2369.93 5716.73 2371.88 5715.73 2373.83 5714.74 2375.96 5714.24 2378.26 5714.24Z" fill-rule="evenodd"/><text fill="#000000" fill-opacity="0" font-family="Arial,Arial_MSFontService,sans-serif" font-size="49.7954" x="2362.47" y="5757.81">0</text><path d="M2264.07 5803.25C2262.43 5803.25 2261.06 5803.74 2259.96 5804.71 2258.85 5805.69 2257.96 5807.09 2257.28 5808.92 2256.6 5810.75 2256.12 5812.97 2255.84 5815.6 2255.55 5818.23 2255.41 5821.19 2255.41 5824.49 2255.41 5832.24 2256.13 5837.93 2257.57 5841.55 2259 5845.17 2261.23 5846.99 2264.25 5846.99 2267.13 5846.99 2269.26 5845.28 2270.65 5841.87 2272.04 5838.46 2272.73 5833.18 2272.73 5826.03 2272.73 5820.56 2272.38 5816.14 2271.66 5812.75 2270.95 5809.36 2269.96 5806.93 2268.69 5805.46 2267.42 5803.99 2265.88 5803.25 2264.07 5803.25ZM2264.25 5800.22C2269.45 5800.22 2273.33 5802.23 2275.87 5806.24 2278.41 5810.26 2279.68 5816.33 2279.68 5824.46 2279.68 5832.87 2278.32 5839.23 2275.6 5843.55 2272.88 5847.86 2268.91 5850.02 2263.68 5850.02 2258.55 5850.02 2254.73 5848 2252.22 5843.96 2249.71 5839.92 2248.46 5833.79 2248.46 5825.56 2248.46 5821.19 2248.85 5817.41 2249.62 5814.23 2250.39 5811.04 2251.47 5808.41 2252.86 5806.33 2254.25 5804.25 2255.92 5802.71 2257.87 5801.72 2259.82 5800.72 2261.95 5800.22 2264.25 5800.22Z" fill-rule="evenodd"/><text fill="#000000" fill-opacity="0" font-family="Arial,Arial_MSFontService,sans-serif" font-size="49.7954" x="2248.46" y="5843.79">0</text><path d="M2380.9 5800.22 2382.86 5800.22C2382.72 5802.5 2382.65 5805.66 2382.65 5809.7L2382.65 5840.14C2382.65 5841.52 2382.72 5842.56 2382.88 5843.26 2383.03 5843.96 2383.3 5844.53 2383.7 5844.97 2384.09 5845.41 2384.65 5845.76 2385.39 5846.01 2386.13 5846.25 2387.05 5846.44 2388.17 5846.58 2389.29 5846.71 2390.76 5846.8 2392.59 5846.84L2392.59 5849.44 2366.25 5849.44 2366.25 5846.84C2368.89 5846.72 2370.77 5846.56 2371.9 5846.36 2373.03 5846.16 2373.89 5845.86 2374.48 5845.45 2375.08 5845.05 2375.51 5844.48 2375.78 5843.74 2376.06 5843 2376.19 5841.81 2376.19 5840.14L2376.19 5811.23C2376.19 5810.28 2376.03 5809.59 2375.69 5809.15 2375.36 5808.71 2374.87 5808.49 2374.23 5808.49 2373.47 5808.49 2372.39 5808.88 2370.99 5809.67 2369.59 5810.45 2367.85 5811.53 2365.79 5812.91L2364.22 5810.16Z" fill-rule="evenodd"/><text fill="#000000" fill-opacity="0" font-family="Arial,Arial_MSFontService,sans-serif" font-size="49.2251" x="2364.22" y="5843.29">1</text><path d="M2607 5532.17C2607 5489 2642 5454 2685.17 5454L2997.83 5454C3041 5454 3076 5489 3076 5532.17L3076 5870.83C3076 5914 3041 5949 2997.83 5949L2685.17 5949C2642 5949 2607 5914 2607 5870.83Z" stroke="#478CEA" stroke-width="13.75" stroke-linejoin="round" stroke-miterlimit="10" fill="#F2F2F2" fill-rule="evenodd"/><text font-family="Arial Rounded MT Bold,Arial Rounded MT Bold_MSFontService,sans-serif" font-weight="700" font-size="73" transform="matrix(1 0 0 1 2818.73 5599)">Y</text><path d="M2945.23 5725.98 2962.2 5725.98 2962.2 5845.74 2945.23 5845.74 2945.23 5842.64 2955.61 5842.64 2955.61 5729.08 2945.23 5729.08ZM2715.24 5725.98 2732.21 5725.98 2732.21 5729.08 2721.84 5729.08 2721.84 5842.64 2732.21 5842.64 2732.21 5845.74 2715.24 5845.74Z" fill-rule="evenodd"/><path d="M2781.65 5721.02C2780.01 5721.02 2778.64 5721.51 2777.54 5722.48 2776.43 5723.46 2775.54 5724.86 2774.86 5726.69 2774.18 5728.52 2773.7 5730.75 2773.42 5733.37 2773.13 5736 2772.99 5738.96 2772.99 5742.27 2772.99 5750.01 2773.71 5755.7 2775.15 5759.32 2776.58 5762.94 2778.81 5764.76 2781.83 5764.76 2784.71 5764.76 2786.84 5763.05 2788.23 5759.64 2789.62 5756.23 2790.31 5750.95 2790.31 5743.8 2790.31 5738.33 2789.96 5733.91 2789.24 5730.52 2788.53 5727.13 2787.54 5724.7 2786.27 5723.23 2785 5721.76 2783.46 5721.02 2781.65 5721.02ZM2781.83 5717.99C2787.03 5717.99 2790.91 5720 2793.45 5724.02 2795.99 5728.03 2797.26 5734.1 2797.26 5742.23 2797.26 5750.64 2795.9 5757 2793.18 5761.32 2790.46 5765.63 2786.49 5767.79 2781.26 5767.79 2776.13 5767.79 2772.31 5765.77 2769.8 5761.73 2767.29 5757.69 2766.04 5751.56 2766.04 5743.33 2766.04 5738.96 2766.43 5735.18 2767.2 5732 2767.97 5728.82 2769.05 5726.18 2770.44 5724.1 2771.83 5722.02 2773.5 5720.49 2775.45 5719.49 2777.4 5718.49 2779.53 5717.99 2781.83 5717.99Z" fill-rule="evenodd"/><text fill="#000000" fill-opacity="0" font-family="Arial,Arial_MSFontService,sans-serif" font-size="49.7954" x="2766.04" y="5761.56">0</text><path d="M2925.98 5717.99 2927.94 5717.99C2927.8 5720.27 2927.73 5723.43 2927.73 5727.47L2927.73 5757.91C2927.73 5759.29 2927.8 5760.33 2927.96 5761.03 2928.11 5761.73 2928.38 5762.3 2928.78 5762.74 2929.17 5763.18 2929.73 5763.53 2930.47 5763.78 2931.21 5764.03 2932.13 5764.22 2933.25 5764.35 2934.37 5764.48 2935.84 5764.57 2937.67 5764.61L2937.67 5767.22 2911.33 5767.22 2911.33 5764.61C2913.97 5764.5 2915.85 5764.33 2916.98 5764.13 2918.11 5763.93 2918.97 5763.63 2919.56 5763.22 2920.16 5762.82 2920.59 5762.25 2920.86 5761.51 2921.14 5760.78 2921.27 5759.58 2921.27 5757.91L2921.27 5729.01C2921.27 5728.05 2921.11 5727.36 2920.77 5726.92 2920.44 5726.48 2919.95 5726.26 2919.31 5726.26 2918.55 5726.26 2917.47 5726.65 2916.07 5727.44 2914.67 5728.22 2912.93 5729.3 2910.87 5730.68L2909.3 5727.94Z" fill-rule="evenodd"/><text fill="#000000" fill-opacity="0" font-family="Arial,Arial_MSFontService,sans-serif" font-size="49.2251" x="2909.3" y="5761.06">1</text><path d="M2739.25 5829.96 2783.17 5829.96 2783.17 5834.7 2739.25 5834.7Z" fill-rule="evenodd"/><text fill="#000000" fill-opacity="0" font-family="Arial,Arial_MSFontService,sans-serif" font-size="4.74072" x="2739.25" y="5834.11">−</text><path d="M2811.97 5803.97 2813.93 5803.97C2813.79 5806.26 2813.71 5809.42 2813.71 5813.46L2813.71 5843.9C2813.71 5845.27 2813.79 5846.31 2813.95 5847.02 2814.1 5847.72 2814.37 5848.29 2814.77 5848.73 2815.16 5849.17 2815.72 5849.51 2816.46 5849.76 2817.2 5850.01 2818.12 5850.2 2819.24 5850.33 2820.36 5850.46 2821.83 5850.55 2823.66 5850.6L2823.66 5853.2 2797.32 5853.2 2797.32 5850.6C2799.96 5850.48 2801.84 5850.32 2802.97 5850.12 2804.1 5849.91 2804.96 5849.61 2805.55 5849.21 2806.15 5848.8 2806.58 5848.23 2806.85 5847.5 2807.13 5846.76 2807.26 5845.56 2807.26 5843.9L2807.26 5814.99C2807.26 5814.04 2807.1 5813.34 2806.76 5812.9 2806.43 5812.46 2805.94 5812.24 2805.3 5812.24 2804.54 5812.24 2803.46 5812.64 2802.06 5813.42 2800.66 5814.2 2798.92 5815.29 2796.85 5816.66L2795.29 5813.92Z" fill-rule="evenodd"/><text fill="#000000" fill-opacity="0" font-family="Arial,Arial_MSFontService,sans-serif" font-size="49.2251" x="2795.29" y="5847.05">1</text><path d="M2923.16 5807C2921.52 5807 2920.15 5807.49 2919.05 5808.47 2917.94 5809.44 2917.05 5810.84 2916.37 5812.67 2915.7 5814.5 2915.21 5816.73 2914.93 5819.36 2914.64 5821.98 2914.5 5824.95 2914.5 5828.25 2914.5 5836 2915.22 5841.68 2916.66 5845.3 2918.1 5848.93 2920.32 5850.74 2923.34 5850.74 2926.22 5850.74 2928.35 5849.04 2929.74 5845.63 2931.13 5842.22 2931.82 5836.93 2931.82 5829.78 2931.82 5824.32 2931.47 5819.89 2930.76 5816.5 2930.04 5813.12 2929.05 5810.69 2927.78 5809.21 2926.51 5807.74 2924.97 5807 2923.16 5807ZM2923.34 5803.97C2928.55 5803.97 2932.42 5805.98 2934.96 5810 2937.5 5814.01 2938.78 5820.09 2938.78 5828.21 2938.78 5836.62 2937.41 5842.99 2934.69 5847.3 2931.97 5851.61 2928 5853.77 2922.77 5853.77 2917.64 5853.77 2913.82 5851.75 2911.31 5847.71 2908.8 5843.67 2907.55 5837.54 2907.55 5829.32 2907.55 5824.95 2907.94 5821.17 2908.71 5817.98 2909.48 5814.8 2910.56 5812.17 2911.95 5810.09 2913.34 5808.01 2915.01 5806.47 2916.96 5805.47 2918.91 5804.47 2921.04 5803.97 2923.34 5803.97Z" fill-rule="evenodd"/><text fill="#000000" fill-opacity="0" font-family="Arial,Arial_MSFontService,sans-serif" font-size="49.7954" x="2907.55" y="5847.55">0</text><path d="M3120 5538.33C3120 5495.07 3155.07 5460 3198.33 5460L3511.67 5460C3554.93 5460 3590 5495.07 3590 5538.33L3590 5877.67C3590 5920.93 3554.93 5956 3511.67 5956L3198.33 5956C3155.07 5956 3120 5920.93 3120 5877.67Z" stroke="#478CEA" stroke-width="13.75" stroke-linejoin="round" stroke-miterlimit="10" fill="#F2F2F2" fill-rule="evenodd"/><text font-family="Arial Rounded MT Bold,Arial Rounded MT Bold_MSFontService,sans-serif" font-weight="700" font-size="73" transform="matrix(1 0 0 1 3327.2 5605)">H</text><g><g><g><path d="M153.253 21.6721 159.163 21.9535 163.666 23.3608 168.17 25.6124C176.276 31.2041 183.641 37.5369 190.264 44.6107 190.133 45.0422 190.273 45.1829 190.686 45.0329L197.582 51.9286 197.582 52.3508 198.427 52.773 203.915 58.8243 212.64 55.7282 218.551 54.321 220.52 53.4766 227.838 52.0693 231.497 50.9435 238.253 50.0991 243.6 48.9733 247.822 48.6919 248.103 48.4104 251.199 48.4104 251.481 48.1289 254.295 48.1289 254.577 47.8475 260.206 47.8475 260.487 47.566 269.775 47.566 270.057 47.8475 275.686 47.8475 275.968 48.1289 284.692 48.6919 284.974 48.9733 286.944 48.9733 288.633 49.5362 290.322 49.5362 292.01 50.0991 298.766 50.9435 302.424 52.0693 309.742 53.4766 326.77 58.8243 329.022 55.869 339.576 45.0329C340.007 45.1829 340.148 45.0422 339.998 44.6107L344.783 40.1074C344.651 39.6946 344.792 39.5538 345.205 39.6852 350.553 34.1499 356.557 29.2714 363.219 25.0496L366.596 23.3608 371.1 21.9535 377.01 21.6721 380.387 22.5165 384.046 24.2052 387.283 26.879 389.816 29.975 392.631 35.3227 395.727 45.7365 396.571 51.3656 398.26 58.6835 399.105 66.2828 400.23 71.9123 400.793 78.6671 401.356 81.1999 401.356 83.7328 401.637 84.0143 402.2 90.2068 402.482 90.4883 403.326 101.747 403.889 104.561 403.889 107.375 404.452 109.627 405.578 120.886 405.859 122.292 406.985 123.981 411.207 133.551 413.177 138.617 413.177 139.462 414.022 140.587 417.399 150.438 417.399 151.283 417.962 152.127 421.058 163.666 421.621 167.888 422.746 172.11 423.309 178.302 423.591 178.583 423.872 185.057 424.154 185.339 424.154 196.597 423.872 196.879 423.872 200.256 423.591 200.538 423.309 205.322 422.184 211.233 419.087 222.209 416.273 229.246 413.459 234.875 409.237 241.911 400.23 253.592 399.105 254.295 395.023 258.658 394.038 259.361C394.188 259.793 394.046 259.934 393.616 259.783L384.609 267.383 371.944 275.545 358.434 282.3 346.894 286.803 342.672 287.929 338.45 289.618 322.126 293.84 308.898 296.373 304.957 296.655 302.706 297.218 300.454 297.218 296.232 298.061 287.507 298.624 287.226 298.906 276.531 299.187 276.249 299.469 254.295 299.469 254.014 299.187 248.103 299.187 247.822 298.906 243.037 298.906 242.755 298.624 239.941 298.624 239.659 298.343 236.564 298.343 236.282 298.061 231.779 297.78 231.497 297.499 227.557 297.218 223.335 296.373 221.365 296.373 219.677 295.81 218.269 295.81 213.766 294.684 209.544 294.121 198.848 291.588 198.004 291.025 196.879 291.025 193.782 289.899 191.812 289.618 187.59 287.929 183.368 286.803 168.17 280.611 154.942 273.575 144.246 266.257 133.692 257.11C133.841 256.697 133.701 256.556 133.269 256.688 124.019 247.737 116.842 236.714 111.738 223.616L109.205 215.736 107.235 206.729 107.235 205.04 106.672 202.789 106.672 199.975 106.39 199.693 106.39 196.316 106.109 196.034 106.109 186.183 106.39 185.901 106.39 182.242 106.672 181.961 106.672 178.865 106.953 178.583 107.235 174.362 109.768 161.415 110.894 158.319 111.738 154.097 114.553 145.372 115.959 142.276 115.959 141.431 117.086 139.462 117.086 138.617 121.026 129.047 124.403 122.292 124.966 119.478 125.529 112.442 125.811 112.16 125.811 109.908 126.374 109.064 126.092 107.657 126.374 107.375 126.374 104.842 126.937 102.309 126.937 99.2129 127.499 96.3986 128.062 88.5177 128.625 87.3917 128.625 84.2958 128.907 84.0143 130.033 72.1931 131.158 66.8458 131.158 64.8756 131.44 64.5941 132.566 55.869 134.255 48.5511 134.255 47.1439 135.38 43.7664 136.225 39.2631 137.914 34.7598 139.602 31.3823 143.542 26.1754 147.905 23.3608 153.253 21.6721ZM154.238 32.9303 152.268 33.7747 149.172 37.1522 147.483 41.0926C147.858 42.0306 147.67 42.4061 146.92 42.2184L144.387 53.4766 143.542 59.9501 142.416 64.7348 142.135 68.3937 141.854 68.6752 141.854 70.9267 141.291 72.8972 140.446 80.778 140.165 81.0595 139.883 86.1253 139.32 88.6588 139.32 91.4732 138.757 94.0061 138.757 96.5397 138.195 98.791 137.914 103.576 137.632 103.857 137.632 106.953 137.351 107.235 136.788 115.116 136.506 115.397 136.506 117.367 136.225 117.649 136.225 119.338 135.099 125.811 130.877 134.536 126.092 146.638C126.28 147.389 126.092 147.67 125.529 147.483L125.529 148.609 122.152 158.459 120.744 164.933 119.9 167.185 118.493 175.066 118.493 176.754 118.212 177.035 118.212 179.569 117.649 181.82 117.649 184.353 117.367 184.635 117.367 188.294 117.086 188.575 117.649 202.367 119.338 211.092 123.84 224.039 128.625 233.327 129.47 233.608 129.751 235.016 132.003 238.393 137.351 245.148C144.105 252.654 152.08 259.033 161.274 264.287 162.212 263.912 162.588 264.099 162.4 264.85L166.34 267.102 177.317 272.449 188.294 276.671 191.671 277.516 192.516 278.079 193.923 278.079 196.175 279.204 201.241 280.33 204.055 281.456 207.996 282.019 215.595 283.989 223.757 285.115 227.135 285.959 231.357 286.24 231.638 286.522 239.801 287.085 242.615 287.648 249.651 287.929 249.933 288.211 260.628 288.211 260.909 288.492 264.568 288.492 264.85 288.211 265.976 288.492 266.82 288.211 267.664 288.492C268.79 288.866 269.541 288.774 269.916 288.211L280.611 288.211 280.893 287.929 287.929 287.648 290.744 287.085 293.84 287.085 296.373 286.522 298.906 286.522 299.187 286.24 305.379 285.678C308.194 284.741 311.383 284.178 314.949 283.989L323.956 281.737 326.489 281.456 333.525 279.204 335.495 278.922 339.435 277.234 342.25 276.671 353.227 272.449 362.796 267.946 368.989 264.287C369.363 264.475 369.458 264.287 369.27 263.724L370.677 263.442 374.618 260.909 385.594 252.466C390.098 248.525 394.131 244.116 397.697 239.237L401.637 233.608 401.637 232.764C403.515 230.325 405.015 227.698 406.141 224.883L408.674 218.409 410.926 210.529 411.77 206.307 411.77 204.618 412.333 203.774 412.614 198.989 412.896 198.708 412.896 193.079 413.177 192.797 412.896 183.228C412.333 182.852 412.24 182.102 412.614 180.976L412.051 180.131 412.333 179.288 410.363 166.903 406.704 153.675 401.356 139.039 395.164 125.529 394.32 120.744 394.32 118.775 393.757 117.086 392.912 106.672 392.631 106.39 392.631 103.576 392.349 103.294 392.349 100.761 391.787 98.5095 392.068 97.3835 391.505 96.2582 390.661 85.5623 390.379 85.2808 390.098 80.778 388.972 74.5856 388.409 68.6752 388.128 68.3937 388.128 66.4236 385.594 51.7878 382.78 40.8111 380.81 36.5892 379.402 34.9005C378.651 33.7747 377.621 33.118 376.307 32.9303L373.773 32.9303 370.677 33.7747 365.892 36.5892C359.7 41.2803 353.883 46.4402 348.442 52.0693 348.631 52.6322 348.442 52.8199 347.879 52.6322 342.25 57.6984 337.091 63.2338 332.399 69.2381L330.711 70.3636 325.363 70.3636 319.734 68.1123 310.727 65.2978 303.128 63.3276 300.032 63.0461 298.906 62.4832 295.247 61.9203 294.684 61.9203 292.714 61.0759 288.492 60.7945 286.24 60.2315 282.019 59.9501 281.737 59.6687 279.204 59.6687 277.234 59.1057 273.012 59.1057 272.731 58.8243 257.814 58.8243 257.532 59.1057 253.31 59.1057 251.34 59.6687 248.807 59.6687 246.555 60.2315 240.082 60.7945 238.956 61.3574 238.111 61.0759 236.705 61.6388 233.045 62.2017 231.92 62.7646 227.416 63.3276 222.068 65.0163 217.846 65.8606 215.314 66.9865 210.81 68.1123 203.211 71.2082 201.804 71.2082 199.27 70.0825 183.509 53.4766C182.946 53.6643 182.758 53.5703 182.946 53.1952 177.317 47.1908 171.219 41.6554 164.652 36.5892L159.867 33.7747 156.771 32.9303 154.238 32.9303Z" stroke="#000000" stroke-width="14.4748" transform="matrix(1 0 0 1.00009 3134.81 5094)"/><path d="M2393.55 1478.85C2393.55 1470.84 2400.04 1464.34 2408.06 1464.34L2594.5 1464.34C2602.52 1464.34 2609.01 1470.84 2609.01 1478.85L2609.01 1536.86C2609.01 1544.88 2602.52 1551.37 2594.5 1551.37L2408.06 1551.37C2400.04 1551.37 2393.55 1544.88 2393.55 1536.86Z" stroke="#478CEA" stroke-width="6.43334" stroke-linejoin="round" stroke-miterlimit="10" fill="#478CEA" fill-rule="evenodd" transform="matrix(1 0 0 1.00037 896 3769.88)"/><text fill="#FFFFFF" font-family="Arial,Arial_MSFontService,sans-serif" font-weight="700" font-size="87" transform="matrix(0.701818 0 0 0.702078 3296.01 5300)">Charlie</text></g></g></g></g></svg>